<svg xmlns="http://www.w3.org/2000/svg" xmlns:xlink="http://www.w3.org/1999/xlink" width="156.798" height="153.772" viewBox="0 0 156.798 153.772">
  <defs>
    <linearGradient id="linear-gradient" x1="0.206" y1="0.085" x2="0.554" y2="0.633" gradientUnits="objectBoundingBox">
      <stop offset="0" stop-color="#aa80f9"/>
      <stop offset="0.996" stop-color="#6165d7"/>
    </linearGradient>
    <clipPath id="clip-path">
      <path id="Path_3694" data-name="Path 3694" d="M1980.143,794.736c5.8-4.232,6.672-15.092,5.121-22.346-1.81-8.469-6.2-8.625-7.1-15.321-1.667-12.468,12.873-17.042,12.189-29.748-.559-10.387-10.49-11.272-10.586-22.8-.069-8.321,5.068-11.859,2.621-19.082-.209-.617-2.561-7.244-8.275-8.711-5.768-1.48-11.588,3.161-14.444,6.871-5.279,6.858-1.216,11.554-4.491,21.979-4.458,14.194-14.628,13.891-15.75,25.021-.927,9.191,5.794,11.517,4.563,21.687-1.142,9.444-7.353,10.869-7.512,17.3C1936.114,784.366,1968.321,803.369,1980.143,794.736Z" transform="translate(-1936.479 -676.443)" fill="url(#linear-gradient)"/>
    </clipPath>
    <linearGradient id="linear-gradient-3" x1="-0.707" y1="-0.052" x2="-0.279" y2="2.01" gradientUnits="objectBoundingBox">
      <stop offset="0.004" stop-color="#e38ddd"/>
      <stop offset="1" stop-color="#9571f6"/>
    </linearGradient>
    <clipPath id="clip-path-2">
      <path id="Path_3701" data-name="Path 3701" d="M1856.587,1286.49a10.213,10.213,0,0,1-4.1-2.533c-3.057-4.521-9.33-12.615-8.579-18.336.128-.977,4.579-1.573,5.258-2.429,2.745-1.068,3.764-1.269,5.874-3.567,6.231-6.784-5.831-21.23,9.674-24.889,11.357-2.68,20.463,1.82,20.507-15.509s15.974-47.766,33.317-34.431c9.953,7.653-1.707,21.554,2.892,32.756,4.371,10.644-.594,18.792-11.955,24.176s-5.869,10.544-3.4,20.539c2.969,12.006-15.228,12.788-23.659,12.433C1875.63,1274.413,1858.148,1278.266,1856.587,1286.49Z" transform="translate(-1843.848 -1181.511)" fill="none"/>
    </clipPath>
    <linearGradient id="linear-gradient-4" x1="7.427" y1="0.82" x2="5.642" y2="-0.257" gradientUnits="objectBoundingBox">
      <stop offset="0" stop-color="#ff9085"/>
      <stop offset="1" stop-color="#fb6fbb"/>
    </linearGradient>
    <linearGradient id="linear-gradient-5" x1="7.1" y1="-0.756" x2="6.804" y2="0.94" xlink:href="#linear-gradient-4"/>
    <linearGradient id="linear-gradient-6" x1="27.995" y1="-3.452" x2="29.641" y2="1.185" xlink:href="#linear-gradient-3"/>
    <linearGradient id="linear-gradient-7" x1="27.962" y1="-4.19" x2="29.623" y2="0.875" xlink:href="#linear-gradient-3"/>
    <linearGradient id="linear-gradient-8" x1="16.071" y1="-3.659" x2="17.051" y2="4.791" xlink:href="#linear-gradient-3"/>
    <linearGradient id="linear-gradient-9" x1="18.569" y1="-2.598" x2="19.695" y2="2.273" xlink:href="#linear-gradient-3"/>
    <linearGradient id="linear-gradient-10" x1="18.173" y1="-6.236" x2="19.175" y2="-0.993" gradientUnits="objectBoundingBox">
      <stop offset="0" stop-color="#ffc444"/>
      <stop offset="0.996" stop-color="#f36f56"/>
    </linearGradient>
    <linearGradient id="linear-gradient-11" x1="17.408" y1="-10.252" x2="18.343" y2="-2.187" xlink:href="#linear-gradient-10"/>
    <linearGradient id="linear-gradient-12" x1="22.44" y1="-5.029" x2="23.718" y2="-0.182" xlink:href="#linear-gradient-3"/>
    <linearGradient id="linear-gradient-13" x1="18.34" y1="-4.569" x2="19.378" y2="0.118" xlink:href="#linear-gradient-10"/>
    <linearGradient id="linear-gradient-14" x1="16.887" y1="-6.752" x2="17.792" y2="-0.999" xlink:href="#linear-gradient-10"/>
    <linearGradient id="linear-gradient-15" x1="16.659" y1="-2.716" x2="17.665" y2="2.865" xlink:href="#linear-gradient-3"/>
    <linearGradient id="linear-gradient-16" x1="15.482" y1="-2.448" x2="16.438" y2="3.329" xlink:href="#linear-gradient-3"/>
    <linearGradient id="linear-gradient-17" x1="18.565" y1="-3.171" x2="19.732" y2="2.079" xlink:href="#linear-gradient-3"/>
    <linearGradient id="linear-gradient-18" x1="-0.281" y1="2.252" x2="1.518" y2="-1.782" gradientUnits="objectBoundingBox">
      <stop offset="0" stop-color="#444b8c"/>
      <stop offset="0.996" stop-color="#26264f"/>
    </linearGradient>
    <linearGradient id="linear-gradient-19" y1="0.5" x2="1" y2="0.5" gradientUnits="objectBoundingBox">
      <stop offset="0.494" stop-color="#ebeff2"/>
      <stop offset="1" stop-color="#fff"/>
    </linearGradient>
    <linearGradient id="linear-gradient-20" x1="1.494" y1="-0.488" x2="0.688" y2="0.437" xlink:href="#linear-gradient-10"/>
    <linearGradient id="linear-gradient-21" x1="0.33" y1="0.499" x2="2.948" y2="0.525" xlink:href="#linear-gradient-10"/>
    <linearGradient id="linear-gradient-22" x1="7.179" y1="-2.41" x2="7.359" y2="2.649" gradientUnits="objectBoundingBox">
      <stop offset="0.004" stop-color="#26264f"/>
      <stop offset="1" stop-color="#444b8c"/>
    </linearGradient>
    <linearGradient id="linear-gradient-23" x1="25.816" y1="1.152" x2="25.694" y2="-5.07" gradientUnits="objectBoundingBox">
      <stop offset="0" stop-color="#893976"/>
      <stop offset="1" stop-color="#311944"/>
    </linearGradient>
    <linearGradient id="linear-gradient-24" x1="11.051" y1="-1.485" x2="11.335" y2="1.472" xlink:href="#linear-gradient-22"/>
    <linearGradient id="linear-gradient-25" x1="18.476" y1="1.353" x2="18.389" y2="-3.032" xlink:href="#linear-gradient-23"/>
    <linearGradient id="linear-gradient-26" x1="0.979" y1="2.44" x2="0.476" y2="0.123" gradientUnits="objectBoundingBox">
      <stop offset="0" stop-color="#311944"/>
      <stop offset="0.741" stop-color="#5c3169"/>
      <stop offset="1" stop-color="#6b3976"/>
    </linearGradient>
    <linearGradient id="linear-gradient-27" x1="0" y1="0.5" x2="1" y2="0.5" xlink:href="#linear-gradient-4"/>
    <linearGradient id="linear-gradient-28" x1="0.716" y1="2.493" x2="0.467" y2="0.13" xlink:href="#linear-gradient-26"/>
    <linearGradient id="linear-gradient-29" x1="0.27" y1="-0.501" x2="0.65" y2="-0.046" xlink:href="#linear-gradient-22"/>
    <linearGradient id="linear-gradient-30" x1="0.771" y1="-0.481" x2="0.366" y2="0.116" gradientUnits="objectBoundingBox">
      <stop offset="0.004" stop-color="#6165d7"/>
      <stop offset="1" stop-color="#aa80f9"/>
    </linearGradient>
    <linearGradient id="linear-gradient-32" x1="1.292" y1="-9.319" x2="0.882" y2="-6.291" xlink:href="#linear-gradient-22"/>
    <linearGradient id="linear-gradient-34" x1="0.468" y1="-4.062" x2="1.494" y2="-4.062" xlink:href="#linear-gradient-23"/>
    <linearGradient id="linear-gradient-35" x1="2.088" y1="1.223" x2="2.779" y2="-0.536" xlink:href="#linear-gradient-23"/>
    <linearGradient id="linear-gradient-36" x1="5.866" y1="1.028" x2="9.568" y2="-0.946" xlink:href="#linear-gradient-23"/>
    <linearGradient id="linear-gradient-37" x1="0.319" y1="-0.013" x2="0.693" y2="0.811" xlink:href="#linear-gradient-23"/>
  </defs>
  <g id="access-anywhere" transform="translate(0)">
    <g id="Group_2451" data-name="Group 2451" transform="translate(82.833 11.518)" opacity="0.4" style="mix-blend-mode: soft-light;isolation: isolate">
      <path id="Path_3688" data-name="Path 3688" d="M1980.143,794.736c5.8-4.232,6.672-15.092,5.121-22.346-1.81-8.469-6.2-8.625-7.1-15.321-1.667-12.468,12.873-17.042,12.189-29.748-.559-10.387-10.49-11.272-10.586-22.8-.069-8.321,5.068-11.859,2.621-19.082-.209-.617-2.561-7.244-8.275-8.711-5.768-1.48-11.588,3.161-14.444,6.871-5.279,6.858-1.216,11.554-4.491,21.979-4.458,14.194-14.628,13.891-15.75,25.021-.927,9.191,5.794,11.517,4.563,21.687-1.142,9.444-7.353,10.869-7.512,17.3C1936.114,784.366,1968.321,803.369,1980.143,794.736Z" transform="translate(-1936.479 -676.443)" fill="url(#linear-gradient)"/>
      <g id="Group_2450" data-name="Group 2450" clip-path="url(#clip-path)">
        <g id="Group_2449" data-name="Group 2449" transform="translate(9.764 -9.176)">
          <g id="Group_2444" data-name="Group 2444" transform="translate(4.894 5.771)">
            <path id="Path_3689" data-name="Path 3689" d="M2217.823,744.572a.123.123,0,0,1-.061-.016,42.545,42.545,0,0,1-13.8-12.367c-3.427-4.8-6.971-9.773-6.792-16.047.136-4.766,2.317-7.352,5.077-10.625a37.44,37.44,0,0,0,8.174-14.214c1.276-4.1,2.863-9.191,1.479-15.245a18.3,18.3,0,0,0-3.461-7.233c-1.291-1.805-2.406-3.365-2.241-6.063.265-4.342,2.543-7.155,5.18-10.413a43.05,43.05,0,0,0,4.713-6.693c4.063-7.47,4.018-17.435-.135-29.616a.123.123,0,1,1,.233-.079c4.176,12.249,4.215,22.279.118,29.813a43.237,43.237,0,0,1-4.738,6.731c-2.611,3.225-4.865,6.01-5.126,10.273-.159,2.611.88,4.064,2.2,5.9a18.514,18.514,0,0,1,3.5,7.321c1.4,6.12-.2,11.25-1.484,15.373a37.659,37.659,0,0,1-8.221,14.3c-2.73,3.236-4.885,5.792-5.02,10.473-.177,6.192,3.343,11.126,6.746,15.9a42.3,42.3,0,0,0,13.722,12.3.123.123,0,0,1-.061.23Z" transform="translate(-2197.163 -615.877)" fill="#fff"/>
          </g>
          <g id="Group_2445" data-name="Group 2445" transform="translate(20.084 36.343)">
            <path id="Path_3690" data-name="Path 3690" d="M2467.434,1192.21a.123.123,0,0,1-.083-.214c7.007-6.464,11.708-19.073,14.516-26.606,1.562-4.187,2.222-5.882,2.746-5.795.254.043.432.4.471,2a.123.123,0,0,1-.12.126.127.127,0,0,1-.126-.12c-.041-1.673-.243-1.755-.265-1.759-.343-.062-1.43,2.838-2.474,5.638-2.816,7.554-7.53,20.2-14.581,26.7A.123.123,0,0,1,2467.434,1192.21Z" transform="translate(-2467.311 -1159.592)" fill="#fff"/>
          </g>
          <g id="Group_2446" data-name="Group 2446" transform="translate(0 45.81)">
            <path id="Path_3691" data-name="Path 3691" d="M2126.138,1369.174a.124.124,0,0,1-.077-.027,43.58,43.58,0,0,1-11.968-14.123,35.575,35.575,0,0,1-3.832-13.283,34,34,0,0,1,1.514-13.724.123.123,0,0,1,.23.089,33.749,33.749,0,0,0-1.5,13.626,35.333,35.333,0,0,0,3.808,13.186,43.329,43.329,0,0,0,11.9,14.036.123.123,0,0,1-.076.22Z" transform="translate(-2110.13 -1327.938)" fill="#fff"/>
          </g>
          <g id="Group_2447" data-name="Group 2447" transform="translate(7.839 88.349)">
            <path id="Path_3692" data-name="Path 3692" d="M2249.669,2113.052a.123.123,0,0,1-.037-.241c13.7-4.256,20.764-11.708,24.279-17.21a28.628,28.628,0,0,0,4.391-11.032.123.123,0,0,1,.245.026,28.869,28.869,0,0,1-4.42,11.127c-3.536,5.541-10.644,13.043-24.421,17.324A.125.125,0,0,1,2249.669,2113.052Z" transform="translate(-2249.545 -2084.46)" fill="#fff"/>
          </g>
          <g id="Group_2448" data-name="Group 2448" transform="translate(15.592)">
            <path id="Path_3693" data-name="Path 3693" d="M2396.2,547.578a.123.123,0,0,1-.089-.038c-7.979-8.381-9.074-17.239-8.589-23.194a30.467,30.467,0,0,1,3-11.028.123.123,0,0,1,.216.118,30.208,30.208,0,0,0-2.969,10.94c-.479,5.9.611,14.683,8.523,22.994a.123.123,0,0,1-.089.208Z" transform="translate(-2387.422 -513.253)" fill="#fff"/>
          </g>
        </g>
      </g>
    </g>
    <g id="Group_2456" data-name="Group 2456" transform="translate(77.624 39.918)">
      <path id="Path_3695" data-name="Path 3695" d="M1856.871,1287.2a10.212,10.212,0,0,1-4.1-2.533c-3.057-4.521-9.33-12.615-8.579-18.336.128-.977,4.578-1.573,5.258-2.429,2.745-1.068,3.764-1.269,5.874-3.567,6.231-6.784-5.831-21.23,9.674-24.889,11.357-2.68,20.463,1.82,20.507-15.508s15.974-47.766,33.317-34.431c9.953,7.653-1.707,21.554,2.892,32.756,4.371,10.644-.594,18.792-11.955,24.176s-5.869,10.544-3.4,20.539c2.969,12.006-15.228,12.788-23.66,12.433C1875.914,1275.124,1858.432,1278.976,1856.871,1287.2Z" transform="translate(-1844.116 -1182.181)" fill="url(#linear-gradient-3)"/>
      <g id="Group_2455" data-name="Group 2455" opacity="0.4" style="mix-blend-mode: soft-light;isolation: isolate">
        <g id="Group_2454" data-name="Group 2454" clip-path="url(#clip-path-2)">
          <g id="Group_2453" data-name="Group 2453" transform="translate(4.371 -2.3)">
            <g id="Group_2452" data-name="Group 2452">
              <path id="Path_3696" data-name="Path 3696" d="M1921.679,1236.7l-.1-.245c37.664-15.12,62.276-50.948,65.837-95.839l.263.021c-1.688,21.275-8.382,41.27-19.358,57.821A101.054,101.054,0,0,1,1921.679,1236.7Z" transform="translate(-1921.581 -1140.612)" fill="#fcfdfe"/>
              <path id="Path_3697" data-name="Path 3697" d="M2324.58,2626.691c-10.273-4.207-27.863-5.566-39.211-3.027l.414-.3c11.393-2.548,28.582-1.139,38.9,3.085Z" transform="translate(-2264.913 -2538.786)" fill="#fcfdfe"/>
              <path id="Path_3698" data-name="Path 3698" d="M2052.065,2147.31l-.736.366c4.766-3.718,7.469-9.7,8.033-17.788a68.782,68.782,0,0,0-2.151-20.5l.256-.061a69.042,69.042,0,0,1,2.157,20.583C2059.055,2138.069,2056.893,2143.543,2052.065,2147.31Z" transform="translate(-2044.033 -2054.853)" fill="#fcfdfe"/>
              <path id="Path_3699" data-name="Path 3699" d="M2779.359,1978.323c.057.044-.512.818-.458.861.019-.016.661-.762.68-.777,8.5-6.941,19.94-8.064,28.173-7.852l.007-.264C2799.479,1970.078,2787.925,1971.321,2779.359,1978.323Z" transform="translate(-2730.69 -1923.618)" fill="#fcfdfe"/>
              <path id="Path_3700" data-name="Path 3700" d="M2828.856,1194.361l-.279.341.073-.292a1.7,1.7,0,0,0,.034-.175c1.8-12.686-4.724-24.44-8.782-30.326l.217-.15C2824.209,1169.69,2830.715,1181.552,2828.856,1194.361Z" transform="translate(-2769.391 -1162.458)" fill="#fcfdfe"/>
            </g>
          </g>
        </g>
      </g>
    </g>
    <g id="Group_2460" data-name="Group 2460" transform="translate(7.923 0)">
      <path id="Path_3702" data-name="Path 3702" d="M636.1,916.251l-1.43-1.24a14.715,14.715,0,0,0,1.107-2.328l1.852.358a.929.929,0,0,0,1.088-.747l.6-3.195a.947.947,0,0,0-.743-1.105l-1.873-.367a15.173,15.173,0,0,0-.2-2.58l1.805-.63a.945.945,0,0,0,.573-1.2l-1.068-3.1a.941.941,0,0,0-1.194-.592l-1.813.63a15.087,15.087,0,0,0-1.454-2.155l1.258-1.476a.966.966,0,0,0-.1-1.347l-2.47-2.179a.932.932,0,0,0-1.33.087l-1.262,1.48a14.948,14.948,0,0,0-2.328-1.165l.352-1.929a.978.978,0,0,0-.76-1.132l-3.226-.656a.933.933,0,0,0-1.107.754l-.35,1.932a14.876,14.876,0,0,0-2.6.164l-.657-1.865a.971.971,0,0,0-1.222-.606l-3.11,1.065a.949.949,0,0,0-.577,1.224l.656,1.847a14.559,14.559,0,0,0-2.16,1.469l-1.482-1.285a.954.954,0,0,0-1.353.089l-2.137,2.506a.97.97,0,0,0,.118,1.361l1.474,1.271a14.71,14.71,0,0,0-1.132,2.376l-1.884-.369a.941.941,0,0,0-1.114.759l-.576,3.257a.979.979,0,0,0,.78,1.125l1.873.362a15.172,15.172,0,0,0,.226,2.642l-1.781.618a.941.941,0,0,0-.573,1.216l1.132,3.112a.969.969,0,0,0,1.226.586l1.762-.615a15.094,15.094,0,0,0,1.518,2.179l-1.207,1.415a.947.947,0,0,0,.116,1.337l2.512,2.129a.95.95,0,0,0,1.337-.1l1.2-1.411a14.947,14.947,0,0,0,2.376,1.138l-.33,1.819a.948.948,0,0,0,.762,1.1l3.2.594a.937.937,0,0,0,1.095-.752l.334-1.828a14.853,14.853,0,0,0,2.593-.2l.624,1.756a.939.939,0,0,0,1.2.572l3.046-1.078a.937.937,0,0,0,.569-1.2l-.622-1.763a14.555,14.555,0,0,0,2.12-1.471l1.422,1.226a.929.929,0,0,0,1.315-.1l2.095-2.456A.944.944,0,0,0,636.1,916.251Zm-8-16.1a9.664,9.664,0,0,1,1.058,13.519,9.5,9.5,0,0,1-13.43.99,9.66,9.66,0,0,1-1.138-13.587A9.5,9.5,0,0,1,628.1,900.154Z" transform="translate(-604.262 -866.152)" fill="url(#linear-gradient-4)"/>
      <g id="Group_2459" data-name="Group 2459" transform="translate(32.761)">
        <path id="Path_3703" data-name="Path 3703" d="M1402.781,688.05l-1.273-1.147a12.906,12.906,0,0,0,.972-2.072l1.643.363a.8.8,0,0,0,.961-.649l.517-2.865a.883.883,0,0,0-.662-1.014l-1.663-.375a14.028,14.028,0,0,0-.186-2.335l1.6-.526a.833.833,0,0,0,.5-1.073l-.96-2.83a.86.86,0,0,0-1.063-.566l-1.609.525a14.331,14.331,0,0,0-1.3-1.99l1.114-1.306a.894.894,0,0,0-.1-1.224l-2.211-2.044a.817.817,0,0,0-1.187.044l-1.119,1.312a13.861,13.861,0,0,0-2.086-1.121l.3-1.746a.927.927,0,0,0-.687-1.051l-2.893-.687a.8.8,0,0,0-.987.657l-.3,1.751a13.037,13.037,0,0,0-2.327.08l-.6-1.719a.9.9,0,0,0-1.1-.587l-2.788.887a.839.839,0,0,0-.509,1.1l.606,1.7a12.4,12.4,0,0,0-1.93,1.282l-1.345-1.212a.847.847,0,0,0-1.218.045l-1.9,2.232a.9.9,0,0,0,.119,1.245l1.339,1.2a12.887,12.887,0,0,0-1,2.137l-1.7-.383a.813.813,0,0,0-1,.664l-.487,2.952a.929.929,0,0,0,.714,1.042l1.69.374a14.05,14.05,0,0,0,.228,2.406l-1.6.52a.828.828,0,0,0-.5,1.091l1.048,2.849a.9.9,0,0,0,1.107.558l1.577-.518a14.341,14.341,0,0,0,1.381,2.006l-1.07,1.254a.868.868,0,0,0,.116,1.212l2.269,1.976a.841.841,0,0,0,1.2-.065l1.065-1.249a13.816,13.816,0,0,0,2.133,1.076l-.28,1.634a.885.885,0,0,0,.689,1.005l2.862.6a.808.808,0,0,0,.97-.655l.285-1.639a13.016,13.016,0,0,0,2.308-.13l.566,1.592a.856.856,0,0,0,1.068.538l2.7-.907a.822.822,0,0,0,.5-1.063l-.561-1.6a12.4,12.4,0,0,0,1.875-1.279l1.267,1.132a.812.812,0,0,0,1.165-.063l1.845-2.164A.863.863,0,0,0,1402.781,688.05Zm-7.195-14.727a8.9,8.9,0,0,1,1.018,12.253,8.369,8.369,0,0,1-11.975.6,8.894,8.894,0,0,1-1.128-12.352A8.371,8.371,0,0,1,1395.586,673.323Z" transform="translate(-1363.718 -652.852)" fill="url(#linear-gradient-5)"/>
        <g id="Group_2458" data-name="Group 2458">
          <path id="Path_3704" data-name="Path 3704" d="M1229.9,479c-10.882-10.256-27.562-9.843-36.971,1.19s-7.588,28.046,3.769,37.745c11.041,9.429,27.016,8.383,35.957-2.1S1240.484,488.968,1229.9,479Zm-29.232,34.28c-8.569-7.4-9.886-20.289-2.771-28.632s19.739-8.718,28.034-.992c8.119,7.562,9.027,20.081,2.184,28.105S1209.059,520.525,1200.672,513.278Z" transform="translate(-1186.89 -471.598)" fill="#fff" opacity="0.74"/>
          <g id="Group_2457" data-name="Group 2457" transform="translate(0.016 0.014)">
            <path id="Path_3705" data-name="Path 3705" d="M1193.935,837.86l-6.343-1.419a27.221,27.221,0,0,0,.936,13.2l5.964-1.948A20.67,20.67,0,0,1,1193.935,837.86Z" transform="translate(-1187.175 -815.94)" fill="url(#linear-gradient-6)"/>
            <path id="Path_3706" data-name="Path 3706" d="M1982.969,819.276l5.89,1.324a27.346,27.346,0,0,0-1.212-11.815l-5.689,1.862A20.826,20.826,0,0,1,1982.969,819.276Z" transform="translate(-1937.268 -789.839)" fill="url(#linear-gradient-7)"/>
            <path id="Path_3707" data-name="Path 3707" d="M1526.566,478.8a19.411,19.411,0,0,1,8.7.125l1.09-6.308a25.506,25.506,0,0,0-12-.094Z" transform="translate(-1505.398 -471.854)" fill="url(#linear-gradient-8)"/>
            <path id="Path_3708" data-name="Path 3708" d="M1209.233,619.948c.152-.178.31-.348.468-.519l-4.971-4.466q-.235.26-.464.529a25.076,25.076,0,0,0-5.368,10.738l6.365,1.43A19.052,19.052,0,0,1,1209.233,619.948Z" transform="translate(-1198.238 -606.915)" fill="url(#linear-gradient-9)"/>
            <path id="Path_3709" data-name="Path 3709" d="M1808.857,1177.024a18.433,18.433,0,0,1-6.628,4.937l2.043,5.806a24.225,24.225,0,0,0,9.126-6.669q.218-.255.427-.515l-4.544-4.082C1809.142,1176.677,1809,1176.853,1808.857,1177.024Z" transform="translate(-1767.645 -1136.879)" opacity="0.25" fill="url(#linear-gradient-10)"/>
            <path id="Path_3710" data-name="Path 3710" d="M1610.134,1281.248a19.14,19.14,0,0,1-9.281.964l-1.046,6.03a25.186,25.186,0,0,0,12.37-1.205Z" transform="translate(-1576.605 -1235.736)" opacity="0.25" fill="url(#linear-gradient-11)"/>
            <path id="Path_3711" data-name="Path 3711" d="M1943.052,1016.03a19.249,19.249,0,0,1-3.239,8.109l4.551,4.1a25.254,25.254,0,0,0,4.558-10.894Z" transform="translate(-1897.492 -985.431)" fill="url(#linear-gradient-12)"/>
            <path id="Path_3712" data-name="Path 3712" d="M1230.008,1065.5a21.23,21.23,0,0,1-5.61-8.348l-5.95,1.947a27.923,27.923,0,0,0,7.583,11.064Z" transform="translate(-1216.69 -1024.238)" opacity="0.25" fill="url(#linear-gradient-13)"/>
            <path id="Path_3713" data-name="Path 3713" d="M1382.481,1223.88a20.4,20.4,0,0,1-8.863-4.227l-3.972,4.658a26.825,26.825,0,0,0,11.793,5.6Z" transform="translate(-1359.386 -1177.604)" opacity="0.25" fill="url(#linear-gradient-14)"/>
            <path id="Path_3714" data-name="Path 3714" d="M1738.953,497.378a20.582,20.582,0,0,1,7.55,4.25l3.977-4.663a27.072,27.072,0,0,0-10.433-5.9Z" transform="translate(-1707.927 -489.99)" fill="url(#linear-gradient-15)"/>
            <path id="Path_3715" data-name="Path 3715" d="M1322.163,499.8a18.393,18.393,0,0,1,7.732-4.434l-2.209-6.261a24.178,24.178,0,0,0-10.5,6.214Z" transform="translate(-1309.875 -488.138)" fill="url(#linear-gradient-16)"/>
            <path id="Path_3716" data-name="Path 3716" d="M1888.966,615.323a21.249,21.249,0,0,1,4.814,7.219l5.7-1.863a27.943,27.943,0,0,0-6.545-10.014Z" transform="translate(-1849.504 -602.86)" fill="url(#linear-gradient-17)"/>
          </g>
        </g>
      </g>
      <path id="Path_3717" data-name="Path 3717" d="M884.04,571.1l-.64-.537a6.012,6.012,0,0,0,.46-.994l.816.16a.392.392,0,0,0,.469-.317l.227-1.367a.422.422,0,0,0-.338-.476l-.825-.163a6.4,6.4,0,0,0-.115-1.105l.784-.264a.39.39,0,0,0,.238-.513l-.5-1.329a.427.427,0,0,0-.529-.257l-.787.264a6.737,6.737,0,0,0-.659-.925l.535-.627a.409.409,0,0,0-.059-.576l-1.1-.937a.412.412,0,0,0-.58.034l-.536.628a6.825,6.825,0,0,0-1.029-.5l.134-.822a.432.432,0,0,0-.344-.484l-1.414-.287a.393.393,0,0,0-.475.319l-.133.822a6.6,6.6,0,0,0-1.13.064l-.305-.8a.437.437,0,0,0-.538-.261l-1.344.446a.391.391,0,0,0-.239.52l.3.788a6.111,6.111,0,0,0-.926.62l-.657-.551a.419.419,0,0,0-.588.034l-.905,1.062a.41.41,0,0,0,.064.58l.653.546a6.012,6.012,0,0,0-.47,1.01l-.823-.163a.4.4,0,0,0-.477.32l-.22,1.387a.433.433,0,0,0,.35.482l.819.16a6.413,6.413,0,0,0,.123,1.128l-.769.258a.389.389,0,0,0-.238.517l.522,1.333a.437.437,0,0,0,.539.255l.762-.257a6.748,6.748,0,0,0,.683.937l-.512.6a.4.4,0,0,0,.063.573l1.116.921a.418.418,0,0,0,.583-.039l.511-.6a6.83,6.83,0,0,0,1.049.5l-.126.778a.422.422,0,0,0,.344.474l1.407.268a.394.394,0,0,0,.471-.318l.127-.782a6.577,6.577,0,0,0,1.132-.077l.291.756a.426.426,0,0,0,.53.25l1.323-.45a.388.388,0,0,0,.237-.511l-.291-.759a6.086,6.086,0,0,0,.913-.623l.636.531a.411.411,0,0,0,.575-.038l.892-1.046A.4.4,0,0,0,884.04,571.1Zm-3.674-6.916a4.1,4.1,0,0,1,.6,5.786,4.19,4.19,0,0,1-5.86.377,4.1,4.1,0,0,1-.63-5.808A4.19,4.19,0,0,1,880.366,564.189Z" transform="translate(-855.086 -554.746)" fill="url(#linear-gradient-18)"/>
    </g>
    <g id="Group_2464" data-name="Group 2464" transform="translate(0 68.43)">
      <g id="Group_2463" data-name="Group 2463">
        <path id="Path_3718" data-name="Path 3718" d="M660.819,2917.505l-138.039-1.193v3.53a1.875,1.875,0,0,0,1.417,1.918l39.033,6.952a5.4,5.4,0,0,0,1.4.065l94.688-7.926a1.786,1.786,0,0,0,1.5-1.873Z" transform="translate(-519.439 -2847.276)" fill="#bfc8d6"/>
        <g id="Group_2462" data-name="Group 2462">
          <path id="Path_3719" data-name="Path 3719" d="M553.946,1753.141l-87.735,6.458a2.659,2.659,0,0,1-2.846-2.743v-65.334a2.9,2.9,0,0,1,2.846-2.953l3.1,1.789,84.631-1.789a2.52,2.52,0,0,1,2.339,2.669V1750.3A2.755,2.755,0,0,1,553.946,1753.141Z" transform="translate(-463.365 -1688.57)" fill="#bfc8d6"/>
          <path id="Path_3720" data-name="Path 3720" d="M578.824,1753.141l-87.735,6.458a2.659,2.659,0,0,1-2.846-2.743v-65.334a2.9,2.9,0,0,1,2.846-2.953h87.735a2.52,2.52,0,0,1,2.339,2.669V1750.3A2.755,2.755,0,0,1,578.824,1753.141Z" transform="translate(-486.844 -1688.57)" fill="#fff"/>
          <path id="Path_3721" data-name="Path 3721" d="M640.148,1812.645l-81.716,5.61a2.18,2.18,0,0,1-2.316-2.252v-57.2a2.378,2.378,0,0,1,2.316-2.42l81.716-.352a2.064,2.064,0,0,1,1.93,2.187v52.1A2.255,2.255,0,0,1,640.148,1812.645Z" transform="translate(-550.901 -1752.237)" fill="#d8dee8"/>
          <g id="Group_2461" data-name="Group 2461" transform="translate(14.457 7.469)" style="mix-blend-mode: soft-light;isolation: isolate">
            <path id="Path_3722" data-name="Path 3722" d="M742.52,1823.438l-22.053.057,0-2.1,22.053.007Z" transform="translate(-720.463 -1821.392)" fill="#fff" style="mix-blend-mode: soft-light;isolation: isolate"/>
            <path id="Path_3723" data-name="Path 3723" d="M1211.858,1822.978l-5.094.009,0-1.437,5.095,0Z" transform="translate(-1179.417 -1821.541)" fill="#fff" style="mix-blend-mode: soft-light;isolation: isolate"/>
            <path id="Path_3724" data-name="Path 3724" d="M1211.913,1858.239l-5.094.024,0-1.437,5.094-.013Z" transform="translate(-1179.469 -1854.822)" fill="#fff" style="mix-blend-mode: soft-light;isolation: isolate"/>
            <path id="Path_3725" data-name="Path 3725" d="M1417.2,1857.027l-19.764.092,0-1.414,19.764-.051Z" transform="translate(-1359.363 -1853.728)" fill="#fff"/>
            <path id="Path_3726" data-name="Path 3726" d="M1478.186,1890.634l-19.568.148,0-1.407,19.568-.107Z" transform="translate(-1417.109 -1885.451)" fill="#fff"/>
            <path id="Path_3727" data-name="Path 3727" d="M1478.239,1924.4l-19.568.2,0-1.407,19.568-.163Z" transform="translate(-1417.16 -1917.315)" fill="#fff"/>
            <path id="Path_3728" data-name="Path 3728" d="M1478.293,1958.158l-19.568.261,0-1.407,19.568-.22Z" transform="translate(-1417.211 -1949.178)" fill="#fff" style="mix-blend-mode: soft-light;isolation: isolate"/>
            <path id="Path_3729" data-name="Path 3729" d="M1211.968,1893.473l-5.094.038,0-1.437,5.094-.028Z" transform="translate(-1179.521 -1888.074)" fill="#fff" style="mix-blend-mode: soft-light;isolation: isolate"/>
            <path id="Path_3730" data-name="Path 3730" d="M1212.023,1928.707l-5.094.053,0-1.437,5.094-.043Z" transform="translate(-1179.572 -1921.327)" fill="#fff" style="mix-blend-mode: soft-light;isolation: isolate"/>
            <path id="Path_3731" data-name="Path 3731" d="M1212.077,1963.94l-5.094.068,0-1.437,5.094-.057Z" transform="translate(-1179.624 -1954.579)" fill="#fff" style="mix-blend-mode: soft-light;isolation: isolate"/>
            <path id="Path_3732" data-name="Path 3732" d="M1212.132,1999.174l-5.094.083,0-1.437,5.094-.072Z" transform="translate(-1179.676 -1987.832)" fill="#fff" style="mix-blend-mode: soft-light;isolation: isolate"/>
            <path id="Path_3733" data-name="Path 3733" d="M1329.948,1995.715l-12.54.2,0-1.424,12.54-.177Z" transform="translate(-1283.84 -1984.594)" fill="#fff" style="mix-blend-mode: soft-light;isolation: isolate"/>
            <path id="Path_3734" data-name="Path 3734" d="M1212.187,2034.408l-5.094.1,0-1.437,5.094-.087Z" transform="translate(-1179.728 -2021.085)" fill="#fff" style="mix-blend-mode: soft-light;isolation: isolate"/>
            <path id="Path_3735" data-name="Path 3735" d="M1212.242,2069.642l-5.094.112,0-1.437,5.094-.1Z" transform="translate(-1179.779 -2054.337)" fill="#fff" style="mix-blend-mode: soft-light;isolation: isolate"/>
            <path id="Path_3736" data-name="Path 3736" d="M1212.3,2104.875l-5.094.127,0-1.437,5.094-.116Z" transform="translate(-1179.831 -2087.589)" fill="#fff" style="mix-blend-mode: soft-light;isolation: isolate"/>
            <path id="Path_3737" data-name="Path 3737" d="M1411.6,2028.456l-13.9.266,0-1.414,13.9-.237Z" transform="translate(-1359.618 -2015.505)" fill="#fff"/>
            <path id="Path_3738" data-name="Path 3738" d="M1476.574,2060.113l-17.688.389,0-1.407,17.688-.352Z" transform="translate(-1417.363 -2045.396)" fill="#fff" style="mix-blend-mode: soft-light;isolation: isolate"/>
            <path id="Path_3739" data-name="Path 3739" d="M1476.628,2093.971l-17.688.44,0-1.407,17.688-.4Z" transform="translate(-1417.414 -2077.351)" fill="#fff" style="mix-blend-mode: soft-light;isolation: isolate"/>
            <path id="Path_3740" data-name="Path 3740" d="M1212.352,2140.109l-5.094.141,0-1.437,5.094-.131Z" transform="translate(-1179.883 -2120.842)" fill="#fff" style="mix-blend-mode: soft-light;isolation: isolate"/>
            <path id="Path_3741" data-name="Path 3741" d="M1212.406,2175.343l-5.094.156,0-1.437,5.094-.146Z" transform="translate(-1179.935 -2154.095)" fill="#fff" style="mix-blend-mode: soft-light;isolation: isolate"/>
            <path id="Path_3742" data-name="Path 3742" d="M1212.461,2210.577l-5.094.171,0-1.437,5.094-.16Z" transform="translate(-1179.986 -2187.347)" fill="#fff" style="mix-blend-mode: soft-light;isolation: isolate"/>
            <path id="Path_3743" data-name="Path 3743" d="M1212.516,2245.811l-5.094.186,0-1.437,5.094-.175Z" transform="translate(-1180.038 -2220.6)" fill="#fff" style="mix-blend-mode: soft-light;isolation: isolate"/>
            <path id="Path_3744" data-name="Path 3744" d="M1212.571,2281.044l-5.094.2,0-1.437,5.094-.19Z" transform="translate(-1180.09 -2253.852)" fill="#fff" style="mix-blend-mode: soft-light;isolation: isolate"/>
            <path id="Path_3745" data-name="Path 3745" d="M1212.626,2316.278l-5.094.215,0-1.437,5.094-.2Z" transform="translate(-1180.142 -2287.105)" fill="#fff" style="mix-blend-mode: soft-light;isolation: isolate"/>
            <path id="Path_3746" data-name="Path 3746" d="M1212.681,2351.512l-5.094.23,0-1.437,5.094-.219Z" transform="translate(-1180.194 -2320.357)" fill="#fff" style="mix-blend-mode: soft-light;isolation: isolate"/>
            <path id="Path_3747" data-name="Path 3747" d="M1212.736,2386.745l-5.094.244,0-1.436,5.094-.234Z" transform="translate(-1180.245 -2353.61)" fill="#fff" style="mix-blend-mode: soft-light;isolation: isolate"/>
            <path id="Path_3748" data-name="Path 3748" d="M1212.79,2421.979l-5.094.26,0-1.437,5.094-.249Z" transform="translate(-1180.297 -2386.863)" fill="#fff" style="mix-blend-mode: soft-light;isolation: isolate"/>
            <path id="Path_3749" data-name="Path 3749" d="M1212.845,2457.213l-5.094.274,0-1.437,5.094-.263Z" transform="translate(-1180.349 -2420.115)" fill="#fff" style="mix-blend-mode: soft-light;isolation: isolate"/>
            <path id="Path_3750" data-name="Path 3750" d="M1212.9,2492.446l-5.094.289,0-1.437,5.094-.278Z" transform="translate(-1180.401 -2453.367)" fill="#fff" style="mix-blend-mode: soft-light;isolation: isolate"/>
            <path id="Path_3751" data-name="Path 3751" d="M1212.955,2527.68l-5.094.3,0-1.437,5.094-.293Z" transform="translate(-1180.453 -2486.62)" fill="#fff" style="mix-blend-mode: soft-light;isolation: isolate"/>
            <path id="Path_3752" data-name="Path 3752" d="M1213.01,2562.914l-5.094.318,0-1.437,5.094-.308Z" transform="translate(-1180.504 -2519.873)" fill="#fff" style="mix-blend-mode: soft-light;isolation: isolate"/>
            <path id="Path_3753" data-name="Path 3753" d="M1213.064,2598.148l-5.094.333,0-1.437,5.094-.323Z" transform="translate(-1180.556 -2553.125)" fill="#fff" style="mix-blend-mode: soft-light;isolation: isolate"/>
            <path id="Path_3754" data-name="Path 3754" d="M1213.119,2633.382l-5.094.348,0-1.437,5.094-.337Z" transform="translate(-1180.608 -2586.378)" fill="#fff" style="mix-blend-mode: soft-light;isolation: isolate"/>
            <path id="Path_3755" data-name="Path 3755" d="M1213.174,2668.615l-5.094.362,0-1.437,5.094-.352Z" transform="translate(-1180.66 -2619.63)" fill="#fff" style="mix-blend-mode: soft-light;isolation: isolate"/>
            <path id="Path_3756" data-name="Path 3756" d="M1213.229,2703.849l-5.094.377,0-1.437,5.094-.366Z" transform="translate(-1180.711 -2652.883)" fill="#fff" style="mix-blend-mode: soft-light;isolation: isolate"/>
            <path id="Path_3757" data-name="Path 3757" d="M1213.284,2739.083l-5.094.392,0-1.437,5.094-.381Z" transform="translate(-1180.763 -2686.136)" fill="#fff" style="mix-blend-mode: soft-light;isolation: isolate"/>
            <path id="Path_3758" data-name="Path 3758" d="M1330.415,1822.985l-13.894.024,0-1.424,13.894,0Z" transform="translate(-1283.002 -1821.575)" fill="#fff"/>
            <path id="Path_3759" data-name="Path 3759" d="M1418.274,2535.6l-19.763,1.235,0-1.414,19.763-1.194Z" transform="translate(-1360.383 -2494.14)" fill="#fff" style="mix-blend-mode: soft-light;isolation: isolate"/>
            <path id="Path_3760" data-name="Path 3760" d="M1479.258,2565.87l-19.566,1.279,0-1.407,19.566-1.238Z" transform="translate(-1418.124 -2522.719)" fill="#fff"/>
            <path id="Path_3761" data-name="Path 3761" d="M1479.312,2599.632l-19.566,1.335,0-1.407,19.566-1.295Z" transform="translate(-1418.174 -2554.582)" fill="#fff"/>
            <path id="Path_3762" data-name="Path 3762" d="M1637.815,2623.019l-19.059,1.356,0-1.388,19.059-1.316Z" transform="translate(-1568.243 -2576.671)" fill="#fff"/>
            <path id="Path_3763" data-name="Path 3763" d="M1637.867,2656.347l-19.059,1.411,0-1.388,19.059-1.372Z" transform="translate(-1568.292 -2608.125)" fill="#fff" style="mix-blend-mode: soft-light;isolation: isolate"/>
            <path id="Path_3764" data-name="Path 3764" d="M1637.92,2689.675l-19.059,1.466,0-1.388,19.059-1.427Z" transform="translate(-1568.343 -2639.579)" fill="#fff" style="mix-blend-mode: soft-light;isolation: isolate"/>
            <path id="Path_3765" data-name="Path 3765" d="M1331.5,2512.341l-13.893.828,0-1.424,13.893-.8Z" transform="translate(-1284.029 -2472.172)" fill="#fff"/>
            <path id="Path_3766" data-name="Path 3766" d="M1417.681,2162.383l-19.764.606,0-1.414,19.764-.565Z" transform="translate(-1359.822 -2141.913)" fill="#fff"/>
            <path id="Path_3767" data-name="Path 3767" d="M1478.668,2194.49l-19.567.657,0-1.407,19.567-.616Z" transform="translate(-1417.566 -2172.222)" fill="#fff" style="mix-blend-mode: soft-light;isolation: isolate"/>
            <path id="Path_3768" data-name="Path 3768" d="M1478.722,2228.252l-19.567.713,0-1.407,19.567-.673Z" transform="translate(-1417.616 -2204.085)" fill="#fff"/>
            <path id="Path_3769" data-name="Path 3769" d="M1478.776,2262.014l-19.567.77,0-1.407,19.567-.729Z" transform="translate(-1417.667 -2235.948)" fill="#fff"/>
            <path id="Path_3770" data-name="Path 3770" d="M1330.436,2306.5l-12.539.53,0-1.424,12.539-.5Z" transform="translate(-1284.302 -2277.905)" fill="#fff"/>
            <path id="Path_3771" data-name="Path 3771" d="M1412.089,2336.524l-13.9.627,0-1.414,13.9-.6Z" transform="translate(-1360.077 -2306.251)" fill="#fff" style="mix-blend-mode: soft-light;isolation: isolate"/>
            <path id="Path_3772" data-name="Path 3772" d="M1477.057,2364.838l-17.687.849,0-1.407,17.687-.812Z" transform="translate(-1417.819 -2332.987)" fill="#fff" style="mix-blend-mode: soft-light;isolation: isolate"/>
            <path id="Path_3773" data-name="Path 3773" d="M1477.111,2398.7l-17.687.9,0-1.407,17.687-.864Z" transform="translate(-1417.87 -2364.942)" fill="#fff"/>
            <path id="Path_3774" data-name="Path 3774" d="M1550.469,2428.94l-17.474.94,0-1.4,17.474-.9Z" transform="translate(-1487.304 -2393.493)" fill="#fff"/>
            <path id="Path_3775" data-name="Path 3775" d="M1550.522,2462.6l-17.474.991,0-1.4,17.474-.954Z" transform="translate(-1487.355 -2425.257)" fill="#fff"/>
            <path id="Path_3776" data-name="Path 3776" d="M1330.9,2133.237l-13.893.386,0-1.424,13.894-.357Z" transform="translate(-1283.464 -2114.385)" fill="#fff"/>
            <path id="Path_3777" data-name="Path 3777" d="M900.891,1880.19l-12.623.091,0-2.075,12.623-.054Z" transform="translate(-878.83 -1874.96)" fill="#fff" style="mix-blend-mode: soft-light;isolation: isolate"/>
            <path id="Path_3778" data-name="Path 3778" d="M830.206,1881.269l2.377-.017,0-2.078-2.377.01Z" transform="translate(-824.032 -1875.925)" fill="#fff" style="mix-blend-mode: soft-light;isolation: isolate"/>
            <path id="Path_3779" data-name="Path 3779" d="M900.973,1932.292l-12.623.144,0-2.075,12.623-.107Z" transform="translate(-878.907 -1924.132)" fill="#fff" style="mix-blend-mode: soft-light;isolation: isolate"/>
            <path id="Path_3780" data-name="Path 3780" d="M830.288,1934.392l2.377-.027,0-2.078-2.377.02Z" transform="translate(-824.109 -1926.052)" fill="#fff" style="mix-blend-mode: soft-light;isolation: isolate"/>
            <path id="Path_3781" data-name="Path 3781" d="M901.055,1984.393l-12.622.2,0-2.075,12.623-.16Z" transform="translate(-878.984 -1973.304)" fill="#fff" style="mix-blend-mode: soft-light;isolation: isolate"/>
            <path id="Path_3782" data-name="Path 3782" d="M830.37,1987.515l2.377-.037,0-2.078-2.377.03Z" transform="translate(-824.187 -1976.179)" fill="#fff" style="mix-blend-mode: soft-light;isolation: isolate"/>
            <path id="Path_3783" data-name="Path 3783" d="M743.364,2354.224l-22.052,1,0-2.1,22.052-.939Z" transform="translate(-721.262 -2322.339)" fill="#fff" style="mix-blend-mode: soft-light;isolation: isolate"/>
            <path id="Path_3784" data-name="Path 3784" d="M901.725,2410.856l-12.622.632,0-2.075,12.622-.6Z" transform="translate(-879.618 -2375.787)" fill="#fff" style="mix-blend-mode: soft-light;isolation: isolate"/>
            <path id="Path_3785" data-name="Path 3785" d="M831.044,2422.343l2.377-.119,0-2.078-2.377.112Z" transform="translate(-824.823 -2386.478)" fill="#fff" style="mix-blend-mode: soft-light;isolation: isolate"/>
            <path id="Path_3786" data-name="Path 3786" d="M901.807,2462.958l-12.622.686,0-2.075,12.622-.648Z" transform="translate(-879.695 -2424.959)" fill="#fff" style="mix-blend-mode: soft-light;isolation: isolate"/>
            <path id="Path_3787" data-name="Path 3787" d="M831.127,2475.466l2.377-.129,0-2.078-2.377.122Z" transform="translate(-824.901 -2436.605)" fill="#fff" style="mix-blend-mode: soft-light;isolation: isolate"/>
            <path id="Path_3788" data-name="Path 3788" d="M901.889,2515.059l-12.622.739,0-2.075,12.622-.7Z" transform="translate(-879.772 -2474.131)" fill="#fff" style="mix-blend-mode: soft-light;isolation: isolate"/>
            <path id="Path_3789" data-name="Path 3789" d="M831.209,2528.59l2.377-.139,0-2.078-2.377.132Z" transform="translate(-824.979 -2486.732)" fill="#fff" style="mix-blend-mode: soft-light;isolation: isolate"/>
            <path id="Path_3790" data-name="Path 3790" d="M742.859,2036.848l-22.053.438,0-2.1,22.053-.373Z" transform="translate(-720.784 -2022.809)" fill="#fff" style="mix-blend-mode: soft-light;isolation: isolate"/>
            <path id="Path_3791" data-name="Path 3791" d="M901.226,2093.48l-12.622.308,0-2.075,12.622-.271Z" transform="translate(-879.146 -2076.257)" fill="#fff" style="mix-blend-mode: soft-light;isolation: isolate"/>
            <path id="Path_3792" data-name="Path 3792" d="M830.543,2098.742l2.377-.058,0-2.078-2.377.051Z" transform="translate(-824.35 -2081.131)" fill="#fff" style="mix-blend-mode: soft-light;isolation: isolate"/>
            <path id="Path_3793" data-name="Path 3793" d="M901.308,2145.582l-12.622.362,0-2.075,12.622-.324Z" transform="translate(-879.224 -2125.429)" fill="#fff" style="mix-blend-mode: soft-light;isolation: isolate"/>
            <path id="Path_3794" data-name="Path 3794" d="M830.625,2151.865,833,2151.8l0-2.078-2.377.061Z" transform="translate(-824.428 -2131.258)" fill="#fff" style="mix-blend-mode: soft-light;isolation: isolate"/>
            <path id="Path_3795" data-name="Path 3795" d="M901.473,2250.462l-12.622.469,0-2.075,12.622-.431Z" transform="translate(-879.38 -2224.412)" fill="#fff" style="mix-blend-mode: soft-light;isolation: isolate"/>
            <path id="Path_3796" data-name="Path 3796" d="M830.791,2258.8l2.377-.088,0-2.078-2.377.081Z" transform="translate(-824.584 -2232.163)" fill="#fff" style="mix-blend-mode: soft-light;isolation: isolate"/>
            <path id="Path_3797" data-name="Path 3797" d="M901.555,2302.563l-12.622.522,0-2.075,12.622-.485Z" transform="translate(-879.457 -2273.584)" fill="#fff" style="mix-blend-mode: soft-light;isolation: isolate"/>
            <path id="Path_3798" data-name="Path 3798" d="M830.873,2311.926l2.377-.1,0-2.078-2.377.091Z" transform="translate(-824.662 -2282.29)" fill="#fff" style="mix-blend-mode: soft-light;isolation: isolate"/>
            <path id="Path_3799" data-name="Path 3799" d="M901.39,2197.684l-12.622.415,0-2.075,12.622-.378Z" transform="translate(-879.301 -2174.601)" fill="#fff" style="mix-blend-mode: soft-light;isolation: isolate"/>
            <path id="Path_3800" data-name="Path 3800" d="M830.707,2204.989l2.377-.078,0-2.078-2.377.071Z" transform="translate(-824.505 -2181.385)" fill="#fff" style="mix-blend-mode: soft-light;isolation: isolate"/>
            <path id="Path_3801" data-name="Path 3801" d="M743.7,2567.143l-22.051,1.383,0-2.1,22.051-1.318Z" transform="translate(-721.582 -2523.286)" fill="#fff" style="mix-blend-mode: soft-light;isolation: isolate"/>
            <path id="Path_3802" data-name="Path 3802" d="M902.06,2623.776l-12.622.849,0-2.075,12.622-.812Z" transform="translate(-879.934 -2576.734)" fill="#fff" style="mix-blend-mode: soft-light;isolation: isolate"/>
            <path id="Path_3803" data-name="Path 3803" d="M831.381,2639.438l2.377-.16,0-2.078-2.377.153Z" transform="translate(-825.141 -2591.328)" fill="#fff" style="mix-blend-mode: soft-light;isolation: isolate"/>
            <path id="Path_3804" data-name="Path 3804" d="M902.142,2675.877l-12.621.9,0-2.075,12.621-.865Z" transform="translate(-880.011 -2625.906)" fill="#fff" style="mix-blend-mode: soft-light;isolation: isolate"/>
            <path id="Path_3805" data-name="Path 3805" d="M831.463,2692.562l2.377-.17,0-2.077-2.377.163Z" transform="translate(-825.219 -2641.455)" fill="#fff" style="mix-blend-mode: soft-light;isolation: isolate"/>
            <path id="Path_3806" data-name="Path 3806" d="M902.224,2727.979l-12.621.956,0-2.075,12.621-.919Z" transform="translate(-880.089 -2675.078)" fill="#fff" style="mix-blend-mode: soft-light;isolation: isolate"/>
            <path id="Path_3807" data-name="Path 3807" d="M831.546,2745.685l2.377-.18,0-2.078-2.377.173Z" transform="translate(-825.297 -2691.582)" fill="#fff" style="mix-blend-mode: soft-light;isolation: isolate"/>
            <path id="Path_3808" data-name="Path 3808" d="M1152.252,1874.232l-.486.037-.082-52.737h.486Z" transform="translate(-1127.438 -1821.525)" fill="#fff" style="mix-blend-mode: soft-light;isolation: isolate"/>
          </g>
          <path id="Path_3809" data-name="Path 3809" d="M1340.2,1701.913a1.014,1.014,0,1,1-1.009-1.1A1.061,1.061,0,0,1,1340.2,1701.913Z" transform="translate(-1288.992 -1700.126)" fill="#fff"/>
          <path id="Path_3810" data-name="Path 3810" d="M491.089,1759.6l87.291-6.426.444-.033a2.355,2.355,0,0,0,1.545-.782c-6.282-.344-10.183-2.573-12.7-4.876-5.054-4.626-4.178-9.187-9.628-12.229-6.8-3.793-12.144,1.013-17.3-3.729-3.127-2.875-1.592-5.019-5.44-9.316-4.262-4.759-7.037-3.159-11.321-7.442-5.416-5.416-2.707-9.629-7.373-13.517-5.66-4.717-11.764-.351-17.152-4.875a13.777,13.777,0,0,1-4.265-7.8h-4.1a2.9,2.9,0,0,0-2.847,2.953v65.334A2.659,2.659,0,0,0,491.089,1759.6Z" transform="translate(-486.844 -1688.57)" fill="#fff" opacity="0.48" style="mix-blend-mode: soft-light;isolation: isolate"/>
        </g>
        <path id="Path_3811" data-name="Path 3811" d="M615.553,2830.226l-92.773,6.8,40.451,7.2a5.409,5.409,0,0,0,1.4.065l96.188-8.052-43.79-5.97A7.071,7.071,0,0,0,615.553,2830.226Z" transform="translate(-519.439 -2766.013)" fill="url(#linear-gradient-19)"/>
        <path id="Path_3812" data-name="Path 3812" d="M763.525,2856.075l77.236-5.744,23.9,3.232-76.571,6.14Z" transform="translate(-746.647 -2785.006)" fill="#d8dee8"/>
      </g>
    </g>
    <g id="Group_2465" data-name="Group 2465" transform="translate(11.227 33.303)">
      <path id="Path_3813" data-name="Path 3813" d="M694.134,1152.2l13.706,14.825,3.786.88.272-.69,13.841-16.323.984-.775-3.786-.88-5.714.588a1.06,1.06,0,0,1-1.188-1.148l4.783-22.508-3.786-.88-7.446.766a1.043,1.043,0,0,1-1.1-.642,1.389,1.389,0,0,1,.274-1.4l18.037-21.251a1.275,1.275,0,0,1,1.84-.189l16.376,17.711a1.232,1.232,0,0,1,.157,1.352,1.491,1.491,0,0,1-1.168.876l-7.446.766-.458,10.753,3.786.88,23.268-3.662c9.542-.981,17.766-9.622,18.333-19.26a15.576,15.576,0,0,0-4.414-12.243c-1.637-1.613-.278-2.033-2.439-2.705-.383-.119-4.087-.965-4.483-1.053a16.139,16.139,0,0,0-5.178-.28q-.412.042-.82.1a3.405,3.405,0,0,1-4.036-3.275c-.993-18.089-15.237-30.342-33.133-28.5-13.658,1.4-26.442,10.964-32.569,24.353a4.688,4.688,0,0,1-4.225,2.806,23.236,23.236,0,0,0-4.012.278c-11.885,1.851-22.009,12.89-23.046,25.13a21.181,21.181,0,0,0,5.7,16.984,19.836,19.836,0,0,0,16.543,5.662l15.238-1.567a1.06,1.06,0,0,1,1.188,1.148l-.484,11.359a1.506,1.506,0,0,1-1.3,1.4Z" transform="translate(-663.036 -1063.857)" fill="url(#linear-gradient-20)"/>
      <path id="Path_3814" data-name="Path 3814" d="M761.468,1167.846l13.706,14.825,15.1-17.787-5.714.588a1.06,1.06,0,0,1-1.188-1.148l1-23.388-7.446.766a1.043,1.043,0,0,1-1.1-.642,1.389,1.389,0,0,1,.274-1.4l18.037-21.25a1.275,1.275,0,0,1,1.84-.189l16.376,17.711a1.232,1.232,0,0,1,.157,1.352,1.491,1.491,0,0,1-1.168.876l-7.446.766-.458,10.753,27.054-2.782c9.542-.981,17.766-9.622,18.333-19.26a15.576,15.576,0,0,0-4.414-12.243,14.737,14.737,0,0,0-12.1-4.039q-.412.042-.82.1a3.405,3.405,0,0,1-4.036-3.275c-.993-18.089-15.237-30.342-33.133-28.5-13.658,1.4-26.442,10.964-32.569,24.353a4.688,4.688,0,0,1-4.225,2.806,23.248,23.248,0,0,0-4.012.278c-11.885,1.851-22.009,12.89-23.046,25.13a21.181,21.181,0,0,0,5.7,16.984,19.836,19.836,0,0,0,16.543,5.662l15.238-1.567a1.06,1.06,0,0,1,1.188,1.148l-.484,11.359a1.506,1.506,0,0,1-1.3,1.4Z" transform="translate(-726.584 -1078.621)" fill="url(#linear-gradient-21)"/>
    </g>
    <g id="Group_2467" data-name="Group 2467" transform="translate(103.923 83.093)">
      <path id="Path_3815" data-name="Path 3815" d="M2465.693,3154.357a28.859,28.859,0,0,0-3.815,1.979c-.061.272,2.414-.091,3.425-.052s1.842-.26,1.75-.687-.445-1.5-.445-1.5Z" transform="translate(-2453.424 -3086.348)" fill="url(#linear-gradient-22)"/>
      <path id="Path_3816" data-name="Path 3816" d="M2527.307,3130.8l.228,1.69a1.325,1.325,0,0,0,.994-.039l.17-1.854Z" transform="translate(-2515.176 -3064.174)" fill="url(#linear-gradient-23)"/>
      <path id="Path_3817" data-name="Path 3817" d="M2796.221,3134.911l.437.7a.836.836,0,0,1,.1.655c-.153.583-.458,1.719-.591,2.015-.181.4-2.611.643-2.611.643s-.217-.3.288-.673.829-.426,1.007-.97a14.212,14.212,0,0,0,.3-2.08Z" transform="translate(-2766.411 -3068.247)" fill="url(#linear-gradient-24)"/>
      <path id="Path_3818" data-name="Path 3818" d="M2809.4,3099.851a22.627,22.627,0,0,1,.94,2.5s.252.323.732-.154.217-.214.217-.214l-.09-2.329Z" transform="translate(-2781.403 -3034.969)" fill="url(#linear-gradient-25)"/>
      <path id="Path_3819" data-name="Path 3819" d="M2488.187,2490.858c-.2,5.042-.206,10.52.084,16.372.327,6.59.983,12.68,1.81,18.2.308.01.631.011.968,0q.342-.01.662-.032a41.889,41.889,0,0,0,1.391-4.449,42.77,42.77,0,0,0,.971-5.209c.723-5.71-.124-6.209.462-10.441.52-3.748,1.259-3.895,2.126-9.216.941-5.774.241-6.64-.1-6.953C2495.112,2487.8,2491.7,2488.708,2488.187,2490.858Z" transform="translate(-2478.121 -2458.192)" fill="url(#linear-gradient-26)"/>
      <path id="Path_3820" data-name="Path 3820" d="M2507.11,2489.146c-1.383-1.271-4.547-.5-7.889,1.438,3.844,4.153,4.263,6.848,3.8,8.6-.521,1.976-2.1,2.545-2.1,4.705.008,2.655,2.4,3.358,2.353,6.168-.034,1.858-1.087,1.839-1.335,4.133-.294,2.715,1.081,3.65.636,5.659a5.436,5.436,0,0,1-2.3,3.157c.112.825.228,1.641.347,2.442.308.01.631.011.968,0q.342-.01.662-.032a41.871,41.871,0,0,0,1.391-4.448,42.774,42.774,0,0,0,.971-5.209c.723-5.711-.124-6.209.462-10.441.52-3.748,1.259-3.895,2.126-9.216C2508.151,2490.325,2507.45,2489.458,2507.11,2489.146Z" transform="translate(-2488.669 -2458.205)" opacity="0.3" fill="url(#linear-gradient-27)" style="mix-blend-mode: multiply;isolation: isolate"/>
      <path id="Path_3821" data-name="Path 3821" d="M2532.921,2481.816a113.21,113.21,0,0,1,15.521,33.219,2.021,2.021,0,0,0,1.108.172,2.061,2.061,0,0,0,1.255-.678,32.59,32.59,0,0,0,.288-8.039,27.692,27.692,0,0,0-1.13-6.043c-.914-2.948-1.542-3.113-2.734-6.231-1.238-3.237-.938-4.044-2.123-8.095a53.427,53.427,0,0,0-2.646-7.1Z" transform="translate(-2520.474 -2449.235)" fill="url(#linear-gradient-28)"/>
      <path id="Path_3822" data-name="Path 3822" d="M2470.406,1961.214c-3.036-2.949-4.616-3.086-5.185-5.2-.563-2.093.161-5.013,2.227-6.145,2.467-1.352,4.835.155,6.7,1.781,2.145,1.869,3.937,3.324,6.933,3.368,2.546.037,5.085-.422,7.624-.042a8.277,8.277,0,0,1,2.109.6c2.757,1.21,1.989,5.415,4.8,6.379,1.876.644,2.777-1.042,5.421-.915,3.107.149,5.933,2.674,7.239,5.218,2.387,4.65.1,10.146-2.848,13.118-2.42,2.441-6.918,4.827-9.845,3.352-2.313-1.165-2.429-4.126-4.605-4.372-1.548-.175-1.961,1.269-3.919,1.581-3.214.512-6.228-2.721-7.05-3.6-2.343-2.514-1.61-3.571-4.308-8.119A31.473,31.473,0,0,0,2470.406,1961.214Z" transform="translate(-2456.407 -1949.344)" fill="url(#linear-gradient-29)"/>
      <path id="Path_3823" data-name="Path 3823" d="M2315.039,2081.435c-2.562,2.815-4.455,7.5-2.94,9.16a3.081,3.081,0,0,0,1.982.752c2.718.336,4.009-1.664,5.072-1.144,1.365.668.557,4.78.242,7.917-.555,5.532-2.036,6.5-1.052,8.406,1.282,2.476,4.915,3,5.9,3.138,3.358.482,3.922-1.079,7.6-.9,4.2.209,4.588,2.3,7.666,1.741,2.811-.512,3.945-2.524,6.026-1.87,1.3.408,1.554,1.413,2.818,1.436a3.01,3.01,0,0,0,2.893-2.1c.256-1.412-1.3-3.382-4.025-3.664a8.638,8.638,0,0,1-4.909-.167c-3.19-1.137-4.606-4.093-6.18-7.376-1.089-2.271-3.09-6.446-2.591-11.6.206-2.126.671-2.706.208-3.9-.643-1.658-4.727-4.24-9.476-4.086A13.658,13.658,0,0,0,2315.039,2081.435Z" transform="translate(-2311.559 -2069.99)" fill="#fff"/>
      <g id="Group_2466" data-name="Group 2466" transform="translate(0.72 14.791)">
        <path id="Path_3824" data-name="Path 3824" d="M2325.37,2215.5l9.125,1.3a.249.249,0,0,1,.206.186l3.091,12.415c.044.178-.194.588-.373.55l-8.932-2.159a.249.249,0,0,1-.188-.178l-3.346-11.635C2324.906,2215.8,2325.194,2215.473,2325.37,2215.5Z" transform="translate(-2324.915 -2215.322)" fill="url(#linear-gradient-30)"/>
        <path id="Path_3825" data-name="Path 3825" d="M2324.65,2220.431l9.125,1.3a.248.248,0,0,1,.206.186l3.091,12.415a.248.248,0,0,1-.293.3l-9.013-1.913a.248.248,0,0,1-.188-.178l-3.2-11.8A.248.248,0,0,1,2324.65,2220.431Z" transform="translate(-2324.367 -2219.977)" fill="url(#linear-gradient-27)"/>
        <path id="Path_3826" data-name="Path 3826" d="M2368.793,2213.555l-.255-.991a.133.133,0,0,1,.142-.165l3.335.341a.133.133,0,0,1,.116.1l.227,1.09a.132.132,0,0,1-.147.158l-3.307-.441A.133.133,0,0,1,2368.793,2213.555Z" transform="translate(-2366.05 -2212.398)" fill="url(#linear-gradient-32)"/>
        <path id="Path_3827" data-name="Path 3827" d="M2331.78,2231.191c-.4-1.991.71-3.147-.136-4.749-1.2-2.266-4.326-1.679-5.1-3.487a2.738,2.738,0,0,1,.195-2.226l-2.093-.3a.248.248,0,0,0-.274.311l3.2,11.8a.249.249,0,0,0,.188.178l5.478,1.162A5.479,5.479,0,0,1,2331.78,2231.191Z" transform="translate(-2324.367 -2219.978)" opacity="0.3" fill="url(#linear-gradient-27)" style="mix-blend-mode: multiply;isolation: isolate"/>
      </g>
      <path id="Path_3828" data-name="Path 3828" d="M2493.708,2367.378a8.188,8.188,0,0,1-1.856-.808,3.36,3.36,0,0,0-1.8-1.04c-.79-.051-1.623.268-1.269.4s.96.92,1.449,1.257a5.018,5.018,0,0,0,1.9.491,4.5,4.5,0,0,1,1.041.621Z" transform="translate(-2478.738 -2342.123)" fill="url(#linear-gradient-34)"/>
      <path id="Path_3829" data-name="Path 3829" d="M2455.563,2163.914a8.639,8.639,0,0,1-4.909-.168c-3.189-1.137-4.606-4.093-6.18-7.376-1.089-2.271-3.09-6.446-2.591-11.6.206-2.125.671-2.706.208-3.9a3.894,3.894,0,0,0-.265-.542,4.469,4.469,0,0,0-2.428,2.562c-.605,2.026,1.079,3.906-.07,5.589-1.1,1.612-3.341.906-3.968,2.32-.677,1.526,1.759,2.737,1.621,5.188-.166,2.941-3.832,4.014-3.416,6.036.361,1.752,3.319,1.931,3.225,2.841-.113,1.082-4.458,2.4-7.892.7a7.479,7.479,0,0,1-2.368-1.868,3.083,3.083,0,0,0,.158,2.431c1.282,2.476,4.915,3,5.9,3.138,3.358.482,3.922-1.079,7.6-.9,4.2.209,4.588,2.3,7.666,1.741,2.811-.512,3.945-2.524,6.026-1.87,1.3.408,1.554,1.413,2.818,1.436a3.011,3.011,0,0,0,2.893-2.1C2459.844,2166.166,2458.288,2164.2,2455.563,2163.914Z" transform="translate(-2419.902 -2129.588)" fill="#d8dee8" opacity="0.5"/>
      <path id="Path_3830" data-name="Path 3830" d="M2552.852,2103.191l-1.51,2.141c.624.389,7.305,4.43,12.732,1.662a8.12,8.12,0,0,0,3.572-3.276,8.852,8.852,0,0,0,.679-5.9c-.538-3.579-2.695-7.5-6.135-9.333a22.565,22.565,0,0,0-4.418-1.576c-1.276-.359-3.289-.846-3.353-.654-.031.094.431.265.741.485,1.906,1.352-1.146,5.816,1,8.326,2.056,2.4,5.049,2.349,5.324,4.365a2.961,2.961,0,0,1-.657,2.06C2559.477,2103.418,2556.315,2104.02,2552.852,2103.191Z" transform="translate(-2537.858 -2078.513)" fill="#fff"/>
      <path id="Path_3831" data-name="Path 3831" d="M2456.435,2015.493s.579,2.482,1.568,2.96,2.569,1.073,2.755,1.26-5.661,1.445-8.749.275h0c.945-.3,1.2-.4,1.2-.4a5.454,5.454,0,0,0,1.19-.622,4.241,4.241,0,0,0,1.232-1.406l-.157-1.391Z" transform="translate(-2444.113 -2011.774)" fill="url(#linear-gradient-35)"/>
      <path id="Path_3832" data-name="Path 3832" d="M2500.27,1993.788a1.4,1.4,0,0,1-1.5.648c-.882-.22-.606-2.469.042-2.79a1.2,1.2,0,0,1,.927.03,1.329,1.329,0,0,1,.572,1.443c.208-.085.4-.048.462.053.074.129-.088.331-.125.377A.724.724,0,0,1,2500.27,1993.788Z" transform="translate(-2487.712 -1989.193)" fill="url(#linear-gradient-36)"/>
      <path id="Path_3833" data-name="Path 3833" d="M2335.313,2252.28s-.752-1.44,0-1.851a3.027,3.027,0,0,1,1.983,0,1.844,1.844,0,0,1-.732.666A5.991,5.991,0,0,0,2335.313,2252.28Z" transform="translate(-2333.661 -2233.328)" fill="url(#linear-gradient-37)"/>
    </g>
  </g>
</svg>
