<?xml version="1.0" encoding="iso-8859-1"?>
<!-- Generator: Adobe Illustrator 19.0.0, SVG Export Plug-In . SVG Version: 6.00 Build 0)  -->
<svg version="1.1" id="Capa_1" xmlns="http://www.w3.org/2000/svg" xmlns:xlink="http://www.w3.org/1999/xlink" x="0px" y="0px"
	 viewBox="0 0 421.401 421.401" style="enable-background:new 0 0 421.401 421.401;" xml:space="preserve">
<g>
	<g>
		<path d="M161.717,64.344c-1.872-1.506-4.244-2.249-6.64-2.08h-36.24l33.84-37.84l3.2-3.52l2-2.48
			c0.569-0.815,1.027-1.703,1.36-2.64c0.407-0.991,0.624-2.049,0.64-3.12c0.25-2.405-0.861-4.75-2.88-6.08
			c-2.901-1.446-6.121-2.134-9.36-2h-42.48c-2.244-0.137-4.461,0.545-6.24,1.92c-1.44,1.271-2.233,3.121-2.16,5.04
			c0,2.88,0.96,4.667,2.88,5.36c2.807,0.8,5.723,1.151,8.64,1.04h27.52c-1.12,1.6-2.613,3.493-4.48,5.68l-7.2,8.4l-9.28,10.24
			l-11.04,12.24c-3.84,4.267-6.373,7.2-7.6,8.8c-2.733,3.3-2.38,8.168,0.8,11.04c2.287,1.737,5.138,2.564,8,2.32h50.08
			c2.384,0.169,4.746-0.543,6.64-2c1.46-1.263,2.281-3.11,2.24-5.04C164.004,67.624,163.188,65.7,161.717,64.344z"/>
	</g>
</g>
<g>
	<g>
		<path d="M237.637,107.544c-1.482-1.212-3.37-1.812-5.28-1.68h-29.04l27.04-30.24l2.56-2.8l1.6-2c0.465-0.64,0.842-1.339,1.12-2.08
			c0.313-0.789,0.476-1.631,0.48-2.48c0.218-1.997-0.752-3.936-2.48-4.96c-2.254-1.031-4.725-1.497-7.2-1.36h-34
			c-1.782-0.105-3.543,0.435-4.96,1.52c-1.187,1.014-1.837,2.521-1.76,4.08c0,2.293,0.773,3.707,2.32,4.24
			c2.237,0.627,4.559,0.897,6.88,0.8h21.92c-0.907,1.28-2.107,2.8-3.6,4.56l-5.68,6.8l-7.36,8l-8.8,9.76
			c-3.04,3.413-5.067,5.76-6.08,7.04c-0.893,1.084-1.4,2.436-1.44,3.84c-0.093,1.906,0.67,3.754,2.08,5.04
			c1.811,1.365,4.059,2.02,6.32,1.84h40c1.921,0.129,3.824-0.439,5.36-1.6c1.167-1.028,1.813-2.525,1.76-4.08
			C239.454,110.182,238.812,108.635,237.637,107.544z"/>
	</g>
</g>
<g>
	<g>
		<path d="M327.397,59.544c-1.872-1.506-4.243-2.249-6.64-2.08h-36.32l33.84-37.84l3.2-3.52l2-2.48
			c0.619-0.781,1.13-1.642,1.52-2.56c0.407-0.991,0.624-2.049,0.64-3.12c0.232-2.483-0.981-4.878-3.12-6.16
			c-2.826-1.311-5.928-1.915-9.04-1.76h-42.64c-2.244-0.137-4.461,0.545-6.24,1.92c-1.44,1.271-2.233,3.121-2.16,5.04
			c0,2.88,0.96,4.667,2.88,5.36c2.807,0.8,5.723,1.151,8.64,1.04h27.04c-1.12,1.6-2.613,3.493-4.48,5.68l-6.72,8.16l-9.28,10.24
			l-11.04,12.24c-3.84,4.267-6.373,7.2-7.6,8.8c-2.733,3.3-2.38,8.168,0.8,11.04c2.287,1.737,5.138,2.564,8,2.32h50.08
			c2.384,0.169,4.746-0.543,6.64-2c1.46-1.263,2.281-3.11,2.24-5.04C329.684,62.824,328.868,60.9,327.397,59.544z"/>
	</g>
</g>
<g>
	<g>
		<path d="M315.478,409.864l-24-50.16c23.747-22.159,37.318-53.121,37.52-85.6c-0.013-65.435-53.069-118.47-118.503-118.457
			C145.06,155.66,92.025,208.716,92.037,274.15c0.006,32.508,13.37,63.586,36.96,85.953l-23.2,49.76
			c-1.953,3.963-0.323,8.759,3.641,10.712c3.963,1.953,8.759,0.323,10.712-3.641c0.044-0.09,0.087-0.18,0.127-0.271l21.68-46.08
			c41.088,29.609,96.512,29.609,137.6,0l21.44,46.08c1.803,4.034,6.535,5.842,10.568,4.039c4.034-1.803,5.842-6.535,4.039-10.568
			C315.564,410.044,315.522,409.953,315.478,409.864z M210.517,376.584c-56.562-0.088-102.392-45.918-102.48-102.48
			c0-56.598,45.882-102.48,102.48-102.48s102.48,45.882,102.48,102.48S267.116,376.584,210.517,376.584z"/>
	</g>
</g>
<g>
	<g>
		<path d="M267.158,330.344l-48.64-59.12v-61.12c0-4.418-3.582-8-8-8s-8,3.582-8,8v64c-0.004,1.869,0.647,3.681,1.84,5.12
			l50.48,61.36c2.828,3.402,7.878,3.868,11.28,1.04C269.52,338.796,269.985,333.746,267.158,330.344z"/>
	</g>
</g>
<g>
	<g>
		<path d="M168.837,145.384c-20.176-29.932-60.797-37.841-90.729-17.665c-29.932,20.176-37.841,60.797-17.665,90.729
			c4.073,6.042,9.127,11.361,14.954,15.736c3.535,2.651,8.549,1.935,11.2-1.6c2.651-3.535,1.935-8.549-1.6-11.2
			c-21.782-16.392-26.152-47.338-9.76-69.12c9.325-12.392,23.932-19.68,39.44-19.68c16.395,0.014,31.713,8.168,40.88,21.76
			c2.474,3.667,7.453,4.634,11.12,2.16S171.312,149.051,168.837,145.384z"/>
	</g>
</g>
<g>
	<g>
		<path d="M359.306,142.847c-21.47-29.019-62.398-35.138-91.417-13.669c-6.201,4.588-11.54,10.237-15.772,16.686
			c-2.452,3.689-1.449,8.668,2.24,11.12s8.668,1.449,11.12-2.24c15.01-22.757,45.625-29.037,68.382-14.027
			c22.757,15.01,29.037,45.625,14.027,68.382c-3.168,4.803-7.15,9.014-11.769,12.445l-0.08-0.08
			c-3.532,2.654-4.244,7.669-1.59,11.201c2.651,3.528,7.658,4.243,11.19,1.599C374.656,212.794,380.776,171.866,359.306,142.847z"/>
	</g>
</g>
<g>
</g>
<g>
</g>
<g>
</g>
<g>
</g>
<g>
</g>
<g>
</g>
<g>
</g>
<g>
</g>
<g>
</g>
<g>
</g>
<g>
</g>
<g>
</g>
<g>
</g>
<g>
</g>
<g>
</g>
</svg>
