<?xml version="1.0" encoding="iso-8859-1"?>
<!-- Generator: Adobe Illustrator 19.0.0, SVG Export Plug-In . SVG Version: 6.00 Build 0)  -->
<svg version="1.1" id="Capa_1" xmlns="http://www.w3.org/2000/svg" xmlns:xlink="http://www.w3.org/1999/xlink" x="0px" y="0px"
	 viewBox="0 0 512 512" style="enable-background:new 0 0 512 512;" xml:space="preserve">
<g>
	<g>
		<path d="M469.698,148.665c-23.326,0-42.302,18.977-42.302,42.302c0,3.824,0.519,7.527,1.474,11.052l-29.349,14.445l-26.347-64.231
			l-66.08,38.24l-28.026-40.038c11.27-7.607,18.696-20.495,18.696-35.086c0-23.325-18.977-42.302-42.302-42.302
			c-23.326,0-42.302,18.977-42.302,42.302c0,14.501,7.337,27.318,18.491,34.942l-27.729,39.612l-65.096-37.671l-26.579,64.797
			l-30.549-15.036c1.869-4.77,2.906-9.954,2.906-15.378c0-23.325-18.977-42.302-42.302-42.302C18.977,144.314,0,163.291,0,186.616
			c0,23.325,18.977,42.302,42.302,42.302c3.421,0,6.745-0.419,9.932-1.189l51.219,144.03v67.194h303.545v-66.727l50.097-140.875
			c3.982,1.245,8.215,1.918,12.603,1.918c23.325,0,42.302-18.977,42.302-42.302C512,167.642,493.023,148.665,469.698,148.665z
			 M42.302,198.918c-6.783,0-12.302-5.519-12.302-12.302c0-6.783,5.519-12.302,12.302-12.302c6.784,0,12.302,5.518,12.302,12.302
			S49.085,198.918,42.302,198.918z M358.459,195.41l14.083,34.333l-28.232,13.896l-19.948-28.497L358.459,195.41z M255.462,103.048
			c6.783,0,12.302,5.519,12.302,12.302c0,6.783-5.519,12.302-12.302,12.302c-6.784,0-12.302-5.519-12.302-12.302
			C243.16,108.566,248.678,103.048,255.462,103.048z M153.54,195.41l33.114,19.162l-20.346,29.066l-27.083-13.33L153.54,195.41z
			 M376.999,408.952h-0.001H133.454v-24.781h243.545V408.952z M381.579,354.171H129.04L87.9,238.483l88.237,43.429l79.173-113.104
			l79.173,113.104l88.236-43.429L381.579,354.171z M469.698,203.269c-6.784,0-12.302-5.519-12.302-12.302
			s5.519-12.302,12.302-12.302c6.783,0,12.302,5.519,12.302,12.302S476.481,203.269,469.698,203.269z"/>
	</g>
</g>
<g>
</g>
<g>
</g>
<g>
</g>
<g>
</g>
<g>
</g>
<g>
</g>
<g>
</g>
<g>
</g>
<g>
</g>
<g>
</g>
<g>
</g>
<g>
</g>
<g>
</g>
<g>
</g>
<g>
</g>
</svg>
