<svg xmlns="http://www.w3.org/2000/svg" width="124.34" height="138.585" viewBox="0 0 124.34 138.585">
  <g id="Group_2504" data-name="Group 2504" transform="translate(6561.477 -1579.415)">
    <g id="audio-waves_1_" data-name="audio-waves (1)" transform="translate(-6561.477 1579.415)">
      <path id="Path_3922" data-name="Path 3922" d="M68.71,146.969a10.767,10.767,0,0,1-10.881-9.446L45.985,54.656a.956.956,0,0,0-1.089-.942h0a.957.957,0,0,0-1.089.943L35.369,113.8a10.928,10.928,0,0,1-21.45.961c0-.019-.009-.037-.013-.056l-2.723-12.13a6.878,6.878,0,0,0-6.326-5.391,4.857,4.857,0,0,1,0-9.714A16.582,16.582,0,0,1,20.641,100.36c0,.019.009.037.013.056l2.724,12.132a1.214,1.214,0,0,0,2.377-.132L34.19,53.273A10.615,10.615,0,0,1,44.894,44H44.9a10.612,10.612,0,0,1,10.7,9.278l11.844,82.867a1.3,1.3,0,0,0,2.574-.042l1.652-14.69a4.857,4.857,0,1,1,9.653,1.086l-1.653,14.694A10.775,10.775,0,0,1,68.9,146.968H68.71Z" transform="translate(0 -44)" fill="#0023c4"/>
      <path id="Path_3923" data-name="Path 3923" d="M329.166,222.753c-.142,0-.285,0-.428-.008a10.357,10.357,0,0,1-9.892-8.719l-3.812-23.252a.759.759,0,0,0-.016-.076.536.536,0,0,0-.192.005c0,.023-.01.053-.014.09l-2.057,18.179a4.857,4.857,0,0,1-9.653-1.092l2.057-18.179a9.827,9.827,0,0,1,19.459-.511l3.812,23.252c.037.221.1.574.689.6a.614.614,0,0,0,.73-.526l1.715-7.279.014-.058a18.315,18.315,0,0,1,17.374-13.992,4.857,4.857,0,1,1,0,9.714,8.612,8.612,0,0,0-7.941,6.6l-1.715,7.278-.014.058A10.35,10.35,0,0,1,329.166,222.753Z" transform="translate(-229.469 -147.712)" fill="#ff5cf4"/>
    </g>
    <text id="LIZBOOK" transform="translate(-6554 1714)" fill="#ff5cf4" font-size="17" font-family="Axiforma-SemiBold, Axiforma" font-weight="600" letter-spacing="0.3em"><tspan x="0" y="0">LIZ</tspan><tspan y="0" fill="#0023c4">BOOK</tspan></text>
  </g>
</svg>
