<svg xmlns="http://www.w3.org/2000/svg" xmlns:xlink="http://www.w3.org/1999/xlink" width="150.63" height="127.834" viewBox="0 0 150.63 127.834">
  <defs>
    <filter id="audio-waves" x="0" y="0" width="150.63" height="127.834" filterUnits="userSpaceOnUse">
      <feOffset dy="3" input="SourceAlpha"/>
      <feGaussianBlur stdDeviation="3" result="blur"/>
      <feFlood flood-opacity="0.161"/>
      <feComposite operator="in" in2="blur"/>
      <feComposite in="SourceGraphic"/>
    </filter>
  </defs>
  <g id="logo-white" transform="translate(6382.828 -1584.86)">
    <g transform="matrix(1, 0, 0, 1, -6382.83, 1584.86)" filter="url(#audio-waves)">
      <path id="audio-waves-2" data-name="audio-waves" d="M73.291,153.834a11.485,11.485,0,0,1-11.606-10.076L49.051,55.366a1.02,1.02,0,0,0-1.162-1h0a1.021,1.021,0,0,0-1.162,1.006l-9,63.085a11.657,11.657,0,0,1-22.881,1.025c0-.02-.009-.04-.014-.06l-2.9-12.938a7.336,7.336,0,0,0-6.747-5.75,5.181,5.181,0,0,1,0-10.362,17.688,17.688,0,0,1,16.836,13.748c0,.02.009.04.014.06l2.905,12.941a1.3,1.3,0,0,0,2.535-.141l9-63.085A11.323,11.323,0,0,1,47.888,44h.01a11.319,11.319,0,0,1,11.411,9.9l12.634,88.392a1.385,1.385,0,0,0,2.746-.045l1.762-15.67a5.181,5.181,0,0,1,10.3,1.158l-1.763,15.673a11.493,11.493,0,0,1-11.5,10.428h-.2Zm43.844-38.243.015-.061,1.829-7.763c1.011-4.013,4.647-7.036,8.47-7.036a5.181,5.181,0,0,0,0-10.362c-8.588,0-16.382,6.277-18.532,14.925l-.015.062-1.83,7.765a.655.655,0,0,1-.779.561c-.633-.025-.7-.4-.735-.637l-4.066-24.8a10.482,10.482,0,0,0-20.756.545l-2.194,19.391a5.181,5.181,0,0,0,10.3,1.165l2.194-19.391c0-.039.01-.071.015-.1a.578.578,0,0,1,.2-.005c.006.021.012.048.017.081l4.066,24.8a11.047,11.047,0,0,0,10.552,9.3c.153.006.305.009.457.009a11.041,11.041,0,0,0,10.791-8.453Z" transform="translate(9 -38)" fill="#fff"/>
    </g>
  </g>
</svg>
