<svg xmlns="http://www.w3.org/2000/svg" xmlns:xlink="http://www.w3.org/1999/xlink" width="130.34" height="108.972" viewBox="0 0 130.34 108.972">
  <defs>
    <linearGradient id="linear-gradient" x1="0.409" y1="0.198" x2="0.854" y2="0.778" gradientUnits="objectBoundingBox">
      <stop offset="0" stop-color="#4274fe"/>
      <stop offset="1" stop-color="#9571f6"/>
    </linearGradient>
    <filter id="Path_3922" x="0" y="0" width="87.354" height="108.972" filterUnits="userSpaceOnUse">
      <feOffset dy="3" input="SourceAlpha"/>
      <feGaussianBlur stdDeviation="1" result="blur"/>
      <feFlood flood-color="#003cff" flood-opacity="0.161"/>
      <feComposite operator="in" in2="blur"/>
      <feComposite in="SourceGraphic"/>
    </filter>
    <linearGradient id="linear-gradient-2" x1="-0.16" y1="0.59" x2="1.205" y2="0.953" gradientUnits="objectBoundingBox">
      <stop offset="0" stop-color="#fbaa1f"/>
      <stop offset="1" stop-color="#ff6227"/>
    </linearGradient>
    <filter id="Path_3923" x="73.601" y="33.263" width="56.738" height="47.778" filterUnits="userSpaceOnUse">
      <feOffset dy="3" input="SourceAlpha"/>
      <feGaussianBlur stdDeviation="1" result="blur-2"/>
      <feFlood flood-color="red" flood-opacity="0.161"/>
      <feComposite operator="in" in2="blur-2"/>
      <feComposite in="SourceGraphic"/>
    </filter>
  </defs>
  <g id="logo" transform="translate(6564.477 -1579.415)">
    <g id="audio-waves_1_" data-name="audio-waves (1)" transform="translate(-6561.477 1579.415)">
      <g transform="matrix(1, 0, 0, 1, -3, 0)" filter="url(#Path_3922)">
        <path id="Path_3922-2" data-name="Path 3922" d="M68.71,146.969a10.767,10.767,0,0,1-10.881-9.446L45.985,54.656a.956.956,0,0,0-1.089-.942h0a.957.957,0,0,0-1.089.943L35.369,113.8a10.928,10.928,0,0,1-21.45.961.283.283,0,0,0-.013-.056l-2.723-12.13a6.878,6.878,0,0,0-6.326-5.391,4.857,4.857,0,1,1,0-9.714,16.582,16.582,0,0,1,15.784,12.89.283.283,0,0,0,.013.056l2.724,12.132a1.214,1.214,0,0,0,2.377-.132L34.19,53.273A10.615,10.615,0,0,1,44.894,44H44.9a10.612,10.612,0,0,1,10.7,9.278l11.844,82.867a1.3,1.3,0,0,0,2.574-.042l1.652-14.69a4.857,4.857,0,1,1,9.653,1.086L79.67,137.193a10.775,10.775,0,0,1-10.77,9.775h-.19Z" transform="translate(3 -44)" fill="url(#linear-gradient)"/>
      </g>
      <g transform="matrix(1, 0, 0, 1, -3, 0)" filter="url(#Path_3923)">
        <path id="Path_3923-2" data-name="Path 3923" d="M329.166,222.753c-.142,0-.285,0-.428-.008a10.357,10.357,0,0,1-9.892-8.719l-3.812-23.252a.768.768,0,0,0-.016-.076.536.536,0,0,0-.192.005c0,.023-.01.053-.014.09l-2.057,18.179a4.857,4.857,0,0,1-9.653-1.092l2.057-18.179a9.827,9.827,0,0,1,19.459-.511l3.812,23.252c.037.221.1.574.689.6a.614.614,0,0,0,.73-.526l1.715-7.279.014-.058a18.315,18.315,0,0,1,17.374-13.992,4.857,4.857,0,1,1,0,9.714,8.612,8.612,0,0,0-7.941,6.6l-1.715,7.278-.014.058A10.35,10.35,0,0,1,329.166,222.753Z" transform="translate(-226.47 -147.71)" fill="url(#linear-gradient-2)"/>
      </g>
    </g>
  </g>
</svg>
