<svg id="new-experience" xmlns="http://www.w3.org/2000/svg" xmlns:xlink="http://www.w3.org/1999/xlink" width="157.354" height="152.671" viewBox="0 0 157.354 152.671">
  <defs>
    <linearGradient id="linear-gradient" x1="0.339" y1="0.027" x2="0.863" y2="1.961" gradientUnits="objectBoundingBox">
      <stop offset="0.004" stop-color="#e38ddd"/>
      <stop offset="1" stop-color="#9571f6"/>
    </linearGradient>
    <clipPath id="clip-path">
      <rect id="Rectangle_556" data-name="Rectangle 556" width="87.939" height="129.132" fill="none"/>
    </clipPath>
    <clipPath id="clip-path-2">
      <path id="Path_3841" data-name="Path 3841" d="M830.886,667.282a10,10,0,0,0,4.512-1.376c4.022-3.519,11.979-9.618,12.695-15.222.122-.957-3.943-2.631-4.372-3.611-2.333-1.7-3.247-2.14-4.673-4.842-4.208-7.977,10.814-18.647-2.954-25.978-10.085-5.37-19.829-3.379-15.55-19.8s-3.214-49.21-22.961-40.908c-11.332,4.765-3.758,20.834-10.906,30.293-6.792,8.989-4.124,17.941,5.291,25.872s2.928,11.447-1.9,20.294c-5.8,10.627,11.23,15.905,19.3,17.671C815.867,651.1,831.459,659.106,830.886,667.282Z" transform="translate(-782.884 -554.223)" fill="url(#linear-gradient)"/>
    </clipPath>
    <clipPath id="clip-path-3">
      <path id="Path_3848" data-name="Path 3848" d="M681.527,1613.179a10,10,0,0,0,2.816-3.784c1.151-5.218,3.941-14.849,1.193-19.785-.469-.843-4.735.22-5.662-.314-2.884.018-3.884.2-6.634-1.127-8.12-3.927-2.352-21.427-17.785-19.164-11.3,1.658-17.969,9.04-24.261-6.717s-31.774-37.714-42.748-19.319c-6.3,10.557,9.331,19,9.186,30.858-.138,11.266,7.321,16.891,19.6,17.692s9.147,7.48,10.5,17.469c1.629,12,18.475,6.146,26.021,2.78C659.837,1609.058,677.139,1606.256,681.527,1613.179Z" transform="translate(-586.949 -1535.978)" fill="#fe8794"/>
    </clipPath>
    <linearGradient id="linear-gradient-3" x1="0.491" y1="0.477" x2="0.209" y2="0.496" gradientUnits="objectBoundingBox">
      <stop offset="0" stop-color="#444b8c"/>
      <stop offset="0.996" stop-color="#26264f"/>
    </linearGradient>
    <linearGradient id="linear-gradient-4" x1="0.708" y1="0.034" x2="0.013" y2="1.514" xlink:href="#linear-gradient-3"/>
    <linearGradient id="linear-gradient-5" x1="0.602" y1="-0.466" x2="-0.015" y2="5.323" gradientUnits="objectBoundingBox">
      <stop offset="0" stop-color="#311944"/>
      <stop offset="1" stop-color="#6b3976"/>
    </linearGradient>
    <linearGradient id="linear-gradient-6" x1="0.704" y1="-1.354" x2="0.086" y2="4.22" xlink:href="#linear-gradient-5"/>
    <linearGradient id="linear-gradient-7" x1="0.992" y1="-1.6" x2="0.393" y2="0.938" xlink:href="#linear-gradient-5"/>
    <linearGradient id="linear-gradient-8" x1="1.242" y1="-1.766" x2="0.006" y2="1.998" xlink:href="#linear-gradient-5"/>
    <linearGradient id="linear-gradient-9" x1="1.105" y1="-1.317" x2="-0.179" y2="2.526" xlink:href="#linear-gradient-5"/>
    <linearGradient id="linear-gradient-10" x1="-0.074" y1="8.894" x2="0.216" y2="4.642" gradientUnits="objectBoundingBox">
      <stop offset="0.004" stop-color="#f36f56"/>
      <stop offset="1" stop-color="#ffc444"/>
    </linearGradient>
    <linearGradient id="linear-gradient-11" x1="0.704" y1="-1.354" x2="0.086" y2="4.22" xlink:href="#linear-gradient-10"/>
    <linearGradient id="linear-gradient-12" x1="0.222" y1="2.324" x2="0.504" y2="0.461" xlink:href="#linear-gradient-10"/>
    <linearGradient id="linear-gradient-13" x1="-0.287" y1="4.233" x2="0.295" y2="1.469" xlink:href="#linear-gradient-10"/>
    <linearGradient id="linear-gradient-14" x1="-0.395" y1="4.676" x2="0.209" y2="1.854" xlink:href="#linear-gradient-10"/>
    <clipPath id="clip-path-4">
      <circle id="Ellipse_60" data-name="Ellipse 60" cx="24.476" cy="24.476" r="24.476" fill="none"/>
    </clipPath>
    <linearGradient id="linear-gradient-19" x1="2.562" y1="0.683" x2="2.346" y2="0.44" xlink:href="#linear-gradient-3"/>
    <linearGradient id="linear-gradient-20" x1="0.505" y1="-0.112" x2="0.495" y2="0.524" gradientUnits="objectBoundingBox">
      <stop offset="0" stop-color="#893976"/>
      <stop offset="1" stop-color="#311944"/>
    </linearGradient>
    <linearGradient id="linear-gradient-21" x1="1.557" y1="0.612" x2="1.611" y2="1.109" gradientUnits="objectBoundingBox">
      <stop offset="0" stop-color="#aa80f9"/>
      <stop offset="0.996" stop-color="#6165d7"/>
    </linearGradient>
    <linearGradient id="linear-gradient-22" x1="4.292" y1="0.9" x2="4.429" y2="1.745" xlink:href="#linear-gradient-21"/>
    <linearGradient id="linear-gradient-23" y1="0.5" x2="1" y2="0.5" gradientUnits="objectBoundingBox">
      <stop offset="0.494" stop-color="#ebeff2"/>
      <stop offset="1" stop-color="#fff"/>
    </linearGradient>
    <linearGradient id="linear-gradient-24" x1="0.481" y1="-0.732" x2="0.502" y2="1.065" gradientUnits="objectBoundingBox">
      <stop offset="0" stop-color="#311944"/>
      <stop offset="1" stop-color="#a03976"/>
    </linearGradient>
    <linearGradient id="linear-gradient-25" x1="8.34" y1="-4.61" x2="6.846" y2="-2.959" xlink:href="#linear-gradient-24"/>
    <linearGradient id="linear-gradient-26" x1="2.312" y1="1.792" x2="3.198" y2="-0.608" xlink:href="#linear-gradient-24"/>
    <linearGradient id="linear-gradient-27" x1="0" y1="0.5" x2="1" y2="0.5" xlink:href="#linear-gradient-20"/>
    <linearGradient id="linear-gradient-28" x1="-0.017" y1="0.5" x2="1" y2="0.5" xlink:href="#linear-gradient-20"/>
    <linearGradient id="linear-gradient-29" x1="0.907" y1="1.663" x2="-0.146" y2="-1.371" xlink:href="#linear-gradient-21"/>
    <linearGradient id="linear-gradient-30" x1="1.065" y1="1.559" x2="-2.052" y2="-3.747" gradientUnits="objectBoundingBox">
      <stop offset="0" stop-color="#ffc444"/>
      <stop offset="0.996" stop-color="#f36f56"/>
    </linearGradient>
    <linearGradient id="linear-gradient-31" x1="0.538" y1="0.417" x2="0.339" y2="1.221" xlink:href="#linear-gradient-20"/>
    <linearGradient id="linear-gradient-32" x1="6.682" y1="-2.317" x2="6.862" y2="2.72" xlink:href="#linear-gradient-24"/>
    <linearGradient id="linear-gradient-33" x1="23.969" y1="1.25" x2="23.847" y2="-4.967" xlink:href="#linear-gradient-30"/>
    <linearGradient id="linear-gradient-34" x1="10.28" y1="-1.424" x2="10.565" y2="1.528" xlink:href="#linear-gradient-24"/>
    <linearGradient id="linear-gradient-35" x1="17.118" y1="1.436" x2="17.032" y2="-2.947" xlink:href="#linear-gradient-30"/>
    <linearGradient id="linear-gradient-36" x1="3.603" y1="0.505" x2="4.605" y2="0.505" gradientUnits="objectBoundingBox">
      <stop offset="0" stop-color="#444b8c"/>
      <stop offset="0.996" stop-color="#3e4177"/>
    </linearGradient>
    <linearGradient id="linear-gradient-37" x1="3.791" y1="0.505" x2="4.865" y2="0.505" xlink:href="#linear-gradient-36"/>
    <linearGradient id="linear-gradient-38" x1="1.781" y1="0.506" x2="2.778" y2="0.506" xlink:href="#linear-gradient-36"/>
    <linearGradient id="linear-gradient-39" x1="0.947" y1="1.743" x2="0.546" y2="0.517" gradientUnits="objectBoundingBox">
      <stop offset="0" stop-color="#311944"/>
      <stop offset="1" stop-color="#893976"/>
    </linearGradient>
    <linearGradient id="linear-gradient-40" x1="0.549" y1="0.204" x2="0.293" y2="3.433" xlink:href="#linear-gradient-30"/>
    <linearGradient id="linear-gradient-41" x1="19.4" y1="7.759" x2="18.65" y2="6.084" xlink:href="#linear-gradient-36"/>
    <linearGradient id="linear-gradient-42" x1="0.44" y1="-0.008" x2="0.938" y2="4.489" xlink:href="#linear-gradient-30"/>
    <linearGradient id="linear-gradient-43" x1="-16.588" y1="-2.229" x2="-15.747" y2="-2.229" xlink:href="#linear-gradient-39"/>
    <linearGradient id="linear-gradient-44" x1="44.094" y1="-34.644" x2="44.974" y2="-34.644" xlink:href="#linear-gradient-30"/>
    <linearGradient id="linear-gradient-45" x1="1.273" y1="1.88" x2="0.462" y2="0.377" xlink:href="#linear-gradient-39"/>
    <linearGradient id="linear-gradient-46" x1="-9.255" y1="-0.802" x2="-8.367" y2="-0.802" xlink:href="#linear-gradient-39"/>
    <linearGradient id="linear-gradient-47" x1="0" y1="0.5" x2="1" y2="0.5" xlink:href="#linear-gradient-3"/>
    <linearGradient id="linear-gradient-49" x1="-8.719" y1="2.148" x2="-9.222" y2="1.605" xlink:href="#linear-gradient-3"/>
    <linearGradient id="linear-gradient-50" x1="-10.056" y1="1.405" x2="-9.332" y2="2.173" xlink:href="#linear-gradient-3"/>
    <linearGradient id="linear-gradient-51" x1="-97.683" y1="-29.044" x2="-97.478" y2="-30.776" xlink:href="#linear-gradient-30"/>
  </defs>
  <g id="Group_2482" data-name="Group 2482" transform="translate(4.714 0)">
    <g id="Group_2481" data-name="Group 2481" clip-path="url(#clip-path)">
      <g id="Group_2480" data-name="Group 2480" transform="translate(1.724 3.323)">
        <g id="Group_2473" data-name="Group 2473" transform="translate(11.017)">
          <g id="Group_2472" data-name="Group 2472">
            <g id="Group_2471" data-name="Group 2471" style="mix-blend-mode: soft-light;isolation: isolate">
              <path id="Path_3835" data-name="Path 3835" d="M830.886,667.282a10,10,0,0,0,4.512-1.376c4.022-3.519,11.979-9.618,12.695-15.222.122-.957-3.943-2.631-4.372-3.611-2.333-1.7-3.247-2.14-4.673-4.842-4.208-7.977,10.814-18.647-2.954-25.978-10.085-5.37-19.829-3.379-15.55-19.8s-3.214-49.21-22.961-40.908c-11.332,4.765-3.758,20.834-10.906,30.293-6.792,8.989-4.124,17.941,5.291,25.872s2.928,11.447-1.9,20.294c-5.8,10.627,11.23,15.905,19.3,17.671C815.867,651.1,831.459,659.106,830.886,667.282Z" transform="translate(-782.884 -554.223)" fill="url(#linear-gradient)"/>
              <g id="Group_2470" data-name="Group 2470" clip-path="url(#clip-path-2)">
                <g id="Group_2469" data-name="Group 2469" transform="translate(-1.995 -2.892)">
                  <g id="Group_2468" data-name="Group 2468">
                    <path id="Path_3836" data-name="Path 3836" d="M1144.288,610.208l.154-.207c-31.892-23.708-46.262-63.768-38.44-107.16l-.254-.046c-3.707,20.565-2.354,41.165,3.911,59.574A98.944,98.944,0,0,0,1144.288,610.208Z" transform="translate(-1083.668 -502.795)" fill="#fcfdfe"/>
                    <path id="Path_3837" data-name="Path 3837" d="M858.109,2001.052c10.776-1.422,27.769,1.678,37.881,6.911l.119-.229c-10.152-5.253-27.214-8.365-38.033-6.937Z" transform="translate(-851.852 -1916.237)" fill="#fcfdfe"/>
                    <path id="Path_3838" data-name="Path 3838" d="M1650.111,1691.2l.205-.156c-3.585-4.709-4.652-11.049-3.171-18.845a67.345,67.345,0,0,1,7.149-18.877l-.227-.122a67.6,67.6,0,0,0-7.175,18.951C1645.4,1680.019,1646.479,1686.428,1650.111,1691.2Z" transform="translate(-1595.699 -1588.51)" fill="#fcfdfe"/>
                    <path id="Path_3839" data-name="Path 3839" d="M772.6,1255.207l.213-.146c-6.3-9.224-17.267-13.435-25.357-15.344l-.059.251C755.444,1241.867,766.347,1246.051,772.6,1255.207Z" transform="translate(-747.399 -1198.28)" fill="#fcfdfe"/>
                    <path id="Path_3840" data-name="Path 3840" d="M1109.1,619.3l.256.029c1.424-12.5,10.565-22.039,15.887-26.611l-.168-.2C1119.72,597.117,1110.53,606.707,1109.1,619.3Z" transform="translate(-1088.758 -587.476)" fill="#fcfdfe"/>
                  </g>
                </g>
              </g>
            </g>
          </g>
        </g>
        <g id="Group_2479" data-name="Group 2479" transform="translate(0 55.204)">
          <g id="Group_2478" data-name="Group 2478">
            <g id="Group_2477" data-name="Group 2477" style="mix-blend-mode: soft-light;isolation: isolate">
              <path id="Path_3842" data-name="Path 3842" d="M681.527,1613.179a10,10,0,0,0,2.816-3.784c1.151-5.218,3.941-14.849,1.193-19.785-.469-.843-4.735.22-5.662-.314-2.884.018-3.884.2-6.634-1.127-8.12-3.927-2.352-21.427-17.785-19.164-11.3,1.658-17.969,9.04-24.261-6.717s-31.774-37.714-42.748-19.319c-6.3,10.557,9.331,19,9.186,30.858-.138,11.266,7.321,16.891,19.6,17.692s9.147,7.48,10.5,17.469c1.629,12,18.475,6.146,26.021,2.78C659.837,1609.058,677.139,1606.256,681.527,1613.179Z" transform="translate(-586.949 -1535.978)" fill="#fe8794"/>
              <g id="Group_2476" data-name="Group 2476" clip-path="url(#clip-path-3)">
                <g id="Group_2475" data-name="Group 2475" transform="translate(3.331 -3.976)">
                  <g id="Group_2474" data-name="Group 2474">
                    <path id="Path_3843" data-name="Path 3843" d="M740.92,1604.87v-.258c-39.738-.173-75.067-23.9-94.505-63.481l-.232.114c9.212,18.756,22.519,34.54,38.482,45.645A98.943,98.943,0,0,0,740.92,1604.87Z" transform="translate(-646.184 -1536.866)" fill="#fcfdfe"/>
                    <path id="Path_3844" data-name="Path 3844" d="M1311.229,2636.51c7.832-7.536,23.353-15.119,34.6-16.9l-.04-.255c-11.289,1.791-26.872,9.4-34.737,16.972Z" transform="translate(-1273.665 -2554.458)" fill="#fcfdfe"/>
                    <path id="Path_3845" data-name="Path 3845" d="M1867.435,2118.955l.072-.248c-5.679-1.665-10.3-6.137-13.73-13.292a67.345,67.345,0,0,1-5.44-19.439l-.255.037a67.6,67.6,0,0,0,5.463,19.514C1857.009,2112.75,1861.682,2117.268,1867.435,2118.955Z" transform="translate(-1780.5 -2051.073)" fill="#fcfdfe"/>
                    <path id="Path_3846" data-name="Path 3846" d="M797.38,2293.2l.085-.244c-10.544-3.689-21.871-.576-29.516,2.685l.1.237C775.654,2292.639,786.914,2289.542,797.38,2293.2Z" transform="translate(-761.102 -2244.843)" fill="#fcfdfe"/>
                    <path id="Path_3847" data-name="Path 3847" d="M881.529,1496.3l.224-.129c-6.269-10.912-4.565-24.011-2.992-30.848l-.251-.058C876.928,1472.135,875.216,1485.307,881.529,1496.3Z" transform="translate(-864.057 -1465.261)" fill="#fcfdfe"/>
                  </g>
                </g>
              </g>
            </g>
          </g>
        </g>
      </g>
    </g>
  </g>
  <g id="Group_2483" data-name="Group 2483" transform="translate(77.87 0.872)">
    <path id="Path_3849" data-name="Path 3849" d="M1881.9,513.671a20.208,20.208,0,0,0-3.151,0c-.02-.1-.041-.2-.07-.3a3.772,3.772,0,0,0-4.59-2.608,3.641,3.641,0,0,0-2.563,4.527c.029.1.065.2.1.3a20.049,20.049,0,0,0-2.705,1.568c-.069-.08-.14-.159-.217-.234a3.733,3.733,0,0,0-5.256,0,3.68,3.68,0,0,0,.075,5.225c.076.074.155.141.234.208a19.61,19.61,0,0,0-1.534,2.716c-.1-.035-.2-.069-.3-.1a3.667,3.667,0,0,0-4.515,2.616,3.745,3.745,0,0,0,2.693,4.522c.1.027.206.047.309.065a19.851,19.851,0,0,0,.041,3.133c-.1.018-.2.038-.3.065a3.641,3.641,0,0,0-2.563,4.527,3.772,3.772,0,0,0,4.589,2.608c.1-.028.2-.062.3-.1a20.578,20.578,0,0,0,1.614,2.71c-.08.068-.158.137-.233.212a3.679,3.679,0,0,0,.075,5.225,3.733,3.733,0,0,0,5.257,0c.073-.074.14-.152.206-.23a20.473,20.473,0,0,0,2.753,1.561c-.034.1-.067.2-.093.3a3.745,3.745,0,0,0,2.693,4.522,3.667,3.667,0,0,0,4.515-2.616c.026-.1.045-.2.062-.307a20.208,20.208,0,0,0,3.151,0c.02.1.041.2.07.3a3.772,3.772,0,0,0,4.589,2.608,3.641,3.641,0,0,0,2.564-4.527c-.029-.1-.065-.2-.1-.3a20.049,20.049,0,0,0,2.705-1.568c.069.08.14.159.217.234a3.733,3.733,0,0,0,5.256,0,3.679,3.679,0,0,0-.075-5.225c-.076-.074-.155-.141-.234-.208a19.6,19.6,0,0,0,1.534-2.716c.1.035.2.069.3.1a3.667,3.667,0,0,0,4.515-2.616,3.745,3.745,0,0,0-2.693-4.522c-.1-.027-.206-.047-.309-.065a19.85,19.85,0,0,0-.041-3.132c.1-.018.2-.038.3-.065a3.641,3.641,0,0,0,2.563-4.527,3.772,3.772,0,0,0-4.589-2.608c-.1.028-.2.062-.3.1a20.574,20.574,0,0,0-1.614-2.71c.08-.068.158-.137.233-.212a3.679,3.679,0,0,0-.075-5.225,3.733,3.733,0,0,0-5.256,0c-.073.074-.14.152-.206.23a20.479,20.479,0,0,0-2.753-1.561c.034-.1.067-.2.093-.3a3.745,3.745,0,0,0-2.693-4.522,3.667,3.667,0,0,0-4.515,2.616C1881.939,513.467,1881.92,513.569,1881.9,513.671Zm2.019,7.1a13.6,13.6,0,0,1,9.777,16.42,13.316,13.316,0,0,1-16.392,9.5,13.6,13.6,0,0,1-9.777-16.42A13.315,13.315,0,0,1,1883.922,520.77Z" transform="translate(-1857.297 -510.622)" fill="#d8dee8"/>
  </g>
  <g id="Group_2484" data-name="Group 2484" transform="translate(123.682 27.916)">
    <path id="Path_3850" data-name="Path 3850" d="M2682.188,993.2a9.188,9.188,0,0,0-1.42.2c-.016-.044-.031-.088-.051-.132a1.717,1.717,0,0,0-2.235-.883,1.657,1.657,0,0,0-.867,2.2c.02.044.042.087.065.129a9.113,9.113,0,0,0-1.119.879c-.036-.032-.073-.063-.113-.092a1.7,1.7,0,0,0-2.369.337,1.675,1.675,0,0,0,.367,2.35c.039.029.079.054.119.079a8.9,8.9,0,0,0-.518,1.322c-.047-.01-.094-.018-.142-.024a1.669,1.669,0,0,0-1.868,1.467,1.7,1.7,0,0,0,1.5,1.866c.048.006.1.008.144.01a9.026,9.026,0,0,0,.218,1.409c-.044.015-.089.03-.133.049a1.657,1.657,0,0,0-.866,2.2,1.716,1.716,0,0,0,2.235.883c.045-.019.087-.041.13-.063a9.355,9.355,0,0,0,.9,1.118c-.031.036-.063.072-.092.111a1.675,1.675,0,0,0,.367,2.35,1.7,1.7,0,0,0,2.369-.337c.028-.038.053-.077.078-.117a9.31,9.31,0,0,0,1.34.528c-.009.046-.017.093-.023.14a1.7,1.7,0,0,0,1.5,1.866,1.669,1.669,0,0,0,1.868-1.467c.005-.048.007-.1.008-.142a9.2,9.2,0,0,0,1.42-.2c.016.044.032.088.051.132a1.717,1.717,0,0,0,2.235.883,1.657,1.657,0,0,0,.867-2.2c-.02-.045-.042-.087-.065-.129a9.117,9.117,0,0,0,1.119-.879c.036.032.073.063.113.092a1.7,1.7,0,0,0,2.369-.337,1.675,1.675,0,0,0-.367-2.35c-.039-.028-.079-.054-.119-.079a8.928,8.928,0,0,0,.518-1.322c.047.01.094.018.142.024a1.669,1.669,0,0,0,1.868-1.467,1.7,1.7,0,0,0-1.5-1.866c-.048-.006-.1-.008-.144-.01a9.056,9.056,0,0,0-.219-1.409c.044-.015.089-.03.133-.049a1.657,1.657,0,0,0,.867-2.2,1.717,1.717,0,0,0-2.235-.883c-.045.019-.087.041-.13.063a9.359,9.359,0,0,0-.9-1.118c.031-.036.063-.072.092-.111a1.675,1.675,0,0,0-.367-2.35,1.7,1.7,0,0,0-2.369.337c-.028.038-.053.077-.078.117a9.317,9.317,0,0,0-1.34-.528c.009-.046.017-.093.023-.14a1.7,1.7,0,0,0-1.5-1.866,1.669,1.669,0,0,0-1.868,1.467C2682.19,993.109,2682.188,993.156,2682.188,993.2Zm1.363,3.07a6.189,6.189,0,0,1,5.454,6.776,6.061,6.061,0,0,1-6.782,5.327,6.189,6.189,0,0,1-5.454-6.776A6.061,6.061,0,0,1,2683.55,996.274Z" transform="translate(-2672.027 -991.582)" fill="#d8dee8"/>
  </g>
  <g id="Group_2486" data-name="Group 2486" transform="translate(26.947 19.945)">
    <path id="Path_3851" data-name="Path 3851" d="M1018.548,854.389l13.877,115.341a3.039,3.039,0,0,1-2.654,3.445l-57.8,6.345c-3.541.22-5.479-1.589-5.7-3.428L951.706,853.466c-.217-1.829,1.52-3.485,5.076-3.485l58.325,1.228A3.677,3.677,0,0,1,1018.548,854.389Z" transform="translate(-951.688 -849.972)" fill="url(#linear-gradient-3)"/>
    <path id="Path_3852" data-name="Path 3852" d="M1060.384,854.038l13.953,115.918a3.053,3.053,0,0,1-2.663,3.463l-59.921,5.966a3.5,3.5,0,0,1-3.82-3.021L993.282,853.1a2.907,2.907,0,0,1,3.061-3.284l60.585,1.022A3.694,3.694,0,0,1,1060.384,854.038Z" transform="translate(-990.922 -849.82)" fill="url(#linear-gradient-4)"/>
    <path id="Path_3853" data-name="Path 3853" d="M1108.94,978.543l12.933,107.479a2.847,2.847,0,0,1-2.493,3.229l-56.354,5.478a3.268,3.268,0,0,1-3.552-2.819l-13.539-113.865a2.724,2.724,0,0,1,2.841-3.078l56.932.606A3.427,3.427,0,0,1,1108.94,978.543Z" transform="translate(-1040.615 -967.931)" fill="#d8dee8"/>
    <path id="Path_3854" data-name="Path 3854" d="M1591.463,904.388a.959.959,0,0,1-.99,1.1,1.321,1.321,0,0,1-1.26-1.134.959.959,0,0,1,.992-1.1A1.322,1.322,0,0,1,1591.463,904.388Z" transform="translate(-1553.358 -900.249)" fill="#fff"/>
    <g id="Group_2485" data-name="Group 2485" transform="translate(2.338)" style="mix-blend-mode: soft-light;isolation: isolate">
      <path id="Path_3855" data-name="Path 3855" d="M1049.5,932.579c-11.537-21.33-28.771-27.715-33.96-49.7-2.8-11.883-.894-23.256,2.325-32.7l-21.526-.363a2.908,2.908,0,0,0-3.061,3.284l14.651,123.261a3.5,3.5,0,0,0,3.82,3.021l47.1-4.69C1059.205,955.583,1054.646,942.087,1049.5,932.579Z" transform="translate(-993.259 -849.82)" fill="#fff"/>
    </g>
  </g>
  <g id="Group_2491" data-name="Group 2491" transform="translate(38.811 31.529)">
    <path id="Path_3856" data-name="Path 3856" d="M1221.924,1063.87l-56.1.72a3.152,3.152,0,0,0-3.135,3.62l1.11,9.312a4.022,4.022,0,0,0,3.984,3.495l56.035-1.253a3.022,3.022,0,0,0,2.906-3.518l-1.07-8.973A3.859,3.859,0,0,0,1221.924,1063.87Z" transform="translate(-1162.664 -1063.418)" fill="url(#linear-gradient-5)"/>
    <path id="Path_3857" data-name="Path 3857" d="M1353.5,1365.574l-56.02,1.38a3.2,3.2,0,0,0-3.13,3.662l1.11,9.312a3.963,3.963,0,0,0,3.979,3.453l55.956-1.912a3.064,3.064,0,0,0,2.9-3.558l-1.07-8.973A3.8,3.8,0,0,0,1353.5,1365.574Z" transform="translate(-1286.919 -1348.157)" fill="url(#linear-gradient-6)"/>
    <path id="Path_3858" data-name="Path 3858" d="M1372.506,2285.73l-55.824,3.023a3.308,3.308,0,0,0-3.118,3.766l3.458,29a3.767,3.767,0,0,0,3.961,3.308l55.684-4.193a3.216,3.216,0,0,0,2.886-3.693L1376.221,2289A3.666,3.666,0,0,0,1372.506,2285.73Z" transform="translate(-1305.055 -2216.569)" fill="url(#linear-gradient-7)"/>
    <path id="Path_3859" data-name="Path 3859" d="M1256.233,1819.479,1279,1818.3a3.218,3.218,0,0,0,3.019-3.69l-2.159-18.112a3.855,3.855,0,0,0-3.863-3.386l-22.809.837a3.241,3.241,0,0,0-3.125,3.7l2.2,18.43A3.878,3.878,0,0,0,1256.233,1819.479Z" transform="translate(-1245.125 -1751.656)" fill="url(#linear-gradient-8)"/>
    <path id="Path_3860" data-name="Path 3860" d="M1882.241,1771.485l-21.924.8a3.147,3.147,0,0,0-2.995,3.629l2.154,18.066a3.765,3.765,0,0,0,3.824,3.328l21.885-1.129a3.127,3.127,0,0,0,2.895-3.615l-2.117-17.76A3.745,3.745,0,0,0,1882.241,1771.485Z" transform="translate(-1818.238 -1731.242)" fill="url(#linear-gradient-9)"/>
    <path id="Path_3861" data-name="Path 3861" d="M1234.128,1055.833l-56.1.72a3.152,3.152,0,0,0-3.135,3.62l1.11,9.312a4.022,4.022,0,0,0,3.984,3.495l56.035-1.253a3.022,3.022,0,0,0,2.906-3.519l-1.07-8.973A3.859,3.859,0,0,0,1234.128,1055.833Z" transform="translate(-1174.182 -1055.833)" fill="url(#linear-gradient-10)"/>
    <path id="Path_3862" data-name="Path 3862" d="M1365.7,1357.537l-56.02,1.38a3.2,3.2,0,0,0-3.13,3.662l1.11,9.312a3.963,3.963,0,0,0,3.979,3.453l55.956-1.912a3.064,3.064,0,0,0,2.9-3.558l-1.07-8.973A3.8,3.8,0,0,0,1365.7,1357.537Z" transform="translate(-1298.436 -1340.572)" fill="url(#linear-gradient-11)"/>
    <path id="Path_3863" data-name="Path 3863" d="M1384.709,2277.692l-55.824,3.023a3.308,3.308,0,0,0-3.118,3.766l3.458,29a3.767,3.767,0,0,0,3.961,3.308l55.684-4.193a3.216,3.216,0,0,0,2.885-3.693l-3.332-27.951A3.666,3.666,0,0,0,1384.709,2277.692Z" transform="translate(-1316.572 -2208.983)" fill="url(#linear-gradient-12)"/>
    <path id="Path_3864" data-name="Path 3864" d="M1268.437,1811.441l22.768-1.175a3.218,3.218,0,0,0,3.019-3.69l-2.159-18.112a3.855,3.855,0,0,0-3.863-3.386l-22.809.837a3.241,3.241,0,0,0-3.125,3.7l2.2,18.43A3.878,3.878,0,0,0,1268.437,1811.441Z" transform="translate(-1256.643 -1744.07)" fill="url(#linear-gradient-13)"/>
    <path id="Path_3865" data-name="Path 3865" d="M1268.437,1811.441l22.768-1.175a3.218,3.218,0,0,0,3.019-3.69l-2.159-18.112a3.855,3.855,0,0,0-3.863-3.386l-22.809.837a3.241,3.241,0,0,0-3.125,3.7l2.2,18.43A3.878,3.878,0,0,0,1268.437,1811.441Z" transform="translate(-1256.643 -1744.07)" fill="#fff" opacity="0.5" style="mix-blend-mode: soft-light;isolation: isolate"/>
    <path id="Path_3866" data-name="Path 3866" d="M1894.445,1763.447l-21.924.8a3.147,3.147,0,0,0-2.995,3.629l2.154,18.066a3.766,3.766,0,0,0,3.824,3.328l21.885-1.129a3.127,3.127,0,0,0,2.895-3.615l-2.117-17.76A3.745,3.745,0,0,0,1894.445,1763.447Z" transform="translate(-1829.755 -1723.656)" fill="url(#linear-gradient-14)"/>
    <g id="Group_2487" data-name="Group 2487" transform="translate(8.089 17.651)" opacity="0.5" style="mix-blend-mode: soft-light;isolation: isolate">
      <path id="Path_3867" data-name="Path 3867" d="M1309.682,1370.433a3.2,3.2,0,0,0-3.13,3.662l1.11,9.312a3.963,3.963,0,0,0,3.979,3.453l39.323-1.344c-4.227-5.866-9.715-10.4-13.084-15.777Z" transform="translate(-1306.526 -1369.739)" fill="#fff"/>
    </g>
    <g id="Group_2488" data-name="Group 2488" transform="translate(9.17 69.983)" opacity="0.5" style="mix-blend-mode: soft-light;isolation: isolate">
      <path id="Path_3868" data-name="Path 3868" d="M1361.193,2300.419l-32.308,1.75a3.308,3.308,0,0,0-3.118,3.766l3.458,29a3.766,3.766,0,0,0,3.961,3.308l25.042-1.885a41.546,41.546,0,0,1-3.067-14.955C1355.053,2312.433,1358.089,2306.177,1361.193,2300.419Z" transform="translate(-1325.741 -2300.419)" fill="#fff"/>
    </g>
    <g id="Group_2489" data-name="Group 2489" transform="translate(39.745 40.378)" opacity="0.5" style="mix-blend-mode: soft-light;isolation: isolate">
      <path id="Path_3869" data-name="Path 3869" d="M1880.5,1780.829a27.892,27.892,0,0,0-2.039-6.9l-5.935.218a3.147,3.147,0,0,0-2.995,3.629l2.154,18.066a3.766,3.766,0,0,0,3.824,3.328l1.253-.065C1879.551,1793.72,1881.682,1788.269,1880.5,1780.829Z" transform="translate(-1869.501 -1773.924)" fill="#fff"/>
    </g>
    <g id="Group_2490" data-name="Group 2490" transform="translate(0.686 0.376)" opacity="0.5" style="mix-blend-mode: soft-light;isolation: isolate">
      <path id="Path_3870" data-name="Path 3870" d="M1203.207,1069.1a20.874,20.874,0,0,1,1.64-6.579l-26.818.344a3.152,3.152,0,0,0-3.135,3.62l1.11,9.312a4.022,4.022,0,0,0,3.984,3.495l25.178-.563A17.638,17.638,0,0,1,1203.207,1069.1Z" transform="translate(-1174.868 -1062.521)" fill="#fff"/>
    </g>
  </g>
  <g id="Group_2498" data-name="Group 2498" transform="translate(45.803 52.306)">
    <g id="Group_2497" data-name="Group 2497" clip-path="url(#clip-path-4)">
      <g id="Group_2496" data-name="Group 2496" transform="translate(-6.99 -20.778)">
        <path id="Path_3871" data-name="Path 3871" d="M1221.953,1063.87l-56.1.72a3.152,3.152,0,0,0-3.135,3.62l1.11,9.312a4.022,4.022,0,0,0,3.984,3.495l56.035-1.253a3.022,3.022,0,0,0,2.906-3.518l-1.07-8.973A3.859,3.859,0,0,0,1221.953,1063.87Z" transform="translate(-1162.693 -1063.418)" fill="url(#linear-gradient-5)"/>
        <path id="Path_3872" data-name="Path 3872" d="M1353.526,1365.574l-56.02,1.38a3.2,3.2,0,0,0-3.13,3.662l1.11,9.312a3.963,3.963,0,0,0,3.979,3.453l55.956-1.912a3.064,3.064,0,0,0,2.9-3.558l-1.07-8.973A3.8,3.8,0,0,0,1353.526,1365.574Z" transform="translate(-1286.947 -1348.157)" fill="#8593a0"/>
        <path id="Path_3873" data-name="Path 3873" d="M1372.534,2285.73l-55.824,3.023a3.308,3.308,0,0,0-3.118,3.766l3.458,29a3.767,3.767,0,0,0,3.961,3.308l55.684-4.193a3.216,3.216,0,0,0,2.886-3.693L1376.249,2289A3.666,3.666,0,0,0,1372.534,2285.73Z" transform="translate(-1305.083 -2216.569)" fill="url(#linear-gradient-7)"/>
        <path id="Path_3874" data-name="Path 3874" d="M1256.261,1819.479l22.768-1.175a3.218,3.218,0,0,0,3.019-3.69l-2.159-18.112a3.855,3.855,0,0,0-3.863-3.386l-22.809.837a3.241,3.241,0,0,0-3.125,3.7l2.2,18.43A3.878,3.878,0,0,0,1256.261,1819.479Z" transform="translate(-1245.154 -1751.656)" fill="#8593a0"/>
        <path id="Path_3875" data-name="Path 3875" d="M1882.27,1771.485l-21.924.8a3.147,3.147,0,0,0-2.995,3.629l2.154,18.066a3.766,3.766,0,0,0,3.824,3.328l21.885-1.129a3.127,3.127,0,0,0,2.895-3.615l-2.117-17.76A3.746,3.746,0,0,0,1882.27,1771.485Z" transform="translate(-1818.266 -1731.242)" fill="#8593a0"/>
        <path id="Path_3876" data-name="Path 3876" d="M1234.156,1055.833l-56.1.72a3.152,3.152,0,0,0-3.135,3.62l1.11,9.312a4.022,4.022,0,0,0,3.984,3.495l56.035-1.253a3.022,3.022,0,0,0,2.906-3.519l-1.07-8.973A3.859,3.859,0,0,0,1234.156,1055.833Z" transform="translate(-1174.21 -1055.833)" fill="url(#linear-gradient-10)"/>
        <path id="Path_3877" data-name="Path 3877" d="M1365.73,1357.537l-56.02,1.38a3.2,3.2,0,0,0-3.13,3.662l1.11,9.312a3.963,3.963,0,0,0,3.979,3.453l55.956-1.912a3.064,3.064,0,0,0,2.9-3.558l-1.07-8.973A3.8,3.8,0,0,0,1365.73,1357.537Z" transform="translate(-1298.465 -1340.572)" fill="#bfc8d6"/>
        <path id="Path_3878" data-name="Path 3878" d="M1384.738,2277.692l-55.824,3.023a3.308,3.308,0,0,0-3.118,3.766l3.458,29a3.767,3.767,0,0,0,3.961,3.308l55.684-4.193a3.216,3.216,0,0,0,2.885-3.693l-3.332-27.951A3.666,3.666,0,0,0,1384.738,2277.692Z" transform="translate(-1316.6 -2208.983)" fill="url(#linear-gradient-12)"/>
        <path id="Path_3879" data-name="Path 3879" d="M1268.465,1811.441l22.769-1.175a3.218,3.218,0,0,0,3.019-3.69l-2.159-18.112a3.855,3.855,0,0,0-3.863-3.386l-22.809.837a3.241,3.241,0,0,0-3.125,3.7l2.2,18.43A3.878,3.878,0,0,0,1268.465,1811.441Z" transform="translate(-1256.671 -1744.07)" fill="#bfc8d6"/>
        <path id="Path_3880" data-name="Path 3880" d="M1268.437,1811.441l22.768-1.175a3.218,3.218,0,0,0,3.019-3.69l-2.159-18.112a3.855,3.855,0,0,0-3.863-3.386l-22.809.837a3.241,3.241,0,0,0-3.125,3.7l2.2,18.43A3.878,3.878,0,0,0,1268.437,1811.441Z" transform="translate(-1256.645 -1744.07)" fill="#fff" opacity="0.4" style="mix-blend-mode: soft-light;isolation: isolate"/>
        <path id="Path_3881" data-name="Path 3881" d="M1894.474,1763.447l-21.924.8a3.147,3.147,0,0,0-2.995,3.629l2.154,18.066a3.766,3.766,0,0,0,3.824,3.328l21.885-1.129a3.127,3.127,0,0,0,2.895-3.615l-2.117-17.76A3.745,3.745,0,0,0,1894.474,1763.447Z" transform="translate(-1829.784 -1723.656)" fill="#bfc8d6"/>
        <g id="Group_2492" data-name="Group 2492" transform="translate(8.089 17.651)" opacity="0.4" style="mix-blend-mode: soft-light;isolation: isolate">
          <path id="Path_3882" data-name="Path 3882" d="M1309.71,1370.433a3.2,3.2,0,0,0-3.13,3.662l1.11,9.312a3.963,3.963,0,0,0,3.979,3.453l39.323-1.344c-4.227-5.866-9.715-10.4-13.084-15.777Z" transform="translate(-1306.554 -1369.739)" fill="#fff"/>
        </g>
        <g id="Group_2493" data-name="Group 2493" transform="translate(9.17 69.983)" opacity="0.5" style="mix-blend-mode: soft-light;isolation: isolate">
          <path id="Path_3883" data-name="Path 3883" d="M1361.222,2300.419l-32.308,1.75a3.308,3.308,0,0,0-3.118,3.766l3.458,29a3.766,3.766,0,0,0,3.961,3.308l25.042-1.885a41.548,41.548,0,0,1-3.067-14.955C1355.082,2312.433,1358.117,2306.177,1361.222,2300.419Z" transform="translate(-1325.77 -2300.419)" fill="#fff"/>
        </g>
        <g id="Group_2494" data-name="Group 2494" transform="translate(39.745 40.378)" opacity="0.4" style="mix-blend-mode: soft-light;isolation: isolate">
          <path id="Path_3884" data-name="Path 3884" d="M1880.523,1780.829a27.887,27.887,0,0,0-2.039-6.9l-5.935.218a3.147,3.147,0,0,0-2.995,3.629l2.154,18.066a3.766,3.766,0,0,0,3.824,3.328l1.253-.065C1879.579,1793.72,1881.71,1788.269,1880.523,1780.829Z" transform="translate(-1869.529 -1773.924)" fill="#fff"/>
        </g>
        <g id="Group_2495" data-name="Group 2495" transform="translate(0.686 0.376)" opacity="0.5" style="mix-blend-mode: soft-light;isolation: isolate">
          <path id="Path_3885" data-name="Path 3885" d="M1203.235,1069.1a20.881,20.881,0,0,1,1.64-6.579l-26.818.344a3.152,3.152,0,0,0-3.135,3.62l1.11,9.312a4.022,4.022,0,0,0,3.984,3.495l25.178-.563A17.64,17.64,0,0,1,1203.235,1069.1Z" transform="translate(-1174.896 -1062.521)" fill="#fff"/>
        </g>
      </g>
    </g>
  </g>
  <g id="Group_2500" data-name="Group 2500" transform="translate(0 95.763)">
    <path id="Path_3886" data-name="Path 3886" d="M509.731,2211.426c1.136-1.05,3.309-2.261,4.4-5.075.328-.847,1.491-3.848-.224-6.144a4.9,4.9,0,0,0-4.575-1.96c-1.424.28-1.647,1.271-4.066,3.268a17.114,17.114,0,0,1-4.141,2.72c-2.887,1.19-4.621.07-7.519.2-3.56.157-7.7,2.144-9.689,5.033-3.537,5.128,1.587,10.33-2.287,16.338-1.269,1.968-1.895,1.527-4.9,5.337s-4.516,5.722-4.248,8.06c.372,3.244,3.866,6.343,7.156,6.554,3.214.206,5.258-2.323,6.894-1.217,1.165.787.5,2.318,1.736,4.158,1.595,2.372,4.729,2.845,5.235,2.921,4.7.709,11.033-4.8,13.724-11.327C512.077,2228.519,503.555,2217.135,509.731,2211.426Z" transform="translate(-472.45 -2198.18)" fill="url(#linear-gradient-19)"/>
    <path id="Path_3887" data-name="Path 3887" d="M718.287,2929.712l22.13-5.535,1.107,5.376-20.26,9.351-16.042-3.963-9.677-9.5Z" transform="translate(-683.001 -2883.354)" fill="url(#linear-gradient-20)"/>
    <path id="Path_3888" data-name="Path 3888" d="M769.626,2364.972c.032-2.737-7.431-4.924-10.846-5.629a28.9,28.9,0,0,0-10.6-.226,24.9,24.9,0,0,0-12.3,5.873,14.824,14.824,0,0,1,6.518,6.788c1.68,3.86.479,7.407-.146,9.468a12.359,12.359,0,0,1-3.822,6.5c-1.293,1.042-2.722,1.571-5.581,2.63-3.37,1.248-5.46,1.593-5.445,2.268.019.861,3.443,1.563,3.323,2.1-.009.04-.034.043-.038.072-.046.374,3.8,1.295,8.659,2.026,5.683.855,8.525,1.282,11.241.817,4.235-.724,3.523-2.029,7.766-2.759,4.937-.85,7.18.695,11.65-1.022.753-.289,3.765-1.451,3.679-2.657-.107-1.491-5.076-.982-9.4-4.8a13.185,13.185,0,0,1-3.146-4.11,14.069,14.069,0,0,1-.407-10.1,3.505,3.505,0,0,1,.293-.6C763.568,2367.271,769.6,2367.428,769.626,2364.972Z" transform="translate(-713.067 -2349.708)" fill="url(#linear-gradient-21)"/>
    <path id="Path_3889" data-name="Path 3889" d="M755.164,2404.674c.906,1.924-3.257,6.4-7.883,8.531-.943.434-7.712,3.546-10.729.553-2.493-2.473-.836-7.573-.31-9.413,2.784-9.724,10.833-13.191,14.463-14.836,2.709,6.774,1.763,9.458,1.135,10.4a36.091,36.091,0,0,1-4.431,4.875c-1.368,1.281-2.219,1.9-2.1,2.1.142.249,1.746-.221,7.973-3.252A2.423,2.423,0,0,1,755.164,2404.674Z" transform="translate(-720.44 -2378.751)" fill="url(#linear-gradient-22)"/>
    <path id="Path_3890" data-name="Path 3890" d="M1075.439,2444.387l-3,14.96a1.227,1.227,0,0,1-.946.958l-22.4,4.807a1.227,1.227,0,0,1-1.481-1.3l1.182-15.215a1.226,1.226,0,0,1,.929-1.1c3.553-.877,17.229-4.161,24.442-4.588A1.227,1.227,0,0,1,1075.439,2444.387Z" transform="translate(-1015.265 -2429.154)" fill="url(#linear-gradient-23)"/>
    <path id="Path_3891" data-name="Path 3891" d="M1058.723,2274.765s-.423,3.378-1.669,4.152-3.262,1.784-3.484,2.059,7.723,1.128,11.66-.859h0c-1.3-.271-1.65-.37-1.65-.37a7.3,7.3,0,0,1-1.668-.66,5.668,5.668,0,0,1-1.833-1.7l.015-1.87Z" transform="translate(-1020.889 -2270.458)" fill="url(#linear-gradient-24)"/>
    <path id="Path_3892" data-name="Path 3892" d="M1129.089,2243.887a1.869,1.869,0,0,0,2.088.651c1.141-.416.46-3.364-.445-3.7a1.6,1.6,0,0,0-1.227.168,1.776,1.776,0,0,0-.558,2c-.288-.083-.542-.008-.606.135-.081.181.163.428.219.484A.966.966,0,0,0,1129.089,2243.887Z" transform="translate(-1091.444 -2238.385)" fill="url(#linear-gradient-25)"/>
    <path id="Path_3893" data-name="Path 3893" d="M1094.843,2457.321c2.406-.678,4.4,1.006,6.317-.327,1.963-1.365.682-3.7,2.723-5.99,2.182-2.452,4.951-1.251,6.971-3.486a6.415,6.415,0,0,0,1.435-4.486c.506-.049.991-.088,1.449-.115a1.227,1.227,0,0,1,1.276,1.469l-3,14.96a1.227,1.227,0,0,1-.946.958l-21.526,4.62C1091.058,2459.592,1093.086,2457.816,1094.843,2457.321Z" transform="translate(-1054.839 -2429.153)" fill="#eaeaea"/>
    <path id="Path_3894" data-name="Path 3894" d="M1490.469,2509.536a5.362,5.362,0,0,0,1.584-2.855,2.961,2.961,0,0,0-1.967-3.075c-1.045-.313-1.6.148-.9,1.659S1491,2507.757,1490.469,2509.536Z" transform="translate(-1431.719 -2486.345)" fill="url(#linear-gradient-26)"/>
    <g id="Group_2499" data-name="Group 2499" transform="translate(6.781 39.428)">
      <path id="Path_3895" data-name="Path 3895" d="M1087.608,2913.741a60.079,60.079,0,0,0,9.852-6.575c4.338-3.572,6.329-6.266,10.721-7.331.785-.19,5.257-1.274,6.7.712,1.6,2.2-1.509,6.8-1.886,7.355-5.611,8.306-19.9,7.918-24.383,7.649Z" transform="translate(-1059.799 -2899.368)" fill="url(#linear-gradient-27)"/>
      <path id="Path_3896" data-name="Path 3896" d="M1122.6,2902.711a2.942,2.942,0,0,0-1.876-1.048,3.558,3.558,0,0,1-.041,2.452c-.877,1.992-3.473,1.378-5.3,3.716-1.791,2.3-.551,4.509-2.135,5.455-1.815,1.085-4.065-1.45-6.009-.237-1.322.825-.911,2.389-2.451,3.241-1.064.589-2.108.31-3.321.158a17.146,17.146,0,0,0-5.684.287l.544.98c4.482.269,18.772.657,24.383-7.649C1121.093,2909.508,1124.2,2904.91,1122.6,2902.711Z" transform="translate(-1067.52 -2901.534)" opacity="0.3" fill="url(#linear-gradient-28)" style="mix-blend-mode: multiply;isolation: isolate"/>
      <path id="Path_3897" data-name="Path 3897" d="M1145.592,3171.649a2.277,2.277,0,0,1,1.975-.184c1.169.394,3.026.711,3.024,1.283s-1.861.93-3.145.695C1146.218,3173.219,1145.252,3172.151,1145.592,3171.649Z" transform="translate(-1114.458 -3156.036)" fill="url(#linear-gradient-29)"/>
      <path id="Path_3898" data-name="Path 3898" d="M1124.376,3159.686l2.152.692a.744.744,0,0,1-.122.952c-.472.369-2.111-.412-2.111-.412Z" transform="translate(-1094.423 -3145.048)" fill="url(#linear-gradient-30)"/>
      <path id="Path_3899" data-name="Path 3899" d="M593.089,2925.042c-.636,3.7,7.35,7.7,9.178,8.619,3.726,1.868,10.736,4.5,21.141,3.5l.415-2.49a49.276,49.276,0,0,1-5.775-2.4c-4.034-1.984-5.565-3.4-11.163-6.786-6.194-3.745-8-4.225-9.844-3.762C595.464,2922.118,593.384,2923.323,593.089,2925.042Z" transform="translate(-593.053 -2920.327)" fill="url(#linear-gradient-31)"/>
    </g>
  </g>
  <g id="Group_2503" data-name="Group 2503" transform="translate(43.666 49.499)">
    <path id="Path_3900" data-name="Path 3900" d="M2466.41,3035.622s-5.089,2.328-5.171,2.7,3.276-.132,4.648-.082,2.5-.358,2.373-.939-.609-2.041-.609-2.041Z" transform="translate(-2393.075 -2941.925)" fill="url(#linear-gradient-32)"/>
    <path id="Path_3901" data-name="Path 3901" d="M2549.836,3003.631l.315,2.293a1.8,1.8,0,0,0,1.348-.055l.225-2.516Z" transform="translate(-2476.691 -2911.813)" fill="url(#linear-gradient-33)"/>
    <path id="Path_3902" data-name="Path 3902" d="M2914.983,3008.265l.595.95a1.135,1.135,0,0,1,.138.889c-.205.792-.615,2.334-.795,2.737-.244.548-3.541.882-3.541.882s-.295-.413.388-.914,1.123-.581,1.363-1.319a19.3,19.3,0,0,0,.4-2.824Z" transform="translate(-2817.847 -2916.45)" fill="url(#linear-gradient-34)"/>
    <path id="Path_3903" data-name="Path 3903" d="M2932.549,2960.693a30.7,30.7,0,0,1,1.284,3.383s.344.438.993-.211.294-.291.294-.291l-.13-3.161Z" transform="translate(-2837.884 -2871.29)" fill="url(#linear-gradient-35)"/>
    <path id="Path_3904" data-name="Path 3904" d="M2495.163,2135.034c-.252,6.843-.246,14.277.167,22.217.465,8.942,1.375,17.2,2.516,24.695.417.012.856.013,1.314,0,.309-.009.609-.025.9-.046a56.9,56.9,0,0,0,1.873-6.042,58.1,58.1,0,0,0,1.3-7.072c.962-7.752-.189-8.425.594-14.171.693-5.088,1.7-5.289,2.855-12.514,1.258-7.839.3-9.012-.159-9.436C2504.55,2130.863,2499.929,2132.1,2495.163,2135.034Z" transform="translate(-2424.932 -2089.293)" fill="url(#linear-gradient-36)"/>
    <path id="Path_3905" data-name="Path 3905" d="M2520.438,2132.684c-1.882-1.72-6.172-.666-10.7,1.977,5.23,5.624,5.808,9.279,5.188,11.653-.7,2.683-2.848,3.46-2.832,6.392.019,3.6,3.273,4.55,3.213,8.362-.04,2.521-1.469,2.5-1.8,5.613-.39,3.685,1.479,4.95.881,7.678a7.377,7.377,0,0,1-3.107,4.291c.155,1.119.314,2.227.48,3.314.417.012.856.013,1.314,0,.31-.009.609-.025.9-.046a56.92,56.92,0,0,0,1.873-6.042,58.1,58.1,0,0,0,1.3-7.072c.962-7.752-.189-8.425.594-14.17.693-5.088,1.7-5.29,2.855-12.514C2521.855,2134.28,2520.9,2133.107,2520.438,2132.684Z" transform="translate(-2438.847 -2089.311)" opacity="0.3" fill="url(#linear-gradient-37)" style="mix-blend-mode: multiply;isolation: isolate"/>
    <path id="Path_3906" data-name="Path 3906" d="M2555.481,2122.456a153.648,153.648,0,0,1,21.171,45.03,2.745,2.745,0,0,0,1.5.229,2.8,2.8,0,0,0,1.7-.924,44.24,44.24,0,0,0,.364-10.911,37.592,37.592,0,0,0-1.554-8.2c-1.25-4-2.1-4.219-3.731-8.447-1.69-4.388-1.286-5.486-2.907-10.979a72.545,72.545,0,0,0-3.614-9.629Z" transform="translate(-2482.019 -2076.837)" fill="url(#linear-gradient-38)"/>
    <path id="Path_3907" data-name="Path 3907" d="M2229.825,1619.418c.043,1.6,2.667,3,4.78,3.434,4.94,1.008,10.668-2.581,13.387-6.552.534-.78,1.127-1.725,1.27-1.652.323.166-2.647,5.046-3.935,10.6-.659,2.839-.486,4.169-1.718,6.059-.279.428-.623.874-.5,1.381.3,1.269,3.2,1.6,5.217,1.827a46.443,46.443,0,0,0,6.065.189c3.136-.046,3.383-.209,4.1.143,2.181,1.07,2.033,3.635,3.675,3.977,1.378.287,2.777-1.252,3.22-1.74,2.3-2.537,2.181-5.6,2.59-8.68.95-7.172,4.847-15.03,8.658-20,1.156-1.509,1.96-2.3,2.01-3.7.147-4.116-6.373-8.659-11.8-9.181a40.754,40.754,0,0,0-6.65.137c-1,.094-2.061.232-3.2.432a26.185,26.185,0,0,0-6.665,1.721c-7.926,3.626-6.2,11.7-14.775,17.28C2232.6,1617,2229.781,1617.746,2229.825,1619.418Z" transform="translate(-2174.675 -1583.058)" fill="url(#linear-gradient-39)"/>
    <path id="Path_3908" data-name="Path 3908" d="M2727.062,1520.948a11.8,11.8,0,0,0,1.124,3.252c.708,1.222,3.636,1.66,4.246,1.873s-.92,1.275-2.548,1.66-6.387.637-7.32.125.605-.669,1.725-1.258,1.494-2.982,1.147-4S2727.062,1520.948,2727.062,1520.948Z" transform="translate(-2639.436 -1512.765)" fill="url(#linear-gradient-40)"/>
    <g id="Group_2501" data-name="Group 2501" transform="translate(83.347 3.937)">
      <path id="Path_3909" data-name="Path 3909" d="M2732.457,1449.13c-1.181-.844-1.508-3.126-.852-3.639.188-.146.366-.079,3.032.99,1.323.531,1.974.814,2.189,1.4a1.852,1.852,0,0,1-.035,1.219,4.669,4.669,0,0,1-.542.9c-.286.412-.267.4-.355.518a6.493,6.493,0,0,1-1.363,1.333,4.517,4.517,0,0,0-.217-.755,4,4,0,0,0-.482-.9A4.515,4.515,0,0,0,2732.457,1449.13Z" transform="translate(-2731.271 -1445.433)" fill="url(#linear-gradient-41)"/>
      <path id="Path_3910" data-name="Path 3910" d="M2751.392,1502.8a2.453,2.453,0,0,1-2.2.995c-1.281-.14-1.343-3.03-.5-3.606a1.624,1.624,0,0,1,1.275-.108c.26.085.344.2.772.33.395.121.509.082.625.188.145.133.242.449-.047,1.281a.7.7,0,0,1,.759-.212.44.44,0,0,1,.164.174C2752.406,1502.175,2752.087,1502.582,2751.392,1502.8Z" transform="translate(-2747.18 -1496.929)" fill="url(#linear-gradient-42)"/>
    </g>
    <path id="Path_3911" data-name="Path 3911" d="M2249.793,1880.777c3.582-.807,5.009-.781,6.781-2.208,2.949-2.376,3.392-5.993,5.106-5.949.81.021,1.468.848,1.936,1.658l-1.294,2.027c0-.026-.007-.046-.022-.053-.143-.073-.736.872-1.27,1.652-2.719,3.971-8.446,7.561-13.387,6.552a8.589,8.589,0,0,1-4-1.947A61.144,61.144,0,0,1,2249.793,1880.777Z" transform="translate(-2187.712 -1844.662)" opacity="0.3" fill="url(#linear-gradient-43)" style="mix-blend-mode: multiply;isolation: isolate"/>
    <path id="Path_3912" data-name="Path 3912" d="M2163.6,2057.505a13.806,13.806,0,0,1-3.226-.716c-1.2-.515-1.982.225-1.872.737s2.092,1.225,2.884,1.251S2163.6,2057.505,2163.6,2057.505Z" transform="translate(-2107.35 -2018.311)" fill="url(#linear-gradient-44)"/>
    <path id="Path_3913" data-name="Path 3913" d="M2852.013,1669.2c2.17.193,7.055.282,10.51-2.915,5.752-5.321,2.9-15.449.9-19.8a24.793,24.793,0,0,0-8.169-9.489c-2.755-2.108-4.436-3.394-6.458-3.106-5.231.745-8.854,11.467-5.982,14.536.94,1,1.871.436,4.592,1.3.886.282,7.5,2.389,8.65,7.259.806,3.409-1.246,7.4-4.9,10.082Z" transform="translate(-2752.234 -1619.318)" fill="url(#linear-gradient-45)"/>
    <path id="Path_3914" data-name="Path 3914" d="M2476.354,1839.77c2.457-1.552,2.82-3.126,5.571-4.189,3.574-1.381,5.292.373,7.063-1.043,2.109-1.686.242-4.623,1.82-9.72.268-.865,2.3-7.436,6.97-8.273,2.177-.39,5.052.443,6.159,2.288.867,1.443.059,2.52,1.114,4.113s2.313,1.2,3.656,2.531a7.52,7.52,0,0,1,.534,9.072c-.9,1.173-2.065,1.637-4.26,2.51a20.671,20.671,0,0,1-3.661,1.075c2.688-2.58,4.083-5.908,3.4-8.814-.718-3.036-3.557-5-5.81-6.113a42.467,42.467,0,0,0-4.709,13.785c-.409,3.085-.286,6.143-2.59,8.68-.443.488-1.842,2.027-3.22,1.74-1.642-.342-1.494-2.907-3.675-3.977-.716-.351-.963-.188-4.1-.143a46.421,46.421,0,0,1-6.065-.189c-1.79-.2-4.278-.488-5.021-1.441A13.081,13.081,0,0,0,2476.354,1839.77Z" transform="translate(-2400.899 -1791.65)" opacity="0.3" fill="url(#linear-gradient-46)" style="mix-blend-mode: multiply;isolation: isolate"/>
    <g id="Group_2502" data-name="Group 2502">
      <path id="Path_3915" data-name="Path 3915" d="M2150.465,1988.579l.253-.744a2.2,2.2,0,0,0-1.479-2.822l-47.822-14.568-1.457,4.939,47.58,14.655A2.361,2.361,0,0,0,2150.465,1988.579Z" transform="translate(-2052.111 -1936.988)" fill="url(#linear-gradient-47)"/>
      <path id="Path_3916" data-name="Path 3916" d="M1266.349,1395.491c3.656-14.445,17.984-23.15,32.154-19.07,14.43,4.155,22.691,19.789,18.307,34.527-4.281,14.392-18.963,22.156-32.663,17.716C1270.683,1424.3,1262.776,1409.607,1266.349,1395.491Zm46.3,14.182c3.624-12.334-3.29-25.4-15.34-28.9-11.868-3.453-23.925,3.794-27.036,15.923-3.052,11.9,3.612,24.295,14.98,27.948C1296.789,1428.347,1309.1,1421.764,1312.648,1409.673Z" transform="translate(-1264.565 -1375.413)" fill="url(#linear-gradient-47)"/>
      <path id="Path_3917" data-name="Path 3917" d="M2101.416,1970.446l6.1,1.857a6.335,6.335,0,0,0,2.051,3.738c3.08,2.553,7.192-.231,12.93,2.762,2.879,1.5,2.332,2.458,5.031,3.506,4.462,1.733,6.5-.668,10.453.91,3.994,1.6,4.388,5.043,6.653,4.92.969-.053,2.217-.758,3.607-3.43l1,.3a2.2,2.2,0,0,1,1.479,2.822l-.253.744a2.361,2.361,0,0,1-2.926,1.461l-47.58-14.655Z" transform="translate(-2052.111 -1936.988)" fill="#d8dee8" opacity="0.3" style="mix-blend-mode: multiply;isolation: isolate"/>
      <path id="Path_3918" data-name="Path 3918" d="M1249.876,1417.522c3.656-14.445,17.984-23.15,32.154-19.07,14.43,4.155,22.691,19.789,18.307,34.527-4.281,14.392-18.963,22.156-32.663,17.716C1254.21,1446.331,1246.3,1431.638,1249.876,1417.522Zm46.3,14.182c3.623-12.334-3.29-25.4-15.34-28.9-11.868-3.453-23.925,3.794-27.036,15.923-3.052,11.9,3.612,24.3,14.98,27.948C1280.316,1450.378,1292.623,1443.795,1296.175,1431.7Z" transform="translate(-1249.018 -1396.206)" fill="url(#linear-gradient-49)"/>
      <path id="Path_3919" data-name="Path 3919" d="M1275.2,1444.673c3.465-13.625,16.991-21.812,30.345-17.953,13.585,3.926,21.369,18.648,17.256,32.534-4.021,13.578-17.862,20.927-30.8,16.747C1279.274,1471.89,1271.805,1458.006,1275.2,1444.673Zm44.914,13.758c3.624-12.334-3.29-25.4-15.34-28.9-11.868-3.452-23.925,3.794-27.036,15.923-3.052,11.9,3.612,24.3,14.98,27.948C1304.251,1477.1,1316.558,1470.522,1320.11,1458.431Z" transform="translate(-1272.953 -1422.932)" fill="url(#linear-gradient-50)"/>
    </g>
    <path id="Path_3920" data-name="Path 3920" d="M2938.611,2222.394l-.483-1.2a2.475,2.475,0,0,1-1.436-.416,1.869,1.869,0,0,0-1.161-.278c-.182.051-.869.02-.086.394s.777.651.451.958a5.681,5.681,0,0,1-2.016,1c-.447.032.361.723.812.812a2.782,2.782,0,0,0,2.105-.339C2937.13,2223.125,2938.611,2222.394,2938.611,2222.394Z" transform="translate(-2839.016 -2172.966)" fill="url(#linear-gradient-51)"/>
  </g>
</svg>
