<svg xmlns="http://www.w3.org/2000/svg" xmlns:xlink="http://www.w3.org/1999/xlink" width="437.314" height="463.753" viewBox="0 0 437.314 463.753">
  <defs>
    <linearGradient id="linear-gradient" x1="0.5" x2="0.5" y2="1" gradientUnits="objectBoundingBox">
      <stop offset="0" stop-color="#089c7e"/>
      <stop offset="1" stop-color="#3d8719"/>
    </linearGradient>
  </defs>
  <g id="Group_2566" data-name="Group 2566" transform="translate(5980.152 -1557.442)">
    <g id="shining" transform="translate(-5831.895 1571.681) rotate(45)">
      <path id="SVGCleanerId_0" d="M165.748,63.144a14.612,14.612,0,0,0,2.041-.521c4.731-1.591,7.406-5.457,8.286-10.433a.431.431,0,0,1,.847,0c1.023,5.783,4.427,9.872,10.3,10.962a.43.43,0,0,1,0,.846c-5.817,1.076-9.28,5.157-10.3,10.894a.43.43,0,0,1-.847,0,13.06,13.06,0,0,0-5.97-9.324,13.338,13.338,0,0,0-4.356-1.576.43.43,0,0,1,0-.846Z" transform="translate(-165.395 -50.851)" fill="#f4a32c"/>
      <g id="Group_2565" data-name="Group 2565" transform="translate(0 0.985)">
        <path id="SVGCleanerId_0_1_" d="M165.748,63.144a14.612,14.612,0,0,0,2.041-.521c4.731-1.591,7.406-5.457,8.286-10.433a.431.431,0,0,1,.847,0c1.023,5.783,4.427,9.872,10.3,10.962a.43.43,0,0,1,0,.846c-5.817,1.076-9.28,5.157-10.3,10.894a.43.43,0,0,1-.847,0,13.06,13.06,0,0,0-5.97-9.324,13.338,13.338,0,0,0-4.356-1.576.43.43,0,0,1,0-.846Z" transform="translate(-165.395 -51.836)" fill="#f4a32c"/>
      </g>
      <path id="Path_4102" data-name="Path 4102" d="M174.043,202.507a13.184,13.184,0,0,0,4.5,1.676.431.431,0,0,1,0,.846c-5.817,1.076-9.28,5.157-10.3,10.894a.43.43,0,0,1-.847,0,15.341,15.341,0,0,0-2-5.424A11.882,11.882,0,0,1,174.043,202.507Z" transform="translate(-156.713 -191.883)" fill="#e89528"/>
      <path id="Path_4103" data-name="Path 4103" d="M90.281,346.993a5.108,5.108,0,0,0,3.319-3.526.43.43,0,0,1,.821,0,5.174,5.174,0,0,0,3.32,3.525.431.431,0,0,1,0,.814,5.171,5.171,0,0,0-3.32,3.526.43.43,0,0,1-.822,0,5.272,5.272,0,0,0-2.041-2.893h0c-1.055-.723-1.573-.513-1.572-1.037A.43.43,0,0,1,90.281,346.993Z" transform="translate(-71.032 -323.541)" fill="#f7e7a1"/>
      <path id="Path_4104" data-name="Path 4104" d="M93.3,388.2c.012,0,.023-.01.035-.015a5.079,5.079,0,0,0,1.68.947.431.431,0,0,1,0,.814,5.171,5.171,0,0,0-3.32,3.526.432.432,0,0,1-.411.3c-.606,0-.284-.725-1.293-2.08A5.161,5.161,0,0,1,93.3,388.2Z" transform="translate(-68.302 -365.68)" fill="#ead786"/>
      <path id="Path_4105" data-name="Path 4105" d="M.307,40.271a5.109,5.109,0,0,0,3.32-3.526.43.43,0,0,1,.821,0,5.174,5.174,0,0,0,3.32,3.525.431.431,0,0,1,0,.814,5.171,5.171,0,0,0-3.32,3.526.43.43,0,0,1-.822,0,5.151,5.151,0,0,0-2.041-2.893C.532,40.994.011,41.2.012,40.679A.43.43,0,0,1,.307,40.271Z" transform="translate(24.698 -36.442)" fill="#f4d44e"/>
      <path id="Path_4106" data-name="Path 4106" d="M3.394,83.146c1.186.948,1.84.683,1.84,1.246a.43.43,0,0,1-.291.407,5.171,5.171,0,0,0-3.32,3.526.432.432,0,0,1-.411.3c-.575,0-.3-.673-1.212-1.97A5.2,5.2,0,0,1,3.394,83.146Z" transform="translate(27.522 -80.158)" fill="#e8c842"/>
    </g>
    <g id="shining-2" data-name="shining" transform="translate(-5972.228 1601.706)">
      <path id="SVGCleanerId_0-2" data-name="SVGCleanerId_0" d="M187.216,63.144a14.611,14.611,0,0,1-2.041-.521c-4.731-1.591-7.406-5.457-8.286-10.433a.431.431,0,0,0-.847,0c-1.023,5.783-4.427,9.872-10.3,10.962a.43.43,0,0,0,0,.846c5.817,1.076,9.28,5.157,10.3,10.894a.43.43,0,0,0,.847,0,13.06,13.06,0,0,1,5.97-9.324,13.338,13.338,0,0,1,4.356-1.576.43.43,0,0,0,0-.846Z" transform="translate(-154.813 -14.409)" fill="#f4a32c"/>
      <g id="Group_2565-2" data-name="Group 2565" transform="translate(10.581 37.427)">
        <path id="SVGCleanerId_0_1_2" data-name="SVGCleanerId_0_1_" d="M187.216,63.144a14.611,14.611,0,0,1-2.041-.521c-4.731-1.591-7.406-5.457-8.286-10.433a.431.431,0,0,0-.847,0c-1.023,5.783-4.427,9.872-10.3,10.962a.43.43,0,0,0,0,.846c5.817,1.076,9.28,5.157,10.3,10.894a.43.43,0,0,0,.847,0,13.06,13.06,0,0,1,5.97-9.324,13.338,13.338,0,0,1,4.356-1.576.43.43,0,0,0,0-.846Z" transform="translate(-165.395 -51.836)" fill="#f4a32c"/>
      </g>
      <path id="Path_4102-2" data-name="Path 4102" d="M170.24,202.507a13.185,13.185,0,0,1-4.5,1.676.431.431,0,0,0,0,.846c5.817,1.076,9.28,5.157,10.3,10.894a.43.43,0,0,0,.847,0,15.342,15.342,0,0,1,2-5.424A11.882,11.882,0,0,0,170.24,202.507Z" transform="translate(-154.813 -155.441)" fill="#e89528"/>
      <path id="Path_4103-2" data-name="Path 4103" d="M97.736,346.993a5.108,5.108,0,0,1-3.319-3.526.43.43,0,0,0-.821,0,5.174,5.174,0,0,1-3.32,3.525.431.431,0,0,0,0,.814,5.171,5.171,0,0,1,3.32,3.526.43.43,0,0,0,.822,0,5.272,5.272,0,0,1,2.041-2.893h0c1.055-.723,1.573-.513,1.572-1.037A.43.43,0,0,0,97.736,346.993Z" transform="translate(-84.229 -287.099)" fill="#f7e7a1"/>
      <path id="Path_4104-2" data-name="Path 4104" d="M91.992,388.2c-.012,0-.023-.01-.035-.015a5.079,5.079,0,0,1-1.68.947.431.431,0,0,0,0,.814,5.171,5.171,0,0,1,3.32,3.526.432.432,0,0,0,.411.3c.606,0,.284-.725,1.293-2.08A5.162,5.162,0,0,0,91.992,388.2Z" transform="translate(-84.23 -329.238)" fill="#ead786"/>
      <path id="Path_4105-2" data-name="Path 4105" d="M7.762,40.271a5.109,5.109,0,0,1-3.32-3.526.43.43,0,0,0-.821,0A5.174,5.174,0,0,1,.3,40.269a.431.431,0,0,0,0,.814,5.171,5.171,0,0,1,3.32,3.526.43.43,0,0,0,.822,0,5.151,5.151,0,0,1,2.041-2.893c1.052-.721,1.573-.516,1.572-1.037A.43.43,0,0,0,7.762,40.271Z" transform="translate(-0.011)" fill="#f4d44e"/>
      <path id="Path_4106-2" data-name="Path 4106" d="M1.84,83.146C.654,84.094,0,83.829,0,84.392a.43.43,0,0,0,.291.407,5.171,5.171,0,0,1,3.32,3.526.432.432,0,0,0,.411.3c.575,0,.3-.673,1.212-1.97A5.2,5.2,0,0,0,1.84,83.146Z" transform="translate(0 -43.716)" fill="#e8c842"/>
    </g>
    <g id="Group_2564" data-name="Group 2564" transform="translate(-5990.497 1556.005)">
      <g id="Group_2552" data-name="Group 2552">
        <g id="Group_2551" data-name="Group 2551">
          <ellipse id="Ellipse_74" data-name="Ellipse 74" cx="197.466" cy="34.934" rx="197.466" ry="34.934" transform="translate(52.727 395.323)" fill="#d0eae7"/>
        </g>
      </g>
      <g id="Group_2553" data-name="Group 2553">
        <path id="Path_4028" data-name="Path 4028" d="M394.142,214.013c-1.4,1.982-3.6,3.206-5.747,4.312a168.959,168.959,0,0,1-54.747,17.308,370.661,370.661,0,0,0-47.73-33.413c-4.716-2.767-9.534-5.476-13.537-9.2s-7.157-8.659-7.576-14.114c-.233-3.048.621-6.481,3.208-8.1,2.7-1.7,6.224-.869,9.224.194a75.423,75.423,0,0,1,27.268,17.046c-2.791-15.583-5.316-31.864-.807-47.039.7-2.335,1.977-4.987,4.387-5.312,1.661-.225,3.229.781,4.488,1.875,5.475,4.743,8.437,11.769,10.147,18.8a72.635,72.635,0,0,1,1.3,27.55,317.142,317.142,0,0,1,27.73-42.2c2.94-3.792,6.225-7.686,10.769-9.215a4.189,4.189,0,0,1,2.75-.17c1.865.692,2.18,3.163,2.1,5.151-.8,19.706-10.081,38.193-21.883,53.986A235.779,235.779,0,0,1,381.392,164.4c4.725-2.9,10.1-5.725,15.536-4.665,1.566,3.071-.076,6.759-1.886,9.694-10.656,17.232-27.689,29.759-46.025,38.4,13.505-2.616,27.441-5.122,40.926-2.435a7.655,7.655,0,0,1,4.264,1.913C395.846,209.089,395.534,212.037,394.142,214.013Z" fill="#5b61ab"/>
        <path id="Path_4029" data-name="Path 4029" d="M379,214.336a3.126,3.126,0,0,0-2.28-2.025,22.74,22.74,0,0,0-4.1-.794,80.648,80.648,0,0,0-16.8-.2c-5.98.425-11.949,1.1-17.946,1.205,10.023-7.548,21.185-13.609,30.39-22.214q1.737-1.623,3.361-3.36A12.346,12.346,0,0,0,374.2,183.7a1.809,1.809,0,0,0-.913-2.561c-1.215-.431-2.763.189-3.937.524-6.009,1.71-11.523,4.777-16.9,7.881q-9.124,5.263-17.814,11.234c2.192-4.679,4.381-9.36,6.525-14.061q1.725-3.781,3.4-7.583a50.66,50.66,0,0,0,2.715-7.055,15.853,15.853,0,0,0,.637-3.651c.029-.949-.25-2.071-1.3-2.331a2.824,2.824,0,0,0-2.307.8c-1.063.836-2.078,1.742-3.072,2.658a90.126,90.126,0,0,0-11.063,12.5c-3.5,4.686-6.672,9.6-9.819,14.522-.449-8.07-1.018-16.452-4.346-23.91a4.043,4.043,0,0,0-1.536-1.974,1.917,1.917,0,0,0-2.16.192,4.671,4.671,0,0,0-1.321,2.3q-.456,1.438-.786,2.914a46.312,46.312,0,0,0-.907,12.015,123,123,0,0,0,1.361,12.709c-6.357-5.4-13.122-10.889-21.271-13.181a29.13,29.13,0,0,0-3.1-.7,9.821,9.821,0,0,0-3.119-.159,3.1,3.1,0,0,0-2.291,1.37,3.2,3.2,0,0,0-.126,2.638,12.7,12.7,0,0,0,4.066,5.375,52.884,52.884,0,0,0,6.147,4.3c4.955,3.129,10.1,5.937,15.246,8.741.487.266.822-.531.337-.795-4.3-2.346-8.608-4.69-12.8-7.232-2.078-1.261-4.143-2.555-6.132-3.952a19.481,19.481,0,0,1-4.9-4.547,6.634,6.634,0,0,1-1.315-2.857,1.885,1.885,0,0,1,1.614-2.133,7.883,7.883,0,0,1,2.971.083,27.63,27.63,0,0,1,2.917.629,38.8,38.8,0,0,1,11.037,5.231,114.373,114.373,0,0,1,11.037,8.6.436.436,0,0,0,.7-.388c-1.107-7.538-2.23-15.255-1.124-22.861a33.747,33.747,0,0,1,1.288-5.626c.238-.73.617-1.823,1.465-2.02.936-.217,1.547.88,1.867,1.581a44,44,0,0,1,3.179,11.462,136.469,136.469,0,0,1,1.216,13.6.436.436,0,0,0,.768.219c5.664-8.872,11.4-17.834,18.786-25.4a51.284,51.284,0,0,1,5.858-5.334,2.418,2.418,0,0,1,1.131-.55c.679-.068.908.589.943,1.154a11.692,11.692,0,0,1-.51,3.433,43.1,43.1,0,0,1-2.517,6.707q-1.609,3.658-3.266,7.295c-2.485,5.466-5.032,10.9-7.579,16.34a.435.435,0,0,0,.653.517q7.927-5.5,16.227-10.428a104.11,104.11,0,0,1,16.114-8.31,43.171,43.171,0,0,1,4.237-1.364c.791-.208,3.344-1.014,3.132.635a2.93,2.93,0,0,1-.667,1.335c-.468.6-1,1.169-1.512,1.734q-1.59,1.746-3.311,3.369a117.039,117.039,0,0,1-14.514,11.3c-5.775,3.948-11.683,7.711-17.228,11.984a.435.435,0,0,0,.3.777c10.872-.025,21.692-2.207,32.573-1.383,1.34.1,2.677.25,4.006.454a14.1,14.1,0,0,1,3.735.849,2.109,2.109,0,0,1,1.181,1.043c.23.648-.292,1.211-.706,1.645a13.95,13.95,0,0,1-3.786,2.681,85.753,85.753,0,0,1-8.424,3.537q-4.283,1.641-8.643,3.068a184.315,184.315,0,0,1-20.118,5.342c-.541.111-.445.97.1.858a186.554,186.554,0,0,0,18.624-4.846q4.609-1.458,9.139-3.158c3-1.125,6.032-2.269,8.928-3.648a17.926,17.926,0,0,0,3.922-2.416C378.032,216.682,379.258,215.636,379,214.336Z" fill="#39438e"/>
      </g>
      <g id="Group_2554" data-name="Group 2554">
        <path id="Path_4030" data-name="Path 4030" d="M356.1,434.826q-3.582.417-7.166.843-11.739-29-23.46-57.988c5.489-1.085,10.935-2.38,16.286-3.952A598.056,598.056,0,0,0,356.1,434.826Z" fill="#ff6227"/>
        <path id="Path_4031" data-name="Path 4031" d="M272.26,383.536q.508,14.409.087,28.828c-1.859.113-3.726.183-5.585.209q0-14.358-.877-28.707C268.013,383.77,270.132,383.657,272.26,383.536Z" fill="#ff6227"/>
        <path id="Path_4032" data-name="Path 4032" d="M188.475,383.258q5.25.339,10.5.582-14.019,33.966-24.677,69.2c-1.242-.1-2.484-.191-3.726-.295Q178.521,417.75,188.475,383.258Z" fill="#ff6227"/>
        <path id="Path_4033" data-name="Path 4033" d="M149.431,374.685c1.833.8,3.666,1.58,5.516,2.345q-10.071,23.778-22.453,46.47c-.886-.017-1.781-.044-2.667-.087Q139.182,398.867,149.431,374.685Z" fill="#ff6227"/>
        <path id="Path_4034" data-name="Path 4034" d="M348.931,435.669c-1.216.139-2.44.278-3.656.426q-12.809-28.782-26.319-57.232,3.27-.548,6.515-1.182Q337.21,406.671,348.931,435.669Z" fill="#fbaa1f"/>
        <path id="Path_4035" data-name="Path 4035" d="M265.885,383.866q.885,14.331.877,28.707c-1.685.017-3.362,0-5.047-.044q-3.479-14.019-6.062-28.246Q260.773,384.114,265.885,383.866Z" fill="#fbaa1f"/>
        <path id="Path_4036" data-name="Path 4036" d="M188.475,383.258q-9.954,34.475-17.9,69.488c-2.666-.209-5.333-.426-8-.634q4.6-35.141,11.4-69.931Q181.214,382.806,188.475,383.258Z" fill="#fbaa1f"/>
        <path id="Path_4037" data-name="Path 4037" d="M134.24,367.232c4.916,2.736,10.015,5.177,15.191,7.453q-10.253,24.182-19.6,48.728c-2.449-.078-4.89-.2-7.331-.347Q128.79,395.248,134.24,367.232Z" fill="#fbaa1f"/>
        <path id="Path_4038" data-name="Path 4038" d="M154.947,377.03c-1.85-.765-3.683-1.546-5.516-2.345-5.176-2.276-10.275-4.717-15.191-7.453a111.079,111.079,0,0,1-12.248-7.852q-8.923-42.5-17.849-84.993c-2.224-10.588-4.465-21.376-3.37-32.138a65.934,65.934,0,0,1,7.687-23.964c4.2-7.957,9.78-15.375,17.233-20.4,8.607-5.811,19.074-8.052,29.306-9.85a493.351,493.351,0,0,1,52.481-6.34c12.708-.852,25.693-1.182,37.94,2.327,14.08,4.048,26.241,12.908,39.635,18.849C306.761,212.508,331,214.22,354.786,215.4l-.018.373a10.918,10.918,0,0,0-2.05.087c-3.8.547-6.931,3.266-9.406,6.2-5.777,6.871-9.155,15.426-11.718,24.025-4.673,15.7-6.888,31.9-8.712,48.208-11.309-5.325-23.713-8.356-36.168-9.85-16.33-1.972-32.842-1.416-49.276-.756-17.8.7-35.769,1.555-53.106,5.455-.53-2.467-1.051-4.925-1.581-7.392-3.353-15.695-6.984-32.008-16.946-44.594-5.516-6.966-14.306-12.82-22.862-10.4-5.75,1.624-10.006,6.767-12,12.4s-2.067,11.761-1.824,17.737c1.676,42.848,17.424,83.741,33.849,123.393C160.289,379.227,157.6,378.15,154.947,377.03Z" fill="#658aee"/>
        <path id="Path_4039" data-name="Path 4039" d="M322.882,294.3c-1.546,13.776-2.814,27.613-5.046,41.267l.017.174Q257,341.209,195.91,343.4q-5.8-27.128-11.578-54.253c17.337-3.9,35.308-4.751,53.106-5.455,16.434-.66,32.946-1.216,49.276.756C299.169,285.94,311.573,288.971,322.882,294.3Z" fill="#2347aa"/>
      </g>
      <g id="Group_2560" data-name="Group 2560">
        <path id="Path_4040" data-name="Path 4040" d="M167.572,141.284a32.838,32.838,0,0,1-7.825,14.7,52.284,52.284,0,0,1-13.283,10.376,62.048,62.048,0,0,1-15.683,6.168,17.713,17.713,0,0,1,3.051,2.4,18.2,18.2,0,0,1,4.953,8.9,17.883,17.883,0,0,1-.966,10.517,15.735,15.735,0,0,1-7,8.129c-3.6,1.83-7.774.718-11.078-1.218a19.586,19.586,0,0,1-7.17-7.266,25.826,25.826,0,0,1-1.965-4.841,15.808,15.808,0,0,0-2.047-4.706,8.61,8.61,0,0,0-4.725-2.877A20.2,20.2,0,0,1,99,179.55a10.327,10.327,0,0,1-5.161-8.1c-.191-3.422,1.3-6.662,2.522-9.767a29.123,29.123,0,0,0,1.628-5.123,13.884,13.884,0,0,0-.056-5.077,11.167,11.167,0,0,1-4.894,6.916,9.109,9.109,0,0,1-9.241.129c-2.77-1.737-3.965-5.031-4.029-8.18a28.412,28.412,0,0,1,.722-5.241,4.789,4.789,0,0,0-.272-2.977,7.955,7.955,0,0,0-1.729-2.081,12.879,12.879,0,0,1-3.142-4.1,12.583,12.583,0,0,1-1.051-5.34,23.607,23.607,0,0,1,3.445-11.088c3.709-6.5,9.925-11.5,17.391-12.829,3.494-.625,7.6-.581,10.617,1.527,2.571,1.791,3.766,4.859,4.283,7.854a36.355,36.355,0,0,1,4.1-2.68,39.107,39.107,0,0,1,22.281-4.821,40.342,40.342,0,0,1,21.886,8.638c.073.054.136.117.209.172a20.424,20.424,0,0,1,7.269,7.9A23.708,23.708,0,0,1,167.572,141.284Z"/>
        <path id="Path_4041" data-name="Path 4041" d="M283.243,163.906l.208.027a149.726,149.726,0,0,1-3.353,17.016,5.883,5.883,0,0,0-1.711-.742,1.322,1.322,0,0,0-.9.019,1.378,1.378,0,0,0-.552,1.185,8.065,8.065,0,0,0,.526,3.367,3.048,3.048,0,0,0-2.8,2.906,4.054,4.054,0,0,0,2.2,3.6l.254,1.041a57,57,0,0,0-15.339,6.584l-.036-.072.814-3.069,1.3-4.942q3.118-11.784,6.229-23.569Q276.6,165.315,283.243,163.906Z" fill="#242c5b"/>
        <path id="Path_4042" data-name="Path 4042" d="M261.775,198.91a57,57,0,0,1,15.339-6.584l.344-.081a2.455,2.455,0,0,1,2.145.216,1.592,1.592,0,0,1,.362.489,2.329,2.329,0,0,1,.163,1.086c-.1,1.864-1.474,3.376-2.777,4.707q-1.764,1.819-3.519,3.621a2.738,2.738,0,0,1,3.032,1.556,4.442,4.442,0,0,1-.117,3.593,12.662,12.662,0,0,1-2.1,3.032,3.163,3.163,0,0,1,2.047,4.064,25.226,25.226,0,0,1-1.746,2.561c-.814,1.412-.732,3.186-1.483,4.635a8.363,8.363,0,0,1-3.013,2.878,64.627,64.627,0,0,1-12.479,6.393c-.742,1.132-1.484,2.272-2.216,3.413q-7.545,11.61-14.864,23.345-4.957-8.66-10.331-17.1-.177-.285-.38-.57a122.486,122.486,0,0,0,7.96-14.791q1.885-4.169,3.446-8.472c.045-.118.081-.236.126-.353,1.239-3.431,2.379-6.943,4.469-9.912a25.14,25.14,0,0,1,8.415-7.188c2.488-1.4,5.149-2.59,7.746-3.731l.208.054-.814,3.069Z" fill="#febd46"/>
        <path id="Path_4043" data-name="Path 4043" d="M280.1,180.949A6.289,6.289,0,0,1,283,185.926c.082,2.606-1.474,4.924-3.039,7.024a1.592,1.592,0,0,0-.362-.489,2.455,2.455,0,0,0-2.145-.216l-.344.081-.254-1.041a4.054,4.054,0,0,1-2.2-3.6,3.048,3.048,0,0,1,2.8-2.906,8.065,8.065,0,0,1-.526-3.367,1.378,1.378,0,0,1,.552-1.185,1.322,1.322,0,0,1,.9-.019A5.883,5.883,0,0,1,280.1,180.949Z" fill="#febd46"/>
        <path id="Path_4044" data-name="Path 4044" d="M263.855,190.827l-1.3,4.942-.208-.054c-2.6,1.141-5.258,2.327-7.746,3.731,1.5-2.978,3-5.938,4.513-8.907a9.317,9.317,0,0,1,1.339-2.136,2,2,0,0,1,.869-.607,1.71,1.71,0,0,1,1.837.878,5.118,5.118,0,0,1,.544,2.108Z" fill="#febd46"/>
        <path id="Path_4045" data-name="Path 4045" d="M176.2,197.259a6.433,6.433,0,0,1-2.37,5.1,12.448,12.448,0,0,1-5.439,2.481c-4.353.97-8.878.7-13.313.248-7.485-.749-15.25-2.122-21.288-6.6a17.913,17.913,0,0,0,3.952-11.051,18.266,18.266,0,0,0-10.014-15.963,13.381,13.381,0,0,1-7.106-3.075,10.382,10.382,0,0,1-3.631-8.217,6.1,6.1,0,0,1,.85-2.941,5.166,5.166,0,0,1,3.936-2.327,6.1,6.1,0,0,1,4.39,1.483l.027.307a5.782,5.782,0,0,0,1.783-1.439,30.476,30.476,0,0,0,7.86-15.768,24.981,24.981,0,0,0-3.208-16.86c9.783.413,20.1,1.578,27.932,7.441a30.93,30.93,0,0,1,7.894,8.958,42.835,42.835,0,0,1,3.985,8.949,44.918,44.918,0,0,1,1.463,22.391,16.857,16.857,0,0,1-2.551,6.553,13.189,13.189,0,0,1-6.569,4.6c.86,1.593,1.775,3.14,2.744,4.661,1.331,2.072,2.761,4.081,4.282,6.008,1.331,1.692,2.743,3.321,4.219,4.877C176.085,197.132,176.149,197.2,176.2,197.259Z" fill="#febd46"/>
        <path id="Path_4046" data-name="Path 4046" d="M171.812,192.192c1.331,1.692,2.743,3.321,4.219,4.877a122.388,122.388,0,0,1-25.815-10.826,43.667,43.667,0,0,1-9.677-6.921,35.279,35.279,0,0,0,18.6,3.389,23.241,23.241,0,0,0,5.647-1.188c.86,1.593,1.775,3.14,2.744,4.661C168.861,188.256,170.291,190.265,171.812,192.192Z" fill="#f47621"/>
        <g id="Group_2555" data-name="Group 2555">
          <path id="Path_4047" data-name="Path 4047" d="M243.6,264.866c-.823.679-2.109-.271-3.1.118a4.768,4.768,0,0,1,.9,3.3,1.989,1.989,0,0,1-2.76,1.567c-.779-.326-1.548-.688-2.3-1.076a135.532,135.532,0,0,1-6.375,23.261,10.207,10.207,0,0,1-1.384,2.779,3.727,3.727,0,0,1-.343.407,3.2,3.2,0,0,1-3.294.988,16.829,16.829,0,0,0-1.956-.968c-1.828-.4-3.112,1.937-4.931,2.345a3.477,3.477,0,0,1-3.494-1.773,9.388,9.388,0,0,1-1.1-3.611,6.941,6.941,0,0,1-2.108.87c-2.326.507-4.7-.37-6.915-1.229-22.113-8.592-44.777-17.519-62.3-33.515-7.1-6.478-13.354-14.278-16.089-23.491-3-10.1-1.518-21.015,1.24-31.2a17.846,17.846,0,0,0,6.5-5.161c6.038,4.479,13.8,5.852,21.288,6.6,4.435.452,8.96.722,13.313-.248a12.448,12.448,0,0,0,5.439-2.481,6.433,6.433,0,0,0,2.37-5.1.407.407,0,0,0-.009-.145,1.1,1.1,0,0,1-.163-.045c-1.476-1.556-2.888-3.185-4.219-4.877-1.521-1.927-2.951-3.936-4.282-6.008A40.049,40.049,0,0,1,205.518,200.3c4.861,1.637,9.7,3.681,13.37,7.255,3.213,3.139,5.251,7.185,6.845,11.429,5.358-.572,10.7-1.388,15.982-2.439-.045.117-.081.235-.126.353q-1.56,4.3-3.446,8.472a122.486,122.486,0,0,1-7.96,14.791q.2.285.38.57,5.364,8.429,10.331,17.1,1.3,2.266,2.581,4.561C243.909,263.182,244.3,264.3,243.6,264.866Z" fill="#ff6227"/>
          <path id="Path_4048" data-name="Path 4048" d="M235.031,268.98a5.572,5.572,0,0,0-.945,2.517,6.286,6.286,0,0,1-.858,2.806,3.21,3.21,0,0,1-5.191-.094.459.459,0,0,0-.778.069,107.15,107.15,0,0,1-12.477,16.042c-.4.424.295,1,.693.581a108.111,108.111,0,0,0,12.24-15.7,4.093,4.093,0,0,0,5.429.455A4.479,4.479,0,0,0,234.737,273c.263-1.155.245-2.459.987-3.443C236.074,269.1,235.383,268.514,235.031,268.98Z" fill="#febd46"/>
          <path id="Path_4049" data-name="Path 4049" d="M229.221,239.941c-1.9-.815-3.245-2.984-5.579-2.129-2.106.771-2.8,2.926-3.152,4.957a2.717,2.717,0,0,0-2.184-.277,5.133,5.133,0,0,0-3,2.67,10.422,10.422,0,0,1-1.36,1.918,5.933,5.933,0,0,1-2.36,1.292c-1.927.67-3.865,1.309-5.8,1.962l-1.493.506a5.3,5.3,0,0,1-1.564.439,1.992,1.992,0,0,1-1.239-.625c-.4-.329-.783-.667-1.169-1.006-1.417-1.24-2.793-2.527-4.14-3.843-2.722-2.66-5.321-5.442-7.9-8.235-4.97-5.374-9.9-10.816-15.534-15.519a53.916,53.916,0,0,0-17.824-10.339,25.773,25.773,0,0,0-11.24-1.341,20.341,20.341,0,0,0-9.559,4.272c-.715.547-1.406,1.125-2.081,1.72-.432.382.086,1.125.523.739a23.831,23.831,0,0,1,8.889-5.345,21.353,21.353,0,0,1,11.3.259c6.678,1.743,12.728,5.364,18.082,9.643a141.521,141.521,0,0,1,15.255,14.864c2.49,2.7,4.973,5.4,7.547,8.016,1.3,1.318,2.617,2.614,3.97,3.874q1.016.945,2.057,1.861a12.423,12.423,0,0,0,2.036,1.644,2.784,2.784,0,0,0,2.378-.05l2.88-.974c1.851-.626,3.746-1.184,5.564-1.9a6.659,6.659,0,0,0,3.332-3c.742-1.2,1.5-2.517,3.047-2.693a1.386,1.386,0,0,1,1.473.6c.187.358.8.414.869-.077.267-1.933.668-4.56,2.868-5.213,1.835-.545,3.2,1.5,4.723,2.15C229.369,240.989,229.757,240.171,229.221,239.941Z" fill="#febd46"/>
          <path id="Path_4050" data-name="Path 4050" d="M203.781,199.915a127.693,127.693,0,0,0-24.291-3.52c-.574-.027-.743.863-.163.891a127.691,127.691,0,0,1,24.291,3.519C204.185,200.944,204.345,200.053,203.781,199.915Z" fill="#febd46"/>
          <path id="Path_4051" data-name="Path 4051" d="M235.942,228.611a2.145,2.145,0,0,0-3.1-1.344,3.853,3.853,0,0,0-.6-1.662,1.788,1.788,0,0,0-1.709-.6,3.145,3.145,0,0,0-1.745,1.076c-.359.386-.7.792-1.035,1.2a46.281,46.281,0,0,0-.938-6.489c-.123-.561-1.026-.489-.9.079a46.222,46.222,0,0,1,1.018,7.61.458.458,0,0,0,.8.251l1.3-1.542a3.892,3.892,0,0,1,1.325-1.2.948.948,0,0,1,1.313.4,9.11,9.11,0,0,1,.457,1.8c.081.354.568.355.771.133a1.274,1.274,0,0,1,2.2.6C235.238,229.49,236.086,229.171,235.942,228.611Z" fill="#febd46"/>
        </g>
        <g id="Group_2556" data-name="Group 2556">
          <path id="Path_4052" data-name="Path 4052" d="M311.586,287.591l-.19.253c-7.51,5.858-16.768,9.137-26.153,10.787s-18.951,1.733-28.481,1.808c-9.729.076-20.255-.139-28.176-5.621a10.207,10.207,0,0,0,1.384-2.779,135.517,135.517,0,0,0,6.375-23.262c.751.389,1.52.751,2.3,1.077a1.989,1.989,0,0,0,2.76-1.567,4.768,4.768,0,0,0-.9-3.3c.986-.389,2.272.561,3.1-.118.7-.571.307-1.684-.127-2.471q-1.278-2.293-2.581-4.561,7.328-11.745,14.864-23.345l16.271-3.616a3.955,3.955,0,0,0,1.72-.679c.705-.6.9-1.593,1.357-2.408a3.979,3.979,0,0,1,5.411-1.3c-.018-2.761.361-6.2,3.429-6.78a4.5,4.5,0,0,1,3.946,1.275,3.855,3.855,0,0,1,.516.561c6.483,8.469,8.087,19.339,12.163,29.067,4.238,10.117,11.092,18.894,16.317,28.54.407.752.8,1.5,1.186,2.263a4.493,4.493,0,0,1,.688,2.923c-.226.995-1.492,1.774-2.307,1.15l.009.045a2.635,2.635,0,0,1-4.154,2.608C312.066,287.962,311.822,287.781,311.586,287.591Z" fill="#3b3c4b"/>
          <path id="Path_4053" data-name="Path 4053" d="M315.489,279.238a3.384,3.384,0,0,1-4.359,1.593,8.428,8.428,0,0,0-2.564-1.01,3.276,3.276,0,0,0-2.3.746c-1.472,1.154-1.953,2.944-2.935,4.452a4.326,4.326,0,0,1-4.974,1.7c-1.673-.409-3.236-1.83-5.035-1.175-1.462.532-2.3,2.04-3.173,3.223a6.638,6.638,0,0,1-4.052,2.689,6.493,6.493,0,0,1-4.847-.876,8.075,8.075,0,0,0-2.424-1.3,4.015,4.015,0,0,0-2.685.387c-1.732.853-2.846,2.449-4.363,3.584a4.052,4.052,0,0,1-2.627.968,4.369,4.369,0,0,1-2.1-.823,18.419,18.419,0,0,0-3.7-2.426c-3.169-1.142-5.182,1.874-7.571,3.312-2.837,1.71-5.3-.634-7.544-2.2a7.873,7.873,0,0,0-3.614-1.616,5.988,5.988,0,0,0-3.98,1.308c-1.181.816-2.35,1.969-3.8,2.277a3.182,3.182,0,0,1-3.517-2.229,6.82,6.82,0,0,1-.5-2.307c-.029-.582-.93-.5-.9.079a6.593,6.593,0,0,0,1.7,4.324,3.753,3.753,0,0,0,4.039.826c2.728-1.019,4.761-4.378,8.013-3.086,2.621,1.042,4.5,3.766,7.41,4.131a5.534,5.534,0,0,0,4.029-1.327c1.184-.894,2.257-2.1,3.671-2.63,3.2-1.207,5.188,3.025,8.186,3.279,1.885.16,3.407-1.088,4.682-2.318,1.386-1.337,3.261-3.366,5.4-2.482.891.367,1.607,1.058,2.469,1.483a6.936,6.936,0,0,0,2.341.668,7.789,7.789,0,0,0,4.761-1.036c1.493-.885,2.3-2.316,3.342-3.637a3.8,3.8,0,0,1,1.782-1.434c1.031-.3,1.989.331,2.894.734A6.669,6.669,0,0,0,302,287.4c1.734-.786,2.451-2.522,3.278-4.109a5.448,5.448,0,0,1,1.852-2.221,2.655,2.655,0,0,1,2.782.169,5.5,5.5,0,0,0,2.547.79,4.42,4.42,0,0,0,2.271-.659,4.157,4.157,0,0,0,1.575-1.743A.453.453,0,0,0,315.489,279.238Z" fill="#39438e"/>
          <path id="Path_4054" data-name="Path 4054" d="M310.64,270.574c-.078,1.748-2.333,1.942-3.6,1.669-1.548-.336-3-1.1-4.617-1.037-3.047.115-3.736,3.3-5.711,4.976a6.215,6.215,0,0,1-3.809,1.448,10.1,10.1,0,0,1-4.339-1.29,5.74,5.74,0,0,0-3.971-.525,9.068,9.068,0,0,0-3.341,2.334c-2.241,2.071-5.239,4.069-8.418,3.084-2.576-.8-4.8-2.862-7.673-2.194-2.345.545-4.015,2.469-5.963,3.742a5.6,5.6,0,0,1-3.5,1.073,10.238,10.238,0,0,1-4.353-1.8,12.938,12.938,0,0,0-4.928-2.171,5.56,5.56,0,0,0-4.367,1.431c-1.241,1.024-2.541,2.562-4.295,2.566s-2.521-1.858-2.838-3.3c-.123-.561-1.026-.489-.9.079a5.917,5.917,0,0,0,1.739,3.4,3.544,3.544,0,0,0,3.959.193c1.385-.708,2.36-1.942,3.643-2.792a4.9,4.9,0,0,1,4.833-.127c2.878,1.244,5.517,4.016,8.916,3.328,2.473-.5,4.2-2.511,6.236-3.83a5.291,5.291,0,0,1,3.58-1,14.627,14.627,0,0,1,4.106,1.638,7.922,7.922,0,0,0,4.255.892,9.725,9.725,0,0,0,4.274-1.706c1.352-.906,2.432-2.1,3.71-3.1a4.521,4.521,0,0,1,2.031-.993,4.625,4.625,0,0,1,2.37.373,17.487,17.487,0,0,0,4.266,1.54,7.111,7.111,0,0,0,4.079-.76,8.1,8.1,0,0,0,2.917-2.806c.759-1.112,1.572-2.463,3-2.752,1.722-.35,3.4.648,5.047.984a4.045,4.045,0,0,0,3.889-.98,2.55,2.55,0,0,0,.671-1.68C311.567,269.914,310.665,270,310.64,270.574Z" fill="#39438e"/>
          <path id="Path_4055" data-name="Path 4055" d="M304.2,258.8a5.815,5.815,0,0,1-5.21,3.71c-1.329.049-2.408-.649-3.681-.851a3.948,3.948,0,0,0-3.283,1.2,36.363,36.363,0,0,1-2.748,2.563,6.429,6.429,0,0,1-3.748,1.389,15.22,15.22,0,0,1-3.9-1.051,4.7,4.7,0,0,0-3.322.18c-1.89.9-3.006,2.8-4.786,3.854-2.7,1.6-5.576-.6-8.1-1.507a6.715,6.715,0,0,0-4-.391c-1.374.369-2.332,1.442-3.394,2.315a7.232,7.232,0,0,1-3.5,1.824,5.328,5.328,0,0,1-3.468-1.112,7.731,7.731,0,0,0-3.432-1.467A5.72,5.72,0,0,0,243.779,271c-1.122.9-2.186,2.048-3.62,2.429-1.161.309-2.821-.266-2.853-1.649-.013-.582-.915-.5-.9.08a2.629,2.629,0,0,0,1.793,2.316,3.9,3.9,0,0,0,3.308-.324c2.289-1.22,4.25-4.444,7.205-3.216,1.1.456,2.031,1.22,3.092,1.746a4.917,4.917,0,0,0,3.621.378,9.5,9.5,0,0,0,3.414-2.057c1.186-1.011,2.247-2.09,3.918-2.074,3.1.029,5.539,2.592,8.656,2.63,2.505.031,4.005-1.884,5.71-3.4a4.646,4.646,0,0,1,2.941-1.425c1.386-.022,2.67.717,3.981,1.066,2.693.717,5.211-.646,7.1-2.485,1.04-1.01,2.168-2.635,3.808-2.489a12.411,12.411,0,0,1,2.262.673,5.931,5.931,0,0,0,1.93.212,6.7,6.7,0,0,0,5.873-4.222C305.221,258.644,304.4,258.255,304.2,258.8Z" fill="#39438e"/>
          <path id="Path_4056" data-name="Path 4056" d="M299.932,251.715c-1.9-1.266-4.285-2.7-6.621-1.722-2.1.88-3.026,3.091-4.688,4.492a3.311,3.311,0,0,1-3,.889,9.4,9.4,0,0,1-2.483-1.336,5.658,5.658,0,0,0-2.458-1.009,3.961,3.961,0,0,0-2.842,1.049c-1.62,1.33-2.86,3.236-4.792,4.158-2.489,1.186-4.817-.4-6.972-1.546a6.5,6.5,0,0,0-3.3-.934,4.966,4.966,0,0,0-2.436.851c-1.5.964-2.609,2.445-4.157,3.349-2.64,1.541-5.105-.568-7.526-1.512-1.972-.769-4.87-.731-5.761,1.61-.206.542.611.932.819.387a2.64,2.64,0,0,1,2.352-1.575,6.315,6.315,0,0,1,3.265.873c2,.983,4.134,2.253,6.418,1.419,1.639-.6,2.814-1.974,4.117-3.066a6.381,6.381,0,0,1,2.09-1.275,4.325,4.325,0,0,1,3.213.428c2.109,1.007,4.122,2.6,6.606,2.3,2-.244,3.488-1.671,4.839-3.039a12.436,12.436,0,0,1,2.5-2.22,2.747,2.747,0,0,1,2.75.055c1.581.8,3.015,2.272,4.935,2.012,2.44-.33,3.677-2.718,5.222-4.325a5.831,5.831,0,0,1,.772-.677.455.455,0,0,0,.1.02.368.368,0,0,0,.387-.326,3.5,3.5,0,0,1,2.2-.432,9.593,9.593,0,0,1,3.88,1.8C299.831,252.728,300.417,252.038,299.932,251.715Z" fill="#39438e"/>
          <path id="Path_4057" data-name="Path 4057" d="M293.1,231.981a7.646,7.646,0,0,0-3.91-2.206A3.921,3.921,0,0,0,286,231.011a29.417,29.417,0,0,1-2.4,2.493c-1.177.883-2.435.578-3.69.027a7.23,7.23,0,0,0-4.05-.978,8.684,8.684,0,0,0-4.078,2.25,9.546,9.546,0,0,1-3.97,2.467,10.439,10.439,0,0,1-5.116-.7c-2.675-.817-6.3-1.627-8.345.915-.365.454.327,1.037.693.582,1.785-2.221,5.086-1.34,7.389-.637a13.263,13.263,0,0,0,4.726.843,7.173,7.173,0,0,0,3.937-1.72,18.792,18.792,0,0,1,3.709-2.735,4.671,4.671,0,0,1,4.091.252,6.3,6.3,0,0,0,3.713.869,4.9,4.9,0,0,0,2.584-1.7c.8-.881,1.565-2.036,2.741-2.446,1.723-.6,3.386.829,4.583,1.883C292.958,233.06,293.539,232.366,293.1,231.981Z" fill="#39438e"/>
          <path id="Path_4058" data-name="Path 4058" d="M295.4,241.962c-1.739-.467-3.2-1.894-5.117-1.481-1.753.378-2.983,1.911-4.258,3.054-1.353,1.213-2.831,2.1-4.712,1.743-1.778-.339-3.361-1.351-5.164-1.6a6.923,6.923,0,0,0-4.462,1.119c-1.385.8-2.736,1.883-4.344,2.179-3.318.61-5.845-3.02-9.2-2.233-1.643.386-2.779,1.711-4.09,2.67a3.726,3.726,0,0,1-2.342.885,2.7,2.7,0,0,1-2.323-1.682c-.219-.538-1.069-.226-.849.316a3.6,3.6,0,0,0,3.865,2.225c1.517-.261,2.627-1.383,3.776-2.31a6.021,6.021,0,0,1,2-1.183,3.978,3.978,0,0,1,2.392.135c1.6.535,3.005,1.552,4.652,1.976a6.141,6.141,0,0,0,4.546-.783c1.443-.78,2.77-1.872,4.376-2.311,1.855-.507,3.606.381,5.313,1a6.191,6.191,0,0,0,5.023.071c1.813-.9,2.987-2.6,4.619-3.735a3.19,3.19,0,0,1,3.249-.4,24.4,24.4,0,0,0,2.887,1.239C295.8,243,295.96,242.112,295.4,241.962Z" fill="#39438e"/>
        </g>
        <g id="Group_2557" data-name="Group 2557">
          <path id="Path_4059" data-name="Path 4059" d="M400.895,185.378a24.424,24.424,0,0,0,14.019-3.009,17.7,17.7,0,0,0,6.646,10.669,9.585,9.585,0,0,0,2.163,1.266,36.419,36.419,0,0,0-3.717,8.464,31.593,31.593,0,0,1-13.791,9.633c-2.28.8-5.194,1.187-6.779-.641a9.747,9.747,0,0,1-1.467-3.628,11.994,11.994,0,0,0-1.711-3.421c-2.445-3.43-6.509-5.754-10.537-7.6V197.1a18.711,18.711,0,0,0-7.867-9.582c-5.2-2.922-11.622-2.413-17.414-1.027a64.723,64.723,0,0,0-20.388,8.839Q332,226.178,323.389,256.861q-3.107,11.093-6.293,22.167l-.208.117c-5.225-9.646-12.079-18.423-16.317-28.54-4.076-9.728-5.68-20.6-12.163-29.067a3.855,3.855,0,0,0-.516-.561c7.8-19.777,17.167-39.057,29.543-56.338,2.307-3.214,4.877-6.491,8.506-8.066a17.691,17.691,0,0,1,9.14-.917c5.549.659,10.844,2.6,16.012,4.711C368.309,167.376,384.684,176.3,400.895,185.378Z" fill="#febd46"/>
          <path id="Path_4060" data-name="Path 4060" d="M408.92,305.186a21.153,21.153,0,0,0-5.989,9.631,114.549,114.549,0,0,1-14.943-1.245,19.49,19.49,0,0,1-5.249-.8,10.439,10.439,0,0,1-5.305-3.248,11.9,11.9,0,0,1-2.065-6.642,34.555,34.555,0,0,1,1.562-12.78c-2.526-4.09-5.007-8.2-7.37-12.379-5.315-9.4-10.061-19.22-12.833-29.7a56.064,56.064,0,0,1-2.158-16.263q-15.445,12.494-30.548,25.377c-.886.76-1.928-.724-1.05-1.475.326-.281.661-.552.977-.824q8.314-29.679,16.1-59.5a64.723,64.723,0,0,1,20.388-8.839c5.792-1.386,12.218-1.895,17.414,1.027a18.711,18.711,0,0,1,7.867,9.582v.009c.226.561.435,1.132.616,1.711,1.458,4.6,1.7,9.484,1.823,14.3.586,23.468-1.571,47.108,1.956,70.312l-.072.028a24.859,24.859,0,0,0,5.034,8.506C398.727,297.188,403.85,301.25,408.92,305.186Z" fill="#febd46"/>
          <path id="Path_4061" data-name="Path 4061" d="M419.417,299.065a45.189,45.189,0,0,1,5.559-24.456,2.008,2.008,0,0,1,.706-.842c.986-.561,2.027.669,2.417,1.737a22.869,22.869,0,0,1,.437,12.68,68.493,68.493,0,0,1-4.3,12.047c6.354,1.464,12.97,4.757,15.262,10.847.915,2.425.97,5.376-.623,7.431-1.348,1.747-3.6,2.526-5.773,2.9-5.014.852-10.137,0-15.187-.648a195.984,195.984,0,0,0-22.563-1.6c-6.942-.088-14.3.1-20.31-3.388a3.687,3.687,0,0,1-1.485-1.321,2.772,2.772,0,0,1,.633-3.1,8.215,8.215,0,0,1,2.868-1.729l.371-.109a10.439,10.439,0,0,0,5.305,3.248,19.49,19.49,0,0,0,5.249.8,114.549,114.549,0,0,0,14.943,1.245,21.153,21.153,0,0,1,5.989-9.631c-5.07-3.936-10.193-8-13.842-13.219q-.529-.747-1.005-1.521a14.851,14.851,0,0,1-2.219-5.4c-.281-1.765.153-3.937,1.8-4.625s3.457.478,4.815,1.655a58.268,58.268,0,0,1,14.45,19,29.586,29.586,0,0,1,6.371-2Z" fill="#f15a25"/>
          <path id="Path_4062" data-name="Path 4062" d="M420.006,202.768a35.619,35.619,0,0,0-1.4,7.62,78.04,78.04,0,0,1-10.641,7.153,22.821,22.821,0,0,1-6.534,2.717,9.539,9.539,0,0,1-6.861-.957,4.517,4.517,0,0,1-2.172-2.76,6.358,6.358,0,0,1,.46-3.286q1.385-4.181,3.021-8.282l.38-.262a11.994,11.994,0,0,1,1.711,3.421,9.747,9.747,0,0,0,1.467,3.628c1.585,1.828,4.5,1.438,6.779.641A31.593,31.593,0,0,0,420.006,202.768Z" fill="#39438e"/>
          <path id="Path_4063" data-name="Path 4063" d="M420.017,177.39a10.262,10.262,0,0,1,15.332,3.263,14.9,14.9,0,0,1,1.468,4.833,17.925,17.925,0,0,1-.677,8.833,10.906,10.906,0,0,1-5.826,6.382,34.768,34.768,0,0,1-5.265,10.193c-1.176,1.566-2.669,3.132-4.615,3.386a1.829,1.829,0,0,1-1.032-.118c-.8-.38-.9-1.448-.878-2.325.018-.489.045-.969.081-1.449a35.619,35.619,0,0,1,1.4-7.62,36.419,36.419,0,0,1,3.717-8.464,9.585,9.585,0,0,1-2.163-1.266,17.7,17.7,0,0,1-6.646-10.669c-.064-.28-.109-.552-.145-.832a82.631,82.631,0,0,1-10.934-4.36c-3.494-1.682-6.979-3.69-9.36-6.758a3.084,3.084,0,0,1-.843-2.326,2.272,2.272,0,0,1,1.719-1.629,6.161,6.161,0,0,1,2.471.026A42.432,42.432,0,0,1,420.017,177.39Z" fill="#f15a25"/>
          <path id="Path_4064" data-name="Path 4064" d="M433.461,313.357c-.1-.569-1-.495-.9.079.2,1.1.344,2.907-1.233,2.955-1.474.044-2.317-1.421-2.964-2.525a.457.457,0,0,0-.814.18c-.205,1.3-.643,2.708-2.19,2.806a2.074,2.074,0,0,1-2.126-2.356c.076-.576-.815-.741-.89-.163a3,3,0,0,0,2.816,3.425,3.075,3.075,0,0,0,2.215-.878,3.419,3.419,0,0,0,.834-1.58c.821,1.174,1.923,2.218,3.472,1.964C433.61,316.947,433.739,314.916,433.461,313.357Z" fill="#fff7e6"/>
          <ellipse id="Ellipse_75" data-name="Ellipse 75" cx="1.635" cy="2.17" rx="1.635" ry="2.17" transform="translate(421.747 305.53)" fill="#fff7e6"/>
          <ellipse id="Ellipse_76" data-name="Ellipse 76" cx="1.541" cy="2.139" rx="1.541" ry="2.139" transform="translate(429.923 305.15)" fill="#fff7e6"/>
          <path id="Path_4065" data-name="Path 4065" d="M426.74,178.72c-.47.337-.013,1.119.461.779.911-.655,2.472-1.568,3.2-.166.678,1.309-.279,2.7-.994,3.763a.457.457,0,0,0,.514.657c1.263-.379,2.72-.592,3.478.76a2.074,2.074,0,0,1-1.2,2.936c-.552.181-.316,1.055.238.873a3,3,0,0,0,1.87-4.021,3.076,3.076,0,0,0-1.75-1.616,3.412,3.412,0,0,0-1.785-.069c.7-1.248,1.168-2.693.269-3.98C429.912,177.033,428.025,177.8,426.74,178.72Z" fill="#fff7e6"/>
          <ellipse id="Ellipse_77" data-name="Ellipse 77" cx="2.17" cy="1.635" rx="2.17" ry="1.635" transform="matrix(0.901, -0.433, 0.433, 0.901, 423.335, 189.72)" fill="#fff7e6"/>
          <ellipse id="Ellipse_78" data-name="Ellipse 78" cx="2.139" cy="1.541" rx="2.139" ry="1.541" transform="matrix(0.901, -0.433, 0.433, 0.901, 419.537, 182.682)" fill="#fff7e6"/>
        </g>
        <g id="Group_2558" data-name="Group 2558">
          <path id="Path_4066" data-name="Path 4066" d="M171.666,152.642a1.168,1.168,0,0,1,.108.868,1.561,1.561,0,0,1-.533.706,10.039,10.039,0,0,1-6.6,1.975,1.71,1.71,0,0,1-1-.208,1.785,1.785,0,0,1-.6-1,46.673,46.673,0,0,1-1.957-9.231c2.154,2.742,5.684,3.963,8.834,5.491A3.5,3.5,0,0,1,171.666,152.642Z" fill="#f47621"/>
          <path id="Path_4067" data-name="Path 4067" d="M143.854,154.885a5.77,5.77,0,1,1-5.764,5.775A5.778,5.778,0,0,1,143.854,154.885Z" fill="#f47621"/>
          <path id="Path_4068" data-name="Path 4068" d="M165.278,164.951A18,18,0,0,1,153.2,166.2c-.567-.14-.727.751-.164.89a18.8,18.8,0,0,0,12.554-1.294C166.114,165.549,165.8,164.7,165.278,164.951Z" fill="#242c5b"/>
          <path id="Path_4069" data-name="Path 4069" d="M151.3,146.093c-.151-.561-1-.243-.849.316a8.341,8.341,0,0,1,.455,3.007,2.145,2.145,0,0,1-.993,1.775,2.336,2.336,0,0,1-2.432-.68,11.986,11.986,0,0,1-1.974-2.29c-.329-.481-1.068.041-.739.523a11.774,11.774,0,0,0,2.375,2.662,3.057,3.057,0,0,0,3.164.6,2.952,2.952,0,0,0,1.478-2.335A9.242,9.242,0,0,0,151.3,146.093Z" fill="#242c5b"/>
          <path id="Path_4070" data-name="Path 4070" d="M168.351,141.216a25.789,25.789,0,0,0-.554-3.085.455.455,0,0,0-.582-.266.463.463,0,0,0-.266.582,23.77,23.77,0,0,1,.506,2.9c.075.667.242,1.754-.466,2.169-.64.375-1.538-.143-2.073-.5a5.758,5.758,0,0,1-1.666-1.7c-.315-.491-1.053.033-.739.523a6.528,6.528,0,0,0,1.531,1.665,4.857,4.857,0,0,0,2.06,1,1.872,1.872,0,0,0,2-.887A3.816,3.816,0,0,0,168.351,141.216Z" fill="#242c5b"/>
          <path id="Path_4071" data-name="Path 4071" d="M147.2,140.4a.92.92,0,0,0-1.262-.215,40.723,40.723,0,0,0-3.876,3.157,1,1,0,0,0-.367.575.905.905,0,0,0,1.414.9,40.6,40.6,0,0,1,3.876-3.157A.916.916,0,0,0,147.2,140.4Z" fill="#f15a25"/>
          <path id="Path_4072" data-name="Path 4072" d="M165.477,133.521a.927.927,0,0,0-1.164-.533l-4.875,1.476a.911.911,0,0,0-.532,1.164.926.926,0,0,0,1.164.532l4.875-1.475A.91.91,0,0,0,165.477,133.521Z" fill="#f15a25"/>
        </g>
        <g id="Group_2559" data-name="Group 2559">
          <path id="Path_4073" data-name="Path 4073" d="M272.524,160.629c-3.031-.833-6.126.347-8.591,2.108a35.186,35.186,0,0,0-7.261,7.514,89.164,89.164,0,0,0-5.993,9.214c-7.425,12.8-14.3,26.371-26.279,35.606a40.889,40.889,0,0,1-18.733,8.428,30.16,30.16,0,0,1-19.38-3.332c.113-.121.233-.24.338-.363a.687.687,0,0,0,.169-.723c-.119-.3-.454-.415-.71-.563a19.5,19.5,0,0,1-2.891-2.359c-.277-.242-.559-.48-.853-.7a.952.952,0,0,0-.923-.246,1.873,1.873,0,0,0-.513.319c-3.186-4.866-1.373-11.227-.15-16.493,1.43-6.16,1.821-12.733-.652-18.693a19.567,19.567,0,0,0-5.463-7.569.453.453,0,0,0-.582.693c4.646,3.875,6.784,9.871,6.945,15.794a38.5,38.5,0,0,1-1.187,9.82,44.372,44.372,0,0,0-1.6,9.287,14.643,14.643,0,0,0,1.167,6.2c-2.989-3.02-5.757-6.3-9.188-8.821a32.74,32.74,0,0,0-9.368-4.778,52.936,52.936,0,0,0-10.5-1.893,47.564,47.564,0,0,1-10.514-1.925,19.064,19.064,0,0,1-8.342-5.7c-4.731-5.577-6.3-12.919-6.751-20.04-.115-1.805-.165-3.613-.195-5.422a4.082,4.082,0,0,0,2.8-2.357,3.694,3.694,0,0,0-1.139-4.439,3.891,3.891,0,0,0-4.307-.215,3.576,3.576,0,0,0-1.561,3.856c.353,1.508,1.574,3.124,3.2,3.249a.5.5,0,0,0,.106.017c.122,7.281.654,14.832,4.111,21.389a23.1,23.1,0,0,0,5.818,7.257,21.721,21.721,0,0,0,9.049,4.118c3.471.771,7.031,1,10.551,1.445a37.354,37.354,0,0,1,10.456,2.674,32.457,32.457,0,0,1,9.018,5.96c2.538,2.354,4.791,4.993,7.281,7.395l-.491.384a.429.429,0,0,0-.162.436.412.412,0,0,0,.017.216,5.919,5.919,0,0,0,2.333,2.609c.549.379,1.113.737,1.67,1.1a5.071,5.071,0,0,0,.87.546.851.851,0,0,0,.914-.235c.2-.185.4-.382.6-.578a24.962,24.962,0,0,0,2.818,1.465,29.868,29.868,0,0,0,9.543,2.363,36.284,36.284,0,0,0,19.392-4.061c13.053-6.66,21.648-19.017,28.785-31.385,3.734-6.47,7.112-13.219,11.745-19.116,3.531-4.494,10.319-11.971,16.58-7.561a5.083,5.083,0,0,1,2.2,3.362c.088.572.99.5.9-.08A6.66,6.66,0,0,0,272.524,160.629Zm-151.189,2.454a2.709,2.709,0,0,1,.723-3.11,2.908,2.908,0,0,1,3.2-.293,2.754,2.754,0,0,1,1.35,3.3,3.189,3.189,0,0,1-2.6,2.2C122.705,165.358,121.755,164.188,121.335,163.083Z" fill="#242c5b"/>
          <path id="Path_4074" data-name="Path 4074" d="M125.681,161.446a1.786,1.786,0,0,0-2.878-.134,1.639,1.639,0,0,0-.276,1.583,1.739,1.739,0,0,0,1.752,1.084,1.858,1.858,0,0,0,1.589-1.36A1.508,1.508,0,0,0,125.681,161.446Zm-.7,1.005-.007.016a1.39,1.39,0,0,1-.076.161c-.012.022-.06.086,0,.011-.015.019-.028.039-.043.058a1.872,1.872,0,0,1-.132.149l-.012.008c-.019.014-.038.03-.058.044-.041.03-.084.056-.127.082-.011,0-.082.037-.1.045a.867.867,0,0,1-.086.029.514.514,0,0,1-.055.012c-.043.006-.086.013-.13.015h-.068l-.011,0c-.06-.01-.118-.021-.177-.035-.032-.013-.064-.024-.1-.038s-.054-.027-.081-.042l-.033-.02c-.032-.023-.064-.046-.094-.072s-.048-.044-.072-.067l0,0c-.038-.048-.071-.1-.105-.148l-.008-.01a.04.04,0,0,0,0-.015c-.012-.034-.027-.067-.038-.1l-.011-.034c0-.017,0-.034-.007-.051s-.006-.057-.008-.086c0-.011,0-.071,0-.08l0-.024c0-.017.006-.033.009-.05a.431.431,0,0,0,.141-.24l.009-.045c.007-.018.02-.056.02-.057l.018-.035v0l.009-.01,0-.006c.032-.024.063-.049.1-.072a.4.4,0,0,0,.105-.112c.052-.021.1-.042.158-.06l.017-.006h.006c.034,0,.069-.011.1-.014s.056-.005.084-.006h.064l.064.006c.042,0,.083.012.124.02l.082.02.021,0s0,0,.007.005c.056.027.115.05.171.078l.019.01a.841.841,0,0,1,.09.067c.021.017.041.036.062.054a.1.1,0,0,0,.016.014l.013.019c.016.022.033.043.048.065,0,.006.028.046.038.06a.992.992,0,0,1,.05.121s.011.045.016.065l.007.05c0,.016,0,.031,0,.047,0,0,0,.068-.006.084C125,162.37,124.99,162.411,124.979,162.451Z" fill="#242c5b"/>
        </g>
        <path id="Path_4075" data-name="Path 4075" d="M385.85,196.833a19.793,19.793,0,0,0-5.077-8.432,15.017,15.017,0,0,0-9.381-4.418,35.017,35.017,0,0,0-10.632,1.051,52.145,52.145,0,0,0-20.359,9.6.452.452,0,0,0-.182.381l-.007.015q-3.389,12.036-6.776,24.072t-6.776,24.073l-3.825,13.592c-.167.594.776.762.942.173q3.389-12.036,6.776-24.073t6.776-24.073l3.8-13.507a51.533,51.533,0,0,1,17.973-8.862,41.7,41.7,0,0,1,10.125-1.564,16.737,16.737,0,0,1,5.284.692,13.392,13.392,0,0,1,4.494,2.542,18.793,18.793,0,0,1,5.946,9.073C385.128,197.758,386.026,197.423,385.85,196.833Z" fill="#ff6227"/>
      </g>
      <path id="Path_4076" data-name="Path 4076" d="M325.471,377.681q-3.244.639-6.515,1.182c-10.093,1.685-20.317,2.744-30.514,3.561q-8.091.651-16.182,1.112c-2.128.121-4.247.234-6.375.33q-5.107.248-10.232.417-28.326.938-56.677-.443-5.25-.248-10.5-.582-7.257-.456-14.506-1.077-4.038-.339-8.078-.721c-.972-.391-1.954-.773-2.927-1.164-16.425-39.652-32.173-80.545-33.849-123.393-.243-5.976-.174-12.1,1.824-17.737s6.254-10.78,12-12.4c8.556-2.423,17.346,3.431,22.862,10.4,9.962,12.586,13.593,28.9,16.946,44.594.53,2.467,1.051,4.925,1.581,7.392q5.784,27.126,11.578,54.253,61.055-2.19,121.943-7.661l-.017-.174c2.232-13.654,3.5-27.491,5.046-41.267,1.824-16.3,4.039-32.512,8.712-48.208,2.563-8.6,5.941-17.154,11.718-24.025,2.475-2.936,5.6-5.655,9.406-6.2a10.918,10.918,0,0,1,2.05-.087,13.189,13.189,0,0,1,8.443,4.178,25.06,25.06,0,0,1,5.455,10.232c2.945,9.668,3.005,19.97,2.4,30.054-2.215,36.62-12.881,72.276-15.834,108.835-4.421,1.781-8.912,3.319-13.472,4.656C336.406,375.3,330.96,376.6,325.471,377.681Z" fill="#4274fe"/>
      <g id="Group_2562" data-name="Group 2562">
        <path id="Path_4077" data-name="Path 4077" d="M125.733,359.119a86.6,86.6,0,0,1-58.989,1.81C86.209,360.4,106.211,359.665,125.733,359.119Z" fill="#242c5b"/>
        <g id="Group_2561" data-name="Group 2561">
          <path id="Path_4078" data-name="Path 4078" d="M180.846,320.084A75.409,75.409,0,0,1,165.2,333.045c-18.9,12.386-40.367,20.643-58.912,33.451h-3.143l.891-1.408c.134-.221.269-.432.412-.652a141.575,141.575,0,0,1,11.869-17.971,144.278,144.278,0,0,1,33.528-31.4c6.581-4.425,13.679-8.362,21.457-9.933a16.559,16.559,0,0,1,7.568-.1,7.882,7.882,0,0,1,5.566,4.77C185.655,313.417,183.366,317.229,180.846,320.084Z" fill="#089c75"/>
          <path id="Path_4079" data-name="Path 4079" d="M104.039,365.088l-.891,1.408C103.4,366.026,103.733,365.557,104.039,365.088Z" fill="#16b6aa"/>
          <path id="Path_4080" data-name="Path 4080" d="M178.566,254.283c-3.458,16.63-14.838,30.309-25.538,43.5-12.808,15.787-25.194,31.947-36.708,48.682a141.575,141.575,0,0,0-11.869,17.971c-.143.22-.278.431-.412.652l-.891,1.408H97.554c0-.728.019-1.466.048-2.184q.948-6.869,1.82-13.756c.01-.01.01-.01,0-.019,1.054-4.915,2.462-9.8,3.947-14.6,8.41-27.215,20-53.922,38.336-75.715,7.079-8.411,15.634-16.323,26.315-18.929,2.28-.556,4.789-.833,6.906.192C179.227,243.583,179.544,249.59,178.566,254.283Z" fill="url(#linear-gradient)"/>
          <path id="Path_4081" data-name="Path 4081" d="M99.422,350.537c.01.009.01.009,0,.019q-.862,6.9-1.82,13.756c-.029.718-.048,1.456-.048,2.184H93.531q-3.837-11.7-7.692-23.383c-3.918-13.91-7.214-28-9.743-42.226-5.153-29.045-6.9-59.928,4.464-87.153,1.514-3.621,4.254-7.749,8.152-7.3,2.022.239,3.689,1.724,4.953,3.333,4.033,5.077,5.5,11.678,6.61,18.067C107.306,268.288,104.585,309.7,99.422,350.537Z" fill="#089c75"/>
          <path id="Path_4082" data-name="Path 4082" d="M93.531,366.5h-7.4q-10.892-15.261-22.9-29.658C52.206,323.59,40.414,310.8,31.878,295.819a52.41,52.41,0,0,1-5.968-14.244,25.5,25.5,0,0,1,.872-15.231,8.172,8.172,0,0,1,3.3-4.244c2.788-1.552,6.275-.2,9.043,1.38,11.974,6.849,21.094,17.923,27.723,30.012s10.987,25.289,15.3,38.384q1.854,5.619,3.7,11.237Q89.689,354.809,93.531,366.5Z" fill="#089c75"/>
          <path id="Path_4083" data-name="Path 4083" d="M174.671,241.7c-2.861-.42-4.637,2.386-5.53,4.685a13.3,13.3,0,0,1-1.86,3.81,5.9,5.9,0,0,1-3.971,1.768,9.042,9.042,0,0,0-3.993,1.223,6.311,6.311,0,0,0-2.046,2.714c-.959,2.208-1.228,5.012-3.2,6.627-1.995,1.633-4.882,1.91-6.554,3.99-1.812,2.254-1.138,5.289-2.137,7.836-.988,2.517-3.744,3.251-5.85,4.556a6.447,6.447,0,0,0-2.506,2.6,12.28,12.28,0,0,0-.852,4.109,6.636,6.636,0,0,1-1.362,3.976,9.79,9.79,0,0,1-3.326,1.973,9.587,9.587,0,0,0-3.137,1.972,6.817,6.817,0,0,0-1.582,3.521c-.257,1.366-.314,2.775-.705,4.114a6.036,6.036,0,0,1-2.395,3.21,24.922,24.922,0,0,0-3.052,2.323,5.307,5.307,0,0,0-1.529,3.469c-.173,2.67,1.247,5.844-.764,8.1-1.663,1.869-4.385,2.629-5.288,5.165a10.538,10.538,0,0,0-.328,4.083,7.906,7.906,0,0,1-.5,4.213c-1.16,2.128-4.039,2.579-5.156,4.771a5.712,5.712,0,0,0-.033,3.962c.331,1.459.418,2.758-.637,3.933-.81.9-1.858,1.555-2.661,2.466a4.518,4.518,0,0,0-1.15,3.317c.147,2.6,2.319,5.432.787,7.949a15.077,15.077,0,0,1-3.1,3.018,6.358,6.358,0,0,0-2,3.132,3.081,3.081,0,0,0,.818,3.136c.454.419,1.068-.316.616-.734-1.069-.985-.529-2.616.164-3.661a16.9,16.9,0,0,1,2.932-2.791,5.738,5.738,0,0,0,2.009-3.294,8.485,8.485,0,0,0-.519-3.7,8.913,8.913,0,0,1-.713-4.007,5.076,5.076,0,0,1,2.067-2.854,7.823,7.823,0,0,0,2.265-2.52,5.962,5.962,0,0,0-.028-3.916c-.31-1.356-.439-2.657.568-3.75a19.569,19.569,0,0,1,2.884-2.14,5.5,5.5,0,0,0,2.071-2.674,11.5,11.5,0,0,0,.261-4.128,7.6,7.6,0,0,1,.539-4.062,8.273,8.273,0,0,1,2.747-2.545,9.161,9.161,0,0,0,2.628-2.427,6.115,6.115,0,0,0,.783-3.684,32.684,32.684,0,0,1-.307-4.37,4.661,4.661,0,0,1,1.832-3.315c1.008-.825,2.162-1.455,3.139-2.321a6.44,6.44,0,0,0,1.942-3.013c.758-2.482.264-5.744,2.393-7.618,1.87-1.646,4.641-1.873,6.308-3.812,1.9-2.215,1.079-5.3,2.091-7.836.977-2.449,3.757-3.18,5.808-4.458a6.615,6.615,0,0,0,2.435-2.463,11.4,11.4,0,0,0,.968-4,8.75,8.75,0,0,1,1.086-3.917,6.934,6.934,0,0,1,3.025-2.2,17.136,17.136,0,0,0,3.427-1.8,6.951,6.951,0,0,0,2.055-2.713c.939-2.086,1.172-4.847,2.96-6.447,2.157-1.928,5.562-.857,7.8-2.732,2.171-1.821,2.289-4.86,3.884-7.055a3.612,3.612,0,0,1,3.308-1.823C175.107,242.731,175.282,241.789,174.671,241.7Z" fill="#d2f5f3"/>
          <path id="Path_4084" data-name="Path 4084" d="M177.53,247.286c-4.147,2.286-1.927,8.546-5.578,11.278-1.788,1.338-4.092,1.708-6.1,2.609a7.65,7.65,0,0,0-2.5,1.682,6.006,6.006,0,0,0-1.454,3.488,26.62,26.62,0,0,1-.464,4.361,5.979,5.979,0,0,1-1.813,2.746c-1.65,1.485-3.726,2.392-5.517,3.684a9.682,9.682,0,0,0-2.347,2.275,8.689,8.689,0,0,0-1.315,3.461,41.841,41.841,0,0,1-.718,4.226,6.056,6.056,0,0,1-2.159,3.156c-1.938,1.513-4.455,2.339-5.955,4.379-1.586,2.156-1.535,4.927-2.168,7.422a6.289,6.289,0,0,1-1.841,3.285,15.411,15.411,0,0,1-3.279,1.952,11.357,11.357,0,0,0-2.9,1.918,6.388,6.388,0,0,0-1.7,3.441c-.5,2.648-.03,5.5-1.7,7.807-1.414,1.956-3.567,3.2-5.414,4.7a13.391,13.391,0,0,0-2.539,2.567,11.189,11.189,0,0,0-1.555,3.366c-.752,2.538-.9,5.426-2.474,7.647-1.429,2.02-3.844,2.986-5.55,4.724a5.707,5.707,0,0,0-1.616,3.063,30.258,30.258,0,0,0,.036,4.373,4.422,4.422,0,0,1-1.684,3.482,6.518,6.518,0,0,0-2.243,2.7c-.449,1.4.305,2.848-.08,4.238-.379,1.367-1.809,2.127-2.666,3.16a3.331,3.331,0,0,0-.792,3.489c.259.553,1.16.225.9-.335-.695-1.481.82-2.779,1.789-3.683a4.727,4.727,0,0,0,1.813-3.166c.074-1.4-.58-2.9.328-4.148.724-1,1.857-1.608,2.612-2.58,1.832-2.358.3-5.292,1.052-7.908.678-2.367,3.275-3.539,5.05-4.967a9.068,9.068,0,0,0,2.314-2.661,14.716,14.716,0,0,0,1.313-3.758c.6-2.524,1.009-5.139,2.778-7.157,1.6-1.829,3.769-3.036,5.583-4.631a10.949,10.949,0,0,0,2.187-2.507,8.77,8.77,0,0,0,1.122-3.659c.286-2.654.036-5.608,2.39-7.413,1.938-1.486,4.505-2.033,6.154-3.917,1.7-1.941,1.782-4.638,2.279-7.04a7.573,7.573,0,0,1,1.6-3.624,11.959,11.959,0,0,1,2.917-2.165,18.414,18.414,0,0,0,3-2.021,6.852,6.852,0,0,0,2-3.175c.763-2.516.384-5.453,2.043-7.649,2.587-3.426,8.015-4.1,9.563-8.432.907-2.538-.118-5.77,1.865-7.892,1.494-1.6,3.911-2.034,5.871-2.8a7.484,7.484,0,0,0,4.584-3.98c.857-2.053.858-4.345,1.68-6.4a4.179,4.179,0,0,1,1.861-2.226C178.622,247.77,178.065,246.99,177.53,247.286Z" fill="#fff"/>
          <path id="Path_4085" data-name="Path 4085" d="M91.751,361.456c-1.288-2.053-3.69-3.052-5.062-5.033-1.642-2.369-.475-5.3-.663-7.938-.166-2.351-1.586-4.051-3.182-5.651-1.644-1.648-3.358-3.269-3.475-5.745-.123-2.574.9-5.2-.329-7.654a3.958,3.958,0,0,0-2.388-2.037,4.075,4.075,0,0,1-1.659-.8,2.958,2.958,0,0,1-.755-1.452c-.594-2.515.927-5.007.263-7.525-.584-2.216-2.723-3.092-4.586-4.018a5.273,5.273,0,0,1-3.539-4.816c-.284-2-.175-4.21-1.239-6.008-1.21-2.045-3.52-2.177-5.5-3.024a3.317,3.317,0,0,1-2.058-2.253,15.685,15.685,0,0,1-.244-3.417,6.131,6.131,0,0,0-.688-2.926,4.493,4.493,0,0,0-2.608-1.84,7.893,7.893,0,0,1-3.017-1.289,4.531,4.531,0,0,1-1.117-2.9c-.243-1.946-.329-4.237-2.33-5.234-1.912-.952-4.5-.237-5.642-2.451-.819-1.585-.821-3.45-1.476-5.094a3.855,3.855,0,0,0-1.316-1.8,3.113,3.113,0,0,0-1.157-.485,17.737,17.737,0,0,1-2.309-.23c-1.069-.368-1.59-1.552-1.966-2.526a10.91,10.91,0,0,0-1.487-3.1,3.132,3.132,0,0,0-2.538-1.3c-.617.013-.531.967.084.954,2.331-.049,2.788,3.564,3.653,5.1a3.6,3.6,0,0,0,2.315,1.876c1.065.232,2.27-.127,3.129.715,1.164,1.142,1.221,3.227,1.624,4.714.5,1.829,1.442,3.273,3.371,3.755a14.083,14.083,0,0,1,3.379.772,3.252,3.252,0,0,1,1.475,2.5c.321,1.882.171,4.138,1.753,5.507,1.616,1.4,4.606,1,5.539,3.187.84,1.971.038,4.263.817,6.269.844,2.171,3.066,2.527,5.02,3.206a4.378,4.378,0,0,1,2.479,1.793,7.148,7.148,0,0,1,.81,2.862c.241,1.985.212,4.143,1.306,5.9,1.114,1.785,3.206,2.4,4.946,3.374a4.25,4.25,0,0,1,2.139,2.265,8.632,8.632,0,0,1-.165,4.193c-.344,1.927-.444,4.5,1.379,5.753,1,.69,2.31.652,3.1,1.671a5.213,5.213,0,0,1,.89,3.1c.027,1.414-.3,2.813-.318,4.227a6.789,6.789,0,0,0,.846,3.475c1.035,1.844,2.789,3.12,4.14,4.709a6.854,6.854,0,0,1,1.527,2.724,12.535,12.535,0,0,1,.008,4.118,9.827,9.827,0,0,0,.211,3.778,6.849,6.849,0,0,0,1.882,2.83c1.67,1.618,3.867,2.769,4.577,5.136a2.691,2.691,0,0,1-.571,2.884c-.46.4.088,1.188.554.782C93.276,365.573,92.832,363.18,91.751,361.456Z" fill="#89e0da"/>
          <path id="Path_4086" data-name="Path 4086" d="M85.6,361.165a17.613,17.613,0,0,1-2.375-2.157,3.652,3.652,0,0,1-.73-1.332,4.61,4.61,0,0,1,.06-1.924,3.892,3.892,0,0,0-.4-2.757,5.506,5.506,0,0,0-1.679-1.6c-1.286-.863-3.081-1.576-3.766-3.068-.942-2.053.551-4.428-.551-6.491-.915-1.713-2.943-2.163-4.492-3.093-3.664-2.2-1.486-7.437-3.926-10.463-1.255-1.556-3.237-2.04-4.86-3.079a4.224,4.224,0,0,1-1.851-2.321,12.078,12.078,0,0,1-.341-3.274c-.057-2.026-.33-4.041-2.006-5.389-1.476-1.187-3.411-1.593-4.894-2.757-1.845-1.447-1.495-3.723-1.742-5.8a5.266,5.266,0,0,0-1.082-2.825A6.046,6.046,0,0,0,48.81,301.3c-1.621-.749-3.655-1.092-4.9-2.473-1.411-1.567-1.179-3.958-1.456-5.9a5.773,5.773,0,0,0-2.892-4.573c-1.752-.981-4.062-1.319-5.2-3.136-1.2-1.9-.9-4.389-1.695-6.451a9.045,9.045,0,0,0-3.938-4.529,8.656,8.656,0,0,0-2.848-1.017.479.479,0,0,0-.173.942,8.043,8.043,0,0,1,5.192,3.314c1.31,1.871,1.333,4.053,1.844,6.2a6.105,6.105,0,0,0,1.376,2.791,7.008,7.008,0,0,0,2.337,1.549c1.765.793,3.832,1.338,4.626,3.3.751,1.861.476,3.969.967,5.9a5.629,5.629,0,0,0,3.487,3.811c1.594.7,3.672,1.073,4.778,2.54,1.325,1.757.624,4.265,1.217,6.271.554,1.874,2.171,2.846,3.835,3.635,1.744.826,3.546,1.617,4.092,3.648s.031,4.178.694,6.183c.646,1.953,2.367,2.869,4.1,3.713a8.6,8.6,0,0,1,2.462,1.562,5.072,5.072,0,0,1,1.234,2.495c.418,1.872.283,3.846.916,5.674.657,1.894,2.139,2.806,3.865,3.622a6.167,6.167,0,0,1,2.314,1.523,4.26,4.26,0,0,1,.537,3.186,8.263,8.263,0,0,0,.073,3.189,4.321,4.321,0,0,0,1.355,1.972c1.2,1.05,2.782,1.6,3.9,2.742a2.707,2.707,0,0,1,.71,2.494,5.008,5.008,0,0,0,.236,3.2c.971,1.91,3.081,2.777,4.285,4.486a2.7,2.7,0,0,1,.419,3.035c-.323.526.547.93.866.41C88.62,364.669,87.067,362.427,85.6,361.165Z" fill="#89e0da"/>
        </g>
        <path id="Path_4087" data-name="Path 4087" d="M125.733,359.119a171.346,171.346,0,0,1-2.7,18.181q-4.584,24.831-9.177,49.631c-10.786,2.242-22.033,3.19-32.675.747q-7.4-33.38-14.81-66.739c.125,0,.249,0,.374-.01A86.6,86.6,0,0,0,125.733,359.119Z" fill="#f4ac22"/>
      </g>
    </g>
    <g id="crowns" transform="translate(-5963.551 1583.656) rotate(-21)">
      <path id="Path_4088" data-name="Path 4088" d="M91,300v18.508h67.863V300Zm0,0" transform="translate(-72.286 -238.306)" fill="#ff9f00"/>
      <path id="Path_4089" data-name="Path 4089" d="M256,300h33.931v18.508H256Zm0,0" transform="translate(-203.355 -238.306)" fill="#ff7816"/>
      <path id="Path_4090" data-name="Path 4090" d="M157.98,106.287l-5,9.747H94.5l-5-9.747C96.842,96.107,109.613,90,123.74,90s26.9,6.107,34.24,16.287Zm0,0" transform="translate(-71.095 -71.492)" fill="#ff4b00"/>
      <path id="Path_4091" data-name="Path 4091" d="M290.24,106.286l-5,9.747H256V90c14.128,0,26.9,6.108,34.24,16.287Zm0,0" transform="translate(-203.355 -71.491)" fill="#cc1e0d"/>
      <path id="Path_4092" data-name="Path 4092" d="M125.836,85.341,114.3,124.578H46.436L34.9,85.341l7.774-2.961A21.741,21.741,0,0,0,58.4,93.731h3.208c7.095-1.11,12.4-11.968,14.56-22.333h8.391c2.159,10.365,7.465,21.223,14.559,22.333h3.208A21.741,21.741,0,0,0,118.062,82.38Zm0,0" transform="translate(-27.722 -56.715)" fill="#fdbf00"/>
      <path id="Path_4093" data-name="Path 4093" d="M301.469,85.341l-11.537,39.237H256V71.4H260.2c2.16,10.365,7.465,21.223,14.56,22.333h3.208A21.741,21.741,0,0,0,293.7,82.38Zm0,0" transform="translate(-203.355 -56.715)" fill="#ff9f00"/>
      <path id="Path_4094" data-name="Path 4094" d="M9.46,78.508A9.256,9.256,0,1,1,9.46,60a9.254,9.254,0,1,1,0,18.508Zm0,0" transform="translate(0 -47.661)" fill="#ff9f00"/>
      <path id="Path_4095" data-name="Path 4095" d="M430.254,78.508a9.254,9.254,0,0,1,0-18.508,9.256,9.256,0,1,1,0,18.508Zm0,0" transform="translate(-334.423 -47.661)" fill="#ff7816"/>
      <path id="Path_4096" data-name="Path 4096" d="M220.254,0a9.254,9.254,0,1,0,9.254,9.254A9.241,9.241,0,0,0,220.254,0Zm0,0" transform="translate(-167.609)" fill="#ff9f00"/>
      <path id="Path_4097" data-name="Path 4097" d="M215.249,173.7l-10.55,10.55,10.55,10.55,10.55-10.55Zm0,0" transform="translate(-162.604 -137.979)" fill="#ff4b00"/>
      <path id="Path_4098" data-name="Path 4098" d="M329.151,233.785l4.362,4.362-4.362,4.362-4.362-4.362Zm0,0" transform="translate(-257.998 -185.708)" fill="#cc1e0d"/>
      <path id="Path_4099" data-name="Path 4099" d="M149.151,233.785l4.362,4.362-4.362,4.362-4.362-4.362Zm0,0" transform="translate(-115.014 -185.708)" fill="#ff4b00"/>
      <path id="Path_4100" data-name="Path 4100" d="M256,18.508V0a9.254,9.254,0,0,1,0,18.508Zm0,0" transform="translate(-203.355)" fill="#ff7816"/>
      <path id="Path_4101" data-name="Path 4101" d="M266.55,184.249,256,194.8V173.7Zm0,0" transform="translate(-203.355 -137.978)" fill="#cc1e0d"/>
    </g>
    <g id="shining-3" data-name="shining" transform="translate(-5819.902 1590.494)">
      <path id="SVGCleanerId_0-3" data-name="SVGCleanerId_0" d="M204.634,72.17a26.273,26.273,0,0,1-3.67-.937c-8.508-2.861-13.317-9.812-14.9-18.761a.774.774,0,0,0-1.523,0c-1.839,10.4-7.96,17.752-18.517,19.711a.774.774,0,0,0,0,1.521c10.459,1.935,16.687,9.274,18.52,19.589a.773.773,0,0,0,1.523,0c.933-5.319,3.553-12.546,10.735-16.766a23.984,23.984,0,0,1,7.832-2.834.774.774,0,0,0,0-1.522Z" transform="translate(-146.367 -13.623)" fill="#f4a32c"/>
      <g id="Group_2565-3" data-name="Group 2565" transform="translate(19.027 38.213)">
        <path id="SVGCleanerId_0_1_3" data-name="SVGCleanerId_0_1_" d="M204.634,72.17a26.273,26.273,0,0,1-3.67-.937c-8.508-2.861-13.317-9.812-14.9-18.761a.774.774,0,0,0-1.523,0c-1.839,10.4-7.96,17.752-18.517,19.711a.774.774,0,0,0,0,1.521c10.459,1.935,16.687,9.274,18.52,19.589a.773.773,0,0,0,1.523,0c.933-5.319,3.553-12.546,10.735-16.766a23.984,23.984,0,0,1,7.832-2.834.774.774,0,0,0,0-1.522Z" transform="translate(-165.395 -51.836)" fill="#f4a32c"/>
      </g>
      <path id="Path_4102-3" data-name="Path 4102" d="M174.107,202.507a23.708,23.708,0,0,1-8.083,3.013.774.774,0,0,0,0,1.521c10.459,1.935,16.687,9.274,18.52,19.589a.773.773,0,0,0,1.523,0,27.587,27.587,0,0,1,3.59-9.754C186.893,209.18,181.61,204.39,174.107,202.507Z" transform="translate(-146.367 -146.96)" fill="#e89528"/>
      <path id="Path_4103-3" data-name="Path 4103" d="M103.922,350.049a9.185,9.185,0,0,1-5.969-6.341.774.774,0,0,0-1.476,0,9.3,9.3,0,0,1-5.969,6.338.774.774,0,0,0,0,1.464,9.3,9.3,0,0,1,5.97,6.341.774.774,0,0,0,1.477,0,9.481,9.481,0,0,1,3.67-5.2h0c1.9-1.3,2.829-.923,2.827-1.864A.773.773,0,0,0,103.922,350.049Z" transform="translate(-79.634 -271.436)" fill="#f7e7a1"/>
      <path id="Path_4104-3" data-name="Path 4104" d="M93.592,388.21c-.022-.007-.042-.018-.063-.027a9.133,9.133,0,0,1-3.021,1.7.774.774,0,0,0,0,1.464,9.3,9.3,0,0,1,5.97,6.341.777.777,0,0,0,.74.542c1.089,0,.51-1.3,2.325-3.74A9.281,9.281,0,0,0,93.592,388.21Z" transform="translate(-79.635 -311.276)" fill="#ead786"/>
      <path id="Path_4105-3" data-name="Path 4105" d="M13.948,43.327a9.186,9.186,0,0,1-5.969-6.341.773.773,0,0,0-1.476,0A9.3,9.3,0,0,1,.534,43.324a.774.774,0,0,0,0,1.464A9.3,9.3,0,0,1,6.5,51.129a.774.774,0,0,0,1.477,0,9.263,9.263,0,0,1,3.67-5.2c1.892-1.3,2.828-.928,2.827-1.864A.774.774,0,0,0,13.948,43.327Z" transform="translate(-0.011)" fill="#f4d44e"/>
      <path id="Path_4106-3" data-name="Path 4106" d="M3.308,83.146C1.176,84.851,0,84.374,0,85.387a.773.773,0,0,0,.523.732,9.3,9.3,0,0,1,5.97,6.341A.777.777,0,0,0,7.233,93c1.035,0,.538-1.21,2.179-3.542A9.356,9.356,0,0,0,3.308,83.146Z" transform="translate(0 -41.331)" fill="#e8c842"/>
    </g>
    <g id="shining-4" data-name="shining" transform="matrix(0.978, -0.208, 0.208, 0.978, -5980.418, 1703.498)">
      <path id="SVGCleanerId_0-4" data-name="SVGCleanerId_0" d="M165.853,66.5a18.952,18.952,0,0,0,2.647-.676c6.137-2.064,9.606-7.078,10.748-13.533a.558.558,0,0,1,1.1,0c1.327,7.5,5.742,12.8,13.357,14.218a.558.558,0,0,1,0,1.1c-7.545,1.4-12.037,6.69-13.359,14.131a.558.558,0,0,1-1.1,0c-.673-3.837-2.563-9.05-7.744-12.094a17.3,17.3,0,0,0-5.65-2.044.558.558,0,0,1,0-1.1Z" transform="translate(-165.395 -50.558)" fill="#f4a32c"/>
      <g id="Group_2565-4" data-name="Group 2565" transform="translate(0 1.277)">
        <path id="SVGCleanerId_0_1_4" data-name="SVGCleanerId_0_1_" d="M165.853,66.5a18.952,18.952,0,0,0,2.647-.676c6.137-2.064,9.606-7.078,10.748-13.533a.558.558,0,0,1,1.1,0c1.327,7.5,5.742,12.8,13.357,14.218a.558.558,0,0,1,0,1.1c-7.545,1.4-12.037,6.69-13.359,14.131a.558.558,0,0,1-1.1,0c-.673-3.837-2.563-9.05-7.744-12.094a17.3,17.3,0,0,0-5.65-2.044.558.558,0,0,1,0-1.1Z" transform="translate(-165.395 -51.836)" fill="#f4a32c"/>
      </g>
      <path id="Path_4102-4" data-name="Path 4102" d="M176.612,202.507a17.1,17.1,0,0,0,5.831,2.174.558.558,0,0,1,0,1.1c-7.545,1.4-12.037,6.69-13.359,14.131a.558.558,0,0,1-1.1,0,19.9,19.9,0,0,0-2.59-7.036A15.412,15.412,0,0,1,176.612,202.507Z" transform="translate(-154.134 -188.726)" fill="#e89528"/>
      <path id="Path_4103-4" data-name="Path 4103" d="M90.368,348.13a6.626,6.626,0,0,0,4.306-4.574.558.558,0,0,1,1.065,0,6.711,6.711,0,0,0,4.306,4.572.558.558,0,0,1,0,1.056,6.707,6.707,0,0,0-4.306,4.574.558.558,0,0,1-1.066,0A6.839,6.839,0,0,0,92.026,350h0c-1.368-.938-2.04-.666-2.039-1.345A.558.558,0,0,1,90.368,348.13Z" transform="translate(-65.401 -317.711)" fill="#f7e7a1"/>
      <path id="Path_4104-4" data-name="Path 4104" d="M94.28,388.2c.016-.005.03-.013.045-.02a6.588,6.588,0,0,0,2.179,1.228.558.558,0,0,1,0,1.056,6.707,6.707,0,0,0-4.306,4.574.561.561,0,0,1-.533.391c-.786,0-.368-.94-1.677-2.7A6.7,6.7,0,0,1,94.28,388.2Z" transform="translate(-61.86 -358.994)" fill="#ead786"/>
      <path id="Path_4105-4" data-name="Path 4105" d="M.394,41.409A6.626,6.626,0,0,0,4.7,36.835a.558.558,0,0,1,1.065,0,6.712,6.712,0,0,0,4.306,4.572.558.558,0,0,1,0,1.056,6.707,6.707,0,0,0-4.306,4.574.558.558,0,0,1-1.066,0,6.681,6.681,0,0,0-2.648-3.753C.687,42.347.011,42.613.012,41.937A.558.558,0,0,1,.394,41.409Z" transform="translate(32.04 -36.442)" fill="#f4d44e"/>
      <path id="Path_4106-4" data-name="Path 4106" d="M4.4,83.146c1.538,1.23,2.386.886,2.386,1.616a.558.558,0,0,1-.377.528,6.707,6.707,0,0,0-4.306,4.574.561.561,0,0,1-.533.391c-.746,0-.388-.873-1.572-2.555A6.749,6.749,0,0,1,4.4,83.146Z" transform="translate(35.699 -79.27)" fill="#e8c842"/>
    </g>
  </g>
</svg>
